<?xml version="1.0" encoding="UTF-8" standalone="no"?>
<!-- Created with Inkscape (http://www.inkscape.org/) -->

<svg
   xmlns:dc="http://purl.org/dc/elements/1.1/"
   xmlns:cc="http://creativecommons.org/ns#"
   xmlns:rdf="http://www.w3.org/1999/02/22-rdf-syntax-ns#"
   xmlns:svg="http://www.w3.org/2000/svg"
   xmlns="http://www.w3.org/2000/svg"
   xmlns:sodipodi="http://sodipodi.sourceforge.net/DTD/sodipodi-0.dtd"
   xmlns:inkscape="http://www.inkscape.org/namespaces/inkscape"
   width="210mm"
   height="297mm"
   viewBox="0 0 210 297"
   version="1.1"
   id="svg8"
   inkscape:version="0.92.4 (5da689c313, 2019-01-14)"
   sodipodi:docname="source.svg">
  <defs
     id="defs2">
    <marker
       style="overflow:visible"
       refY="0.0"
       refX="0.0"
       orient="auto"
       id="DistanceX">
      <path
         id="path4693"
         style="stroke:#000000; stroke-width:0.5"
         d="M 3,-3 L -3,3 M 0,-5 L  0,5" />
    </marker>
    <pattern
       y="0"
       x="0"
       width="8"
       patternUnits="userSpaceOnUse"
       id="Hatch"
       height="8">
      <path
         id="path4696"
         stroke-width="0.25"
         stroke="#000000"
         linecap="square"
         d="M8 4 l-4,4" />
      <path
         id="path4698"
         stroke-width="0.25"
         stroke="#000000"
         linecap="square"
         d="M6 2 l-4,4" />
      <path
         id="path4700"
         stroke-width="0.25"
         stroke="#000000"
         linecap="square"
         d="M4 0 l-4,4" />
    </pattern>
    <symbol
       id="*MODEL_SPACE" />
    <symbol
       id="*PAPER_SPACE" />
  </defs>
  <sodipodi:namedview
     id="base"
     pagecolor="#ffffff"
     bordercolor="#666666"
     borderopacity="1.0"
     inkscape:pageopacity="0.0"
     inkscape:pageshadow="2"
     inkscape:zoom="0.18332844"
     inkscape:cx="-399.49427"
     inkscape:cy="1937.8099"
     inkscape:document-units="mm"
     inkscape:current-layer="layer1"
     showgrid="false"
     inkscape:window-width="1920"
     inkscape:window-height="1017"
     inkscape:window-x="-8"
     inkscape:window-y="-8"
     inkscape:window-maximized="1" />
  <metadata
     id="metadata5">
    <rdf:RDF>
      <cc:Work
         rdf:about="">
        <dc:format>image/svg+xml</dc:format>
        <dc:type
           rdf:resource="http://purl.org/dc/dcmitype/StillImage" />
        <dc:title></dc:title>
      </cc:Work>
    </rdf:RDF>
  </metadata>
  <g
     inkscape:label="Layer 1"
     inkscape:groupmode="layer"
     id="layer1">
    <path
       style="fill:#000000;stroke-width:0.26458335"
       d="m -300.907,-286.69703 h 2.18287 l 0.0724,-4.56407 0.0724,-4.56406 h 0.74504 0.74504 l 0.17421,-6.94531 c 0.0958,-3.81992 0.17446,-12.1543 0.17475,-18.52084 5.3e-4,-10.11272 0.0507,-11.57552 0.39742,-11.57552 0.46691,0 0.56453,-1.48752 0.10761,-1.63982 -0.1591,-0.053 0.0493,-0.25408 0.46302,-0.44678 1.8892,-0.87984 2.38726,-1.08123 3.06739,-1.24024 0.40018,-0.0936 0.72761,-0.27626 0.72761,-0.40601 0,-0.12974 0.26789,-0.23663 0.59531,-0.23753 0.32742,-7.9e-4 0.9525,-0.19545 1.38906,-0.43234 0.53269,-0.28906 1.4464,-0.43071 2.77813,-0.43071 1.33172,0 2.24543,0.14165 2.77812,0.43071 0.43656,0.23689 0.92428,0.43145 1.08383,0.43234 0.15954,8e-4 0.63579,0.16386 1.05833,0.36214 0.42254,0.19827 1.59784,0.7034 2.61179,1.1225 1.02411,0.4233 1.64152,0.8009 1.38906,0.84952 -0.58621,0.1129 -0.58388,0.93985 0.004,1.52803 0.42304,0.42303 0.46656,1.71784 0.55881,16.6215 0.0724,11.68763 0.18341,16.21848 0.40113,16.36406 0.16559,0.11073 0.77733,0.17026 1.35941,0.13229 l 1.05834,-0.069 0.0136,-2.70828 c 0.0119,-2.36212 0.088,-2.80885 0.59531,-3.49502 0.31991,-0.4327 0.58166,-0.85959 0.58166,-0.94863 0,-0.089 0.17859,-0.3405 0.39687,-0.55878 0.34599,-0.34599 0.39688,-3.03928 0.39688,-21.00349 v -20.60661 l 0.85989,-0.13265 c 0.47295,-0.0729 1.45521,-0.20595 2.18282,-0.29556 2.5313,-0.31173 2.51354,-0.29942 2.51354,-1.74112 0,-0.71183 0.11906,-1.29423 0.26458,-1.29423 0.14552,0 0.26458,-0.32855 0.26458,-0.73011 0,-0.90662 -0.68381,-1.36558 -2.3353,-1.56738 l -1.23657,-0.15111 -1.01527,-2.1053 c -1.10548,-2.29236 -1.13537,-3.21719 -0.11205,-3.46663 1.18643,-0.28919 3.35875,-1.11674 3.60664,-1.37395 0.13931,-0.14455 0.2933,-0.62 0.34219,-1.05657 0.0859,-0.76644 0.14351,-0.7983 1.67641,-0.92604 l 1.5875,-0.13229 0.16365,-1.85208 c 0.09,-1.01865 0.25658,-3.06854 0.37016,-4.55531 0.11358,-1.48677 0.2901,-2.65156 0.39227,-2.58842 0.10216,0.0631 0.27636,1.27959 0.38711,2.70323 0.11075,1.42363 0.2773,3.42185 0.37012,4.4405 l 0.16877,1.85208 1.65365,0.0788 1.65364,0.0788 v 0.88102 c 0,0.48456 0.14883,0.99621 0.33073,1.137 0.335,0.25929 2.48052,1.04819 3.57188,1.31336 0.50482,0.12266 0.59531,0.32094 0.59531,1.30443 0,0.63787 -0.11906,1.15977 -0.26459,1.15977 -0.14552,0 -0.26458,0.12399 -0.26458,0.27553 0,0.15154 -0.26789,0.85241 -0.59531,1.55749 -0.56506,1.21681 -0.65816,1.28945 -1.83188,1.42941 -1.63857,0.19537 -2.33531,0.65725 -2.33531,1.5481 0,0.39297 0.11906,0.78808 0.26458,0.87802 0.14553,0.0899 0.26459,0.67936 0.26459,1.30985 0,1.27314 0.0206,1.28621 2.51354,1.59321 0.7276,0.0896 1.70987,0.22261 2.18281,0.29556 l 0.8599,0.13265 v 20.60661 c 0,17.96421 0.0509,20.6575 0.39687,21.00349 0.21828,0.21828 0.39688,0.45962 0.39688,0.53631 0,0.0767 0.28647,0.56158 0.63661,1.07754 0.3726,0.54906 0.57971,1.15566 0.49941,1.46271 -0.0754,0.28854 -0.062,0.82419 0.0299,1.19032 0.1372,0.54667 0.3267,0.66571 1.05977,0.66571 0.56994,0 0.95076,-0.15132 1.05329,-0.41852 0.0883,-0.23018 0.1606,-12.36482 0.1606,-26.96586 0,-14.60104 0.0723,-26.73568 0.1606,-26.96586 0.17825,-0.46451 1.95606,-0.60441 1.95606,-0.15393 0,0.15417 0.87674,0.26458 2.10106,0.26458 1.15557,0 2.17463,-0.11906 2.26457,-0.26458 0.21332,-0.34516 4.81377,-0.34516 5.02708,0 0.21322,0.34499 4.02012,0.34499 4.23334,0 0.27003,-0.43692 1.90795,-0.31619 2.08836,0.15393 0.0883,0.23018 0.16059,7.18743 0.16059,15.46055 v 15.04204 l -0.72564,0.0837 c -0.88674,0.1023 -1.39114,1.0541 -1.20114,2.26653 0.10856,0.69272 0.25771,0.8599 0.7672,0.8599 0.54688,0 0.62335,-0.11243 0.56528,-0.83111 -0.0388,-0.47987 0.0726,-0.88054 0.26358,-0.94809 0.25943,-0.0918 0.33072,1.46044 0.33072,7.20014 v 7.31713 l 1.52136,-0.18398 c 0.83674,-0.10118 1.67018,-0.30292 1.85208,-0.44831 0.25902,-0.20702 0.33073,-4.35576 0.33073,-19.13468 v -18.87045 l 0.79375,-0.46888 c 0.43656,-0.25788 0.79375,-0.67669 0.79375,-0.93069 0,-0.39837 0.31813,-0.47233 2.31511,-0.53827 l 2.3151,-0.0765 0.0714,-0.92604 c 0.1545,-2.00321 0.20306,-2.06546 1.4973,-1.91959 2.26512,0.25532 3.10454,-0.39773 2.14386,-1.66787 -0.78689,-1.04036 -0.54524,-1.17504 2.10825,-1.17504 2.4848,0 2.89,0.15195 2.11668,0.79375 -0.21828,0.18115 -0.39688,0.70986 -0.39688,1.17491 v 0.84554 l 1.78594,-0.002 1.78594,-0.002 0.0714,0.90949 c 0.171,2.17744 0.0693,2.10011 2.76125,2.10011 h 2.42571 l -0.71096,0.74208 c -1.2208,1.27423 -0.66726,2.34651 0.96906,1.87722 0.90797,-0.26041 1.09815,-0.17081 0.87451,0.41199 -0.0862,0.22456 -0.40846,0.40829 -0.71619,0.40829 -0.33307,0 -0.51259,0.13386 -0.44357,0.33073 0.0638,0.1819 0.43087,0.29646 0.81579,0.25457 l 0.69985,-0.0759 v 23.92395 23.92395 l 0.59532,0.15953 c 0.32742,0.0877 1.22039,0.16117 1.98437,0.16315 l 1.38906,0.004 v -24.07704 -24.07709 h 0.78455 c 0.49443,0 1.11884,-0.29352 1.68857,-0.79375 l 0.90403,-0.79375 h 5.27879 5.27879 l 0.7717,0.7864 c 0.5366,0.54682 1.03367,0.78864 1.6316,0.79375 l 0.85989,0.007 v 20.10834 c 0,17.69768 0.0476,20.10833 0.39688,20.10833 0.34189,0 0.39687,-0.89088 0.39687,-6.43039 v -6.43039 l 0.92604,-0.89755 0.92604,-0.89756 0.008,-19.46112 c 0.007,-16.6927 0.0637,-19.53418 0.39687,-19.97471 0.21366,-0.28247 0.38846,-0.84802 0.38846,-1.25677 0,-0.7411 0.44207,-0.97792 0.93928,-0.50318 0.13824,0.132 0.69783,0.36052 1.24354,0.50784 0.89947,0.24281 0.99218,0.21951 0.99218,-0.24931 0,-0.44686 0.0772,-0.47585 0.56772,-0.21331 0.39435,0.21104 2.81837,0.29054 7.9375,0.26031 l 7.36978,-0.0435 v 1.2042 c 0,1.02782 0.0775,1.20421 0.52917,1.20421 0.52446,0 0.52917,0.17639 0.52917,19.81332 v 19.81332 l 0.62504,0.40955 c 0.46272,0.30318 0.66138,0.73188 0.76494,1.65065 0.0769,0.68261 0.27918,1.32719 0.44941,1.4324 0.17024,0.10522 0.35242,0.65291 0.40486,1.21711 0.0524,0.56419 0.22378,1.06862 0.38075,1.12095 0.15698,0.0523 0.28615,0.3531 0.28704,0.6684 8e-4,0.31529 0.1795,0.91429 0.39688,1.33111 0.21738,0.41682 0.39524,0.90008 0.39524,1.07391 0,0.17383 0.15754,0.5315 0.35007,0.79481 0.2718,0.37171 0.54034,0.43696 1.20106,0.29184 0.70462,-0.15476 0.82686,-0.28529 0.71071,-0.75891 -0.0772,-0.3146 -0.0717,-0.42243 0.0122,-0.23962 0.0838,0.18281 0.24585,0.27465 0.36002,0.20409 0.19852,-0.12269 -0.32531,-2.20904 -0.76795,-3.05869 -0.11621,-0.22306 -0.2997,-0.81838 -0.40777,-1.32292 -0.10807,-0.50455 -0.28583,-1.03642 -0.39502,-1.18194 -0.27215,-0.36271 -0.5009,-1.71979 -0.28989,-1.71979 0.2655,0 1.08374,1.49425 0.91219,1.66581 -0.145,0.14499 0.73986,3.42794 1.22687,4.55189 0.12611,0.29105 0.30525,0.79998 0.39809,1.13096 0.15581,0.55545 0.27424,0.58946 1.53799,0.44168 0.75305,-0.0881 1.54777,-0.22952 1.76605,-0.31435 0.41115,-0.1598 0.67584,-0.24242 0.95844,-0.29917 0.0906,-0.0182 0.0417,-0.1819 -0.10862,-0.3638 -0.15031,-0.1819 -0.35901,-0.80698 -0.46377,-1.38907 -0.10475,-0.58208 -0.27848,-1.17739 -0.38605,-1.32291 -0.10757,-0.14552 -0.28129,-0.74084 -0.38605,-1.32292 -0.10476,-0.58208 -0.2829,-1.17739 -0.39587,-1.32292 -0.30408,-0.39169 -0.50126,-1.71979 -0.25534,-1.71979 0.32008,0 0.54609,0.46786 0.67887,1.40528 0.15316,1.08132 1.10359,4.40785 1.43064,5.00728 0.13787,0.25269 0.25067,0.64295 0.25067,0.86726 0,0.34419 0.27873,0.38086 1.78594,0.23496 0.98226,-0.0951 1.89771,-0.27566 2.03434,-0.40129 0.2266,-0.20837 -0.0648,-3.81131 -0.53785,-6.65047 -0.18079,-1.085 0.2074,-1.35788 0.67876,-0.47714 0.21657,0.40466 0.17603,0.57304 -0.18913,0.7857 -0.25563,0.14887 -0.3313,0.27429 -0.16817,0.27871 0.18134,0.005 0.37902,0.95916 0.50868,2.45544 0.11664,1.34607 0.23731,2.50693 0.26815,2.57969 0.0308,0.0728 0.14325,0.40018 0.24979,0.7276 0.1786,0.5489 0.3522,0.59532 2.2266,0.59532 1.14313,0 2.1621,-0.12922 2.32811,-0.29523 0.17084,-0.17084 0.25182,-0.86752 0.1922,-1.65364 -0.28015,-3.69411 -0.33509,-5.98863 -0.14339,-5.98863 0.11684,0 0.27814,1.65964 0.35844,3.68808 0.14722,3.71882 0.36488,4.8269 0.75332,3.83498 0.17982,-0.45919 0.20225,-0.46315 0.21894,-0.0387 0.0167,0.42452 0.26922,0.46516 2.46599,0.39687 l 2.4474,-0.0761 0.0519,-3.175 c 0.0405,-2.4788 -0.0306,-3.23837 -0.32425,-3.46401 -0.3222,-0.24758 -0.32325,-0.36133 -0.007,-0.79334 0.20283,-0.27737 0.4543,-0.41879 0.55883,-0.31425 0.10453,0.10453 0.16764,1.92005 0.14023,4.03448 l -0.0498,3.84442 h 1.84637 c 1.53597,0 1.86672,-0.0778 1.96738,-0.46303 0.11524,-0.44097 0.12246,-0.44097 0.15169,0 0.0169,0.25467 0.1328,0.46303 0.25759,0.46303 0.2975,0 0.56686,-2.65865 0.56686,-5.59507 0,-1.28834 0.0928,-2.34243 0.20616,-2.34243 0.19336,0 0.18945,0.77311 -0.0297,5.87459 l -0.0876,2.03813 1.29147,0.27697 c 0.7103,0.15234 1.73716,0.27697 2.2819,0.27697 0.94753,0 1.00397,-0.0506 1.30301,-1.16869 0.17192,-0.64278 0.39263,-2.33942 0.49047,-3.77031 0.10031,-1.46708 0.33408,-2.82921 0.53605,-3.12352 0.33503,-0.48818 0.35815,-0.46682 0.35815,0.33073 0,0.46895 -0.11906,0.85263 -0.26458,0.85263 -0.14552,0 -0.24184,0.0893 -0.21404,0.19843 0.0837,0.3284 -0.33811,5.45202 -0.49277,5.98626 -0.0851,0.29393 -0.0355,0.42935 0.12157,0.33225 0.14587,-0.0901 0.33348,0.014 0.41692,0.23145 0.11317,0.29491 0.59075,0.39536 1.87981,0.39536 1.62684,0 1.72809,-0.0357 1.72809,-0.60855 0,-0.33469 0.10652,-0.72165 0.23671,-0.85989 0.13019,-0.13825 0.37806,-0.84667 0.55082,-1.57427 0.91594,-3.8575 1.31662,-5.15938 1.58789,-5.15938 0.23445,0 0.0235,1.34104 -0.27058,1.71979 -0.11297,0.14552 -0.29111,0.74084 -0.39586,1.32292 -0.10476,0.58208 -0.28287,1.1774 -0.3958,1.32292 -0.11292,0.14552 -0.28973,0.83159 -0.3929,1.52461 -0.10317,0.69301 -0.29291,1.32511 -0.42164,1.40467 -0.64517,0.39874 -0.13285,0.89067 1.2201,1.17154 2.0149,0.41829 2.55748,0.29214 2.84395,-0.66124 0.13118,-0.43656 0.33681,-1.03187 0.45696,-1.32292 0.46225,-1.11976 1.34311,-4.06378 1.27925,-4.27557 -0.0891,-0.29539 0.66106,-1.94213 0.88467,-1.94213 0.1944,0 0.0353,0.90261 -0.30314,1.71979 -0.12054,0.29104 -0.48458,1.42213 -0.80899,2.51354 -0.32441,1.09141 -0.75163,2.35956 -0.94938,2.81811 -0.45263,1.04956 -0.44994,1.16872 0.0222,0.98752 0.21,-0.0806 0.43431,-0.34474 0.49847,-0.58701 0.10725,-0.40493 0.11914,-0.40437 0.14736,0.007 0.0169,0.24607 -0.0884,0.52099 -0.23389,0.61093 -0.61731,0.38151 -0.18797,0.68634 0.85989,0.61052 1.06646,-0.0772 1.13907,-0.13597 1.40722,-1.13969 0.1555,-0.58208 0.42339,-1.3935 0.59531,-1.80316 0.17192,-0.40966 0.31258,-0.89583 0.31258,-1.08038 0,-0.18456 0.0857,-0.42128 0.19049,-0.52605 0.25722,-0.25722 0.2425,0.39066 0.29342,-12.90905 l 0.0453,-11.82072 0.8344,-0.41626 c 0.45892,-0.22894 0.93435,-0.41625 1.05652,-0.41625 0.12216,0 0.70423,-0.20836 1.29348,-0.46302 l 1.07136,-0.46302 -0.0774,-2.3348 -0.0774,-2.3348 1.05834,-0.37319 c 0.58208,-0.20526 1.37872,-0.37499 1.77032,-0.37719 0.87534,-0.005 1.04738,-0.26534 1.165496,-1.76441 0.16676,-2.11639 1.06253,-3.24525 3.63543,-4.5814 1.82312,-0.94678 2.34884,-0.98123 3.97791,-0.26061 2.39802,1.06076 4.32512,3.57382 4.09661,5.34223 -0.11024,0.85316 0.22619,1.2596 1.0464,1.26419 0.3916,0.002 1.18824,0.17185 1.77033,0.37702 l 1.05833,0.37303 -0.049,2.37474 c -0.0415,2.01293 0.0189,2.40006 0.39687,2.54096 0.24522,0.0914 0.86258,0.32116 1.3719,0.51052 0.50932,0.18936 1.28323,0.48495 1.71979,0.65687 l 0.79375,0.31258 -0.0372,15.07604 c -0.0204,8.29182 0.0614,15.01503 0.18209,14.94046 0.12067,-0.0746 0.37139,-1.04028 0.55721,-2.14603 0.37071,-2.20627 0.22841,-2.0661 2.86983,-2.82727 0.80036,-0.23064 2.22911,-0.64594 3.175,-0.92289 l 1.71979,-0.50353 -0.0177,-2.6171 c -0.01,-1.4394 -0.11821,-11.1343 -0.24101,-21.54422 l -0.22328,-18.92712 1.63007,-0.64746 c 1.28252,-0.50941 1.63007,-0.76734 1.63007,-1.2097 0,-0.52804 0.17712,-0.57344 2.91249,-0.74653 1.60186,-0.10136 3.03061,-0.11127 3.175,-0.022 0.14438,0.0892 0.26251,0.39335 0.26251,0.67581 0,0.44656 0.19844,0.51607 1.52136,0.53286 0.83674,0.0106 2.11667,0.12133 2.84427,0.24602 0.7276,0.12468 2.33495,0.4007 3.57187,0.61337 1.23693,0.21267 2.87404,0.52855 3.63803,0.70196 l 1.38906,0.31527 0.0236,5.60047 c 0.013,3.08026 0.10948,8.33891 0.21452,11.68589 0.10504,3.34698 0.16251,6.1265 0.12769,6.17671 -0.0348,0.0502 -0.27686,-0.15814 -0.5379,-0.46302 -0.61844,-0.72226 -0.79248,-0.69912 -1.00137,0.13315 -0.1275,0.50795 0.003,0.91695 0.49782,1.56634 0.43698,0.57291 0.56083,0.91538 0.35581,0.98372 -0.21191,0.0706 -0.1247,0.37144 0.26725,0.9219 0.38788,0.54474 0.5818,1.20597 0.5818,1.98398 0,1.07525 -0.0734,1.20194 -0.93502,1.6128 -1.14305,0.54508 -1.55228,0.55884 -1.96135,0.0659 -0.44119,-0.53158 0.0265,-1.31514 1.03417,-1.73251 0.83746,-0.34689 0.90975,-0.47873 0.64326,-1.17318 -0.25715,-0.67011 -1.33231,-0.4854 -2.34373,0.40265 -1.25521,1.10207 -1.31818,2.54078 -0.16185,3.69711 0.87135,0.87135 1.75842,0.98276 2.94391,0.36972 l 0.78061,-0.40367 v 1.15495 c 0,0.97261 -0.10356,1.20214 -0.65596,1.45383 -0.54361,0.24768 -0.61664,0.40223 -0.42638,0.90236 0.12626,0.33192 0.42143,0.58696 0.65596,0.56675 0.38121,-0.0329 0.43127,0.70285 0.47268,6.94531 0.0254,3.84013 0.0738,7.30948 0.1075,7.70966 0.0337,0.40019 0.0827,2.66172 0.10893,5.02564 0.0262,2.36392 0.15644,4.36525 0.28937,4.44739 0.13687,0.0846 0.24165,-0.641 0.24165,-1.67364 0,-1.93034 0.23042,-2.26486 1.71979,-2.49665 0.44524,-0.0693 0.5416,-0.31835 0.60761,-1.57053 0.0745,-1.41292 0.11793,-1.49607 0.8599,-1.64445 0.7588,-0.15176 0.78145,-0.20122 0.78145,-1.7057 0,-1.38191 0.0715,-1.58768 0.66145,-1.90341 l 0.66146,-0.354 v -8.91891 -8.91885 l 0.59531,-0.40033 0.59532,-0.40034 -0.58558,-0.63081 c -0.53168,-0.57276 -0.58486,-0.89803 -0.57774,-3.53454 0.01,-3.6279 0.0757,-3.89049 1.11289,-4.43038 1.76239,-0.91743 2.11709,-0.86698 3.20058,0.45527 1.32781,1.62043 2.31741,2.12622 3.41284,1.74436 1.68449,-0.58722 2.9601,-2.56934 2.47205,-3.84121 -0.24945,-0.65003 -1.33919,-0.0748 -1.49442,0.78883 -0.15494,0.86196 -1.29736,1.81267 -1.90018,1.58134 -0.23035,-0.0884 -0.79306,-0.62642 -1.2505,-1.19563 -1.14909,-1.4299 -0.94118,-2.27027 0.66815,-2.70071 l 1.15962,-0.31014 v -1.67852 -1.67851 l 2.09613,2.63112 c 1.15287,1.44712 2.2085,2.70059 2.34588,2.78549 0.13737,0.0849 0.46037,-0.0784 0.71778,-0.36281 0.45019,-0.49744 0.44143,-0.55205 -0.22921,-1.43132 -0.66672,-0.8741 -0.91974,-1.75362 -0.49881,-1.73391 0.10914,0.005 0.96366,0.17335 1.89896,0.37387 1.53017,0.32804 1.76128,0.32048 2.3068,-0.0754 0.33343,-0.24201 0.61,-0.52077 0.61457,-0.61947 0.005,-0.0987 -0.6763,-0.32211 -1.51304,-0.49646 -3.41461,-0.71146 -3.11716,-0.49092 -3.04435,-2.25732 0.0355,-0.86057 0.12705,-1.83257 0.20349,-2.15999 0.16597,-0.71107 -0.0608,-0.743 -0.86749,-0.12212 -0.4789,0.36861 -0.63312,0.82154 -0.76666,2.2516 -0.0919,0.98459 -0.25736,1.84591 -0.36758,1.91403 -0.11023,0.0681 -0.80703,-0.69441 -1.54845,-1.69453 -1.35027,-1.82144 -1.79046,-3.37031 -1.0173,-3.57959 0.39098,-0.10583 3.06107,-0.65591 4.56407,-0.94027 0.58208,-0.11013 1.78882,-0.35746 2.68163,-0.54962 1.417,-0.305 1.88772,-0.2922 3.70416,0.10069 4.24919,0.91909 5.79155,1.31058 6.03624,1.53214 0.28421,0.25735 0.5148,4.31506 0.93014,16.36736 0.15795,4.5839 0.33644,8.47396 0.39664,8.64456 0.10922,0.30958 1.20015,0.17749 1.20015,-0.14531 0,-0.0936 0.30247,-0.49649 0.67217,-0.89519 l 0.67215,-0.7249 h 4.38605 4.3860498 l 1.02907,1.02907 c 0.566,0.566 1.41518,1.22953 1.88711,1.47453 2.13741005,1.10965 1.91635005,-0.49379 1.91635005,13.90057 v 12.83229 l 1.25677,0.0806 1.25677995,0.0806 v 4.45511 c 0,3.47905 0.0777,4.48492 0.35446,4.59113 32.7416202,1.18156 -331.2812958,0.053 -302.9712958,0.053 z m 290.828476,-0.15626 c -0.0818,-0.13239 -0.50808,-0.24071 -0.94723,-0.24071 -7.8135,2.84423 2.9620898,3.90218 0.94723,0.24071 z m -70.19869,-10.25919 c 2.03361,-1.28968 2.53981,-3.39878 1.08955,-4.53956 -0.8473,-0.66648 -1.36001,-0.65826 -2.8076,0.045 -1.27304,0.61849 -2.01954,0.52447 -2.01954,-0.25435 0,-0.59261 0.65596,-1.23234 1.65184,-1.61097 0.65565,-0.24928 0.69626,-0.33829 0.4255,-0.93254 -0.29101,-0.6387 -0.32587,-0.64615 -1.25448,-0.26833 -2.30966,0.93972 -3.06119,2.94615 -1.63696,4.37038 0.90764,0.90764 1.34016,0.94328 2.89352,0.23842 1.36797,-0.62073 1.85515,-0.6557 2.05031,-0.14715 0.22452,0.58514 -0.32417,1.37163 -1.41441,2.02734 -0.54753,0.32932 -1.03616,0.62865 -1.08583,0.66517 -0.21618,0.15897 0.28941,1.16462 0.5855,1.16462 0.17999,0 0.86516,-0.34113 1.5226,-0.75807 z m 4.2363,-3.90506 c 0.45082,-0.408 0.3815,-0.53883 -1.367,-2.57969 -1.01306,-1.18244 -1.84248,-2.29008 -1.84317,-2.46142 -0.003,-0.43289 1.29202,-1.40827 1.86791,-1.40827 0.26117,0 1.28024,0.89633 2.26462,1.99185 1.77863,1.97947 1.79297,1.98861 2.30926,1.47234 0.48059,-0.4806 0.48836,-0.56535 0.10395,-1.13195 -0.22855,-0.33684 -1.13043,-1.37358 -2.00414,-2.30387 -1.55683,-1.6576 -1.61083,-1.68843 -2.70084,-1.54223 -0.77314,0.1037 -1.38861,0.41705 -2.01874,1.0278 l -0.90649,0.87861 -0.86212,-1.02687 c -0.76957,-0.91665 -0.92444,-0.99353 -1.44274,-0.71614 -0.31935,0.17091 -0.58064,0.38407 -0.58064,0.47369 0,0.38799 6.22435,7.75594 6.55212,7.75594 0.0842,0 0.36679,-0.19341 0.62802,-0.42979 z m 5.97101,-5.5164 c 0.64047,-0.18371 2.98844,-2.65809 2.98844,-3.14936 0,-0.35192 -3.94052,-5.19195 -4.22704,-5.19195 -0.10387,0 -0.39502,0.22779 -0.64696,0.5062 -0.44034,0.48658 -0.39071,0.58653 1.28106,2.57968 0.95652,1.14042 1.73953,2.2836 1.74001,2.54041 0,0.42332 -1.39737,1.51407 -1.94384,1.51647 -0.27361,10e-4 -1.56176,-1.30041 -2.87933,-2.90943 l -0.97499,-1.19062 -0.58386,0.5803 -0.58388,0.58031 1.51498,1.80094 c 1.6356,1.94433 2.70692,2.78353 3.3351,2.61247 0.21828,-0.0594 0.65942,-0.18338 0.98031,-0.27542 z m -38.069716,-3.53339 c 0.0465,-0.31602 -0.0428,-0.57459 -0.19844,-0.57459 -0.15564,0 -0.28299,0.1786 -0.28299,0.39688 0,0.21828 -0.12608,0.39687 -0.28019,0.39687 -0.15411,0 -0.20273,0.12535 -0.10805,0.27855 0.26681,0.43171 0.77577,0.14044 0.86967,-0.49771 z m -48.014,-0.16924 c 0.082,-0.21362 0.0352,-0.45877 -0.10398,-0.54478 -0.13916,-0.086 -0.25303,-0.27692 -0.25303,-0.42425 0,-0.14732 0.1871,-0.0808 0.41578,0.14791 0.43881,0.43881 0.73801,0.55102 0.57955,0.21734 -0.53552,-1.12766 -0.80172,-1.82876 -1.40645,-3.70417 -0.38712,-1.20055 -0.78269,-2.18281 -0.87906,-2.18281 -0.2463,0 -0.15617,3.29039 0.10155,3.70739 0.13969,0.22602 0.10781,0.27869 -0.0934,0.15433 -0.34448,-0.2129 -0.41143,0.83396 -0.1401,2.19062 0.13741,0.68708 0.28914,0.82682 0.89773,0.82682 0.4028,0 0.79944,-0.17478 0.88141,-0.3884 z m -0.99201,-1.62243 c -0.0942,-0.24538 -0.11167,-0.50569 -0.0389,-0.57845 0.0728,-0.0728 0.20933,0.0685 0.3035,0.31387 0.0942,0.24538 0.11167,0.50568 0.0389,0.57844 -0.0728,0.0728 -0.20934,-0.0685 -0.3035,-0.31386 z m 48.59073,0.92939 c 0.46941,-0.82474 0.62891,-2.09356 0.26318,-2.09356 -0.17402,0 -0.44257,0.63584 -1.0337,2.4474 -0.2481,0.76032 0.27244,0.52127 0.77052,-0.35384 z m 45.536776,-1.61862 c 0.39883,-0.6323 -0.24546,-1.34816 -0.89874,-0.99854 -0.87678,0.46923 -1.26987,0.27568 -2.49523,-1.22857 l -1.21179,-1.48759 0.99882,-0.88265 c 0.54933,-0.48545 1.08157,-0.8876 1.18272,-0.89366 0.10112,-0.006 0.73919,0.6736 1.4179,1.51034 0.67871,0.83675 1.52628,1.67798 1.88352,1.8694 0.70707,0.37887 1.78715,0.2365 2.55132,-0.3363 0.40211,-0.30139 0.42725,-0.44525 0.15423,-0.88242 -0.25924,-0.4151 -0.52811,-0.49523 -1.30985,-0.39038 -0.92739,0.12439 -1.04595,0.0531 -2.07245,-1.24549 -0.59884,-0.75758 -1.08879,-1.46734 -1.08879,-1.57724 0,-0.1099 0.23812,-0.41532 0.52917,-0.67871 0.62245,-0.56332 0.63886,-0.67489 0.18957,-1.28933 -0.32017,-0.43785 -0.38248,-0.43071 -1.0885,0.12464 l -0.74887,0.58907 -0.85813,-1.02213 c -0.83574,-0.99544 -0.86603,-1.00738 -1.16049,-0.45719 -0.4319,0.80706 -0.37652,1.24434 0.22683,1.79036 0.29104,0.26339 0.52917,0.55957 0.52917,0.65818 0,0.0986 -0.48625,0.57006 -1.08059,1.04767 l -1.08055,0.86837 -0.8794,-0.85232 c -0.85402,-0.82777 -0.8877,-0.83677 -1.16837,-0.31232 -0.39939,0.74625 -0.36169,1.24342 0.12488,1.64724 0.25339,0.2103 0.35698,0.5702 0.26715,0.92816 -0.16822,0.67018 0.37973,1.25838 0.96353,1.03435 0.25559,-0.0981 0.78687,0.36686 1.55096,1.35728 1.38496,1.79517 2.38485,2.32198 3.52454,1.85694 0.4267,-0.17412 0.89805,-0.51034 1.04744,-0.74716 z m 7.17783,-5.01728 c 0.60462,-0.47559 1.45883,-1.91639 1.45883,-2.46062 0,-0.0774 -0.35719,-0.14079 -0.79375,-0.14079 -0.43656,0 -0.79375,0.13946 -0.79375,0.3099 0,1.03086 -1.95935,1.70788 -2.62422,0.90676 -0.24865,-0.29958 0,-0.61211 1.29051,-1.62653 0.87905,-0.69063 1.59829,-1.3551 1.59829,-1.4766 0,-0.12149 -0.51538,-0.75877 -1.14527,-1.41617 -1.45407,-1.51757 -2.57728,-1.62758 -3.98632,-0.39043 -1.71262,1.50371 -1.42182,3.02548 1.09762,5.74359 0.89302,0.96348 1.19452,1.12448 2.10556,1.12448 0.69011,0 1.31924,-0.20131 1.7925,-0.57359 z m -4.24654,-3.51599 c -0.40897,-0.62416 -0.4095,-0.72084 -0.007,-1.33437 0.51893,-0.79198 1.47664,-0.86641 2.11217,-0.16417 0.42929,0.47435 0.40127,0.53593 -0.60685,1.33438 l -1.0569,0.83707 -0.44091,-0.67291 z m 8.18682,0.5739 c 0.42685,-0.31212 0.30908,-0.53669 -1.40465,-2.67895 -1.02881,-1.28604 -1.87055,-2.50196 -1.87055,-2.70202 0,-0.20007 0.25135,-0.61512 0.55856,-0.92233 0.5516,-0.55159 0.55221,-0.56493 0.0485,-1.06864 -0.63397,-0.63397 -1.28519,-0.42219 -1.80748,0.5878 -0.5199,1.00542 -0.48696,1.53379 0.16206,2.59837 0.71948,1.18016 3.42776,4.52645 3.66342,4.52645 0.10131,0 0.39389,-0.1533 0.65014,-0.34068 z m 13.44522,-11.21819 c 0.9448,-0.90519 0.96838,-2.00819 0.0711,-3.32867 -0.74875,-1.10189 -1.15676,-1.21607 -1.80113,-0.50404 -0.40999,0.45304 -0.39594,0.52245 0.22358,1.10445 0.80396,0.75529 0.81856,0.98849 0.10922,1.74355 -0.45252,0.48169 -0.49845,0.68714 -0.25527,1.14154 0.39264,0.73367 0.75938,0.69886 1.65253,-0.15683 z m -170.443336,-10.67748 c 0,-0.79361 -1.89446,-3.69281 -2.41304,-3.69281 -0.12804,0 -0.23279,-0.17157 -0.23279,-0.38126 0,-0.54298 -0.51993,-0.79297 -0.88295,-0.42455 -0.23435,0.23784 -0.19733,0.39379 0.15534,0.65435 0.25467,0.18815 0.46302,0.43098 0.46302,0.53962 0,0.10865 0.47625,0.79568 1.05834,1.52675 0.58208,0.73107 1.05833,1.53194 1.05833,1.77972 0,0.24778 0.0794,0.52988 0.17639,0.62689 0.3808,0.38081 0.61736,0.1399 0.61736,-0.62871 z m 2.03347,-2.6806 c 0.72566,-0.68172 0.77927,-1.44433 0.16468,-2.3424 -0.86419,-1.26281 -1.51698,-1.36553 -2.55639,-0.40224 -0.84204,0.78038 -0.88645,1.52132 -0.15291,2.55148 0.66755,0.93749 1.67122,1.01368 2.54462,0.19316 z m -1.94302,-0.90664 c -0.3334,-0.50884 -0.37919,-0.80189 -0.1757,-1.12448 0.40934,-0.64893 1.1208,-0.52881 1.60622,0.2712 0.35662,0.58774 0.3707,0.77808 0.0832,1.12448 -0.50065,0.60324 -0.99931,0.5139 -1.51374,-0.2712 z m 88.0158,34.30588 c 0,-0.13694 0.1177,-0.32172 0.26156,-0.41062 0.14998,-0.0927 0.19433,0.0135 0.10398,0.24897 -0.17589,0.45837 -0.36554,0.54223 -0.36554,0.16165 z m -33.17252,-0.42272 c -0.0907,-0.23646 -0.15743,-0.56902 -0.14821,-0.73902 0.009,-0.17 0.13085,-0.0239 0.27027,0.32464 0.13942,0.34855 0.20612,0.6811 0.14821,0.73901 -0.0579,0.0579 -0.17953,-0.0882 -0.27027,-0.32463 z m 9.48143,-0.13967 c -0.0959,-0.1552 -0.11765,-0.33893 -0.0483,-0.40829 0.0694,-0.0694 0.19661,0.0576 0.28278,0.28219 0.1789,0.46623 0.0264,0.54823 -0.23448,0.1261 z m 7.82014,-0.14035 c -0.002,-0.15963 0.23408,-0.56481 0.52512,-0.90038 0.29104,-0.33557 0.52916,-0.716 0.52916,-0.8454 0,-0.1294 0.12127,-0.37907 0.26949,-0.55483 1.04894,-1.24384 1.31802,-1.62343 1.31802,-1.85935 0,-0.14751 0.0729,-0.19525 0.1621,-0.10609 0.1314,0.1314 -0.75046,1.57793 -2.60545,4.27379 -0.13637,0.19819 -0.19559,0.19588 -0.19844,-0.008 z m 8.08464,-0.5224 c -0.0973,-0.38775 -0.12592,-0.75603 -0.0635,-0.8184 0.0624,-0.0624 0.19302,0.20386 0.29034,0.59161 0.0973,0.38775 0.12592,0.75603 0.0636,0.81839 -0.0624,0.0624 -0.19302,-0.20385 -0.29034,-0.5916 z m 8.58006,0.29909 c 0,-0.20969 0.10796,-0.44798 0.23991,-0.52953 0.13195,-0.0815 0.17759,0.09 0.10143,0.38126 -0.16155,0.6178 -0.34134,0.6959 -0.34134,0.14827 z m 9.525,-0.13229 c 0,-0.13693 0.1177,-0.32171 0.26156,-0.41061 0.14998,-0.0927 0.19433,0.0135 0.10398,0.24896 -0.17589,0.45837 -0.36554,0.54224 -0.36554,0.16165 z m -34.76002,-0.42272 c -0.25532,-0.66534 -0.18,-0.83702 0.1319,-0.30065 0.15444,0.26557 0.22506,0.5386 0.15693,0.60672 -0.0681,0.0681 -0.19809,-0.0696 -0.28883,-0.30607 z m 15.875,-1.05833 c -0.25532,-0.66535 -0.18,-0.83702 0.1319,-0.30066 0.15444,0.26558 0.22506,0.5386 0.15694,0.60673 -0.0681,0.0681 -0.1981,-0.0696 -0.28884,-0.30607 z m -76.48195,-34.98765 c -0.0812,-0.0812 -0.14761,-0.24683 -0.14761,-0.3681 0,-0.29498 0.98836,-0.28316 1.17203,0.014 0.16068,0.25999 -0.78994,0.58856 -1.02442,0.35409 z"
       id="path4561"
       inkscape:connector-curvature="0"
       sodipodi:nodetypes="ccccccccscccsccsccccscccccccscsccssssccccccsccscsccccssssssccscscscscscccscscssccccscccsccscscsccsccccsscsccccsccccsccccccccccsscccsccssscccccscsscscssscccccccssccccccscsccccccccssssccscccccccccsccsscccccsccccsscssscccssccssccccssccscccscscccscsccccccccscccsscccccccssccccccccccccccccsccsccscccsccsccccccsccccccccsccccsccscccscccccccccccccccccccsccccscccccccccccsccccsccccccscccsccccccccscscsccccscccccscccccccccsscccscccccccccccccssccccscccscccsccscccsccsccscccsscsscscccccccsccccccccccccssccscccsccscccccscsccccsscsccccccsssccscscsscccscsccccsccscccccccccccscscccccsccccsscssccscccccccccccccc" />
    <path
       style="fill:#000000;stroke-width:0.58981955"
       d="m -266.14585,-141.84761 c -2.85885,0 -3.68733,0.26403 -3.68733,1.17078 0,0.64336 0.27672,1.64342 0.61473,2.22481 0.33804,0.5814 0.61474,2.1404 0.61474,3.46294 0,2.37773 -0.0308,2.40745 -2.76548,2.65584 l -2.7655,0.25033 -0.12404,4.45747 -0.12401,4.45748 h -3.66567 c -3.62707,0 -3.6662,0.0225 -3.6662,2.10133 0,1.47706 -0.36594,2.49475 -1.23271,3.42364 l -1.23327,1.32007 0.10618,87.858612 0.0931,76.616703 h 35.67246 l 0.0991,-75.156325 c 0.0625,-47.518794 0.0209,-87.16256 -0.0915,-88.09658 -0.11244,-0.93402 -0.74998,-2.33277 -1.41633,-3.10935 -0.91251,-1.06339 -1.1558,-1.84982 -0.98736,-3.18455 0.21464,-1.70133 0.073,-1.77243 -3.51238,-1.77243 h -3.73445 v -4.66963 -4.67075 h -2.86785 c -2.7227,0 -2.86787,-0.0988 -2.86787,-1.9599 0,-1.07827 0.26982,-2.7023 0.60066,-3.60886 1.20825,-3.3108 0.83556,-3.77162 -3.05904,-3.77163 z"
       id="path4587"
       inkscape:connector-curvature="0" />
    <path
       style="fill:#000000;stroke-width:0.26458335"
       d="m -318.61537,-454.58303 v -13.3306 l 0.59531,-0.15953 c 1.75998,-0.47166 2.83757,-0.19965 4.84214,1.22229 l 1.95822,1.38907 0.006,4.04319 c 0.005,3.34584 0.0748,4.06947 0.40321,4.1955 0.32438,0.12448 0.39687,0.7754 0.39687,3.56357 v 3.41128 h 1.5875 1.5875 v -1.58071 c 0,-1.48873 0.0462,-1.60458 0.79375,-1.99117 0.7061,-0.36513 0.79375,-0.54385 0.79375,-1.61838 v -1.20791 l 2.77843,0.0902 2.77842,0.0902 -3e-4,-8.92129 -3e-4,-8.92129 3.10886,-0.0745 3.10885,-0.0745 0.0796,-1.23129 c 0.0668,-1.0326 -0.0312,-1.34214 -0.60734,-1.91823 -0.47439,-0.4744 -0.96974,-0.68694 -1.60095,-0.68694 -0.72836,0 -0.91402,-0.10431 -0.91402,-0.51355 0,-0.28245 -0.11906,-0.58714 -0.26458,-0.67708 -0.14552,-0.0899 -0.26458,-0.39462 -0.26458,-0.67707 0,-0.28245 -0.12082,-0.51355 -0.26848,-0.51355 -0.14766,0 -0.49859,-0.37841 -0.77985,-0.84091 -0.50908,-0.8371 -0.50888,-0.84309 0.0444,-1.32292 0.30567,-0.2651 0.9065,-0.482 1.33518,-0.482 1.29594,0 2.57919,-0.75203 2.57919,-1.5115 0,-0.89294 1.38261,-2.20707 1.82444,-1.73409 0.1722,0.18434 0.48699,0.33517 0.69954,0.33517 0.51385,0 0.56674,-3.8519 0.0557,-4.05811 -0.26458,-0.10676 -0.26458,-0.13762 0,-0.15433 0.19598,-0.0124 0.33073,-0.38922 0.33073,-0.92489 0,-0.49719 -0.14883,-0.97344 -0.33073,-1.05833 -0.26458,-0.12347 -0.26458,-0.18521 0,-0.30868 0.43728,-0.20406 0.43728,-2.4044 0,-2.58085 -0.26458,-0.10676 -0.26458,-0.13763 0,-0.15434 0.22197,-0.014 0.33073,-0.49946 0.33073,-1.4761 0,-0.80036 0.11906,-1.4552 0.26458,-1.4552 0.14552,0 0.26459,0.64492 0.26459,1.43316 0,0.89896 0.12327,1.4829 0.33073,1.56661 0.26458,0.10676 0.26458,0.13763 0,0.15434 -0.42556,0.0269 -0.45894,2.40214 -0.0337,2.40214 0.21444,0 0.21724,0.0961 0.0101,0.34569 -0.17585,0.21188 -0.2652,1.46649 -0.23084,3.24114 0.056,2.8918 0.0569,2.89548 0.71752,2.9136 0.36381,0.01 0.86982,0.0993 1.12448,0.19844 0.25467,0.0992 0.64162,0.23609 0.8599,0.30428 0.23146,0.0723 0.39687,0.43963 0.39687,0.88133 0,0.88505 0.58015,1.26835 2.42863,1.60458 0.68091,0.12385 1.41635,0.40353 1.63433,0.62151 0.35203,0.35203 0.33195,0.49474 -0.17968,1.27715 -0.31679,0.48446 -0.77564,1.18627 -1.01967,1.55958 -0.24402,0.37331 -0.45238,0.88569 -0.46302,1.13863 -0.0138,0.32849 -0.32822,0.50929 -1.10034,0.63276 -0.59455,0.0951 -1.14307,0.3346 -1.21893,0.53229 -0.0759,0.19769 -0.31001,0.35943 -0.52033,0.35943 -0.29506,0 -0.36413,0.31722 -0.30242,1.38907 l 0.08,1.38906 3.10885,-0.0754 3.10885,-0.0754 v 4.77176 4.77177 h 1.04272 c 0.5735,0 1.11631,0.11906 1.20624,0.26458 0.0899,0.14552 0.79884,0.26459 1.57533,0.26459 h 1.4118 l 0.1894,1.12448 c 0.10417,0.61846 0.24042,4.96424 0.30278,9.65729 0.0905,6.81378 0.18342,8.53281 0.46102,8.53281 0.42798,0 0.68988,-2.71927 0.68988,-7.16265 v -3.11406 l 0.78004,-0.17132 c 0.42901,-0.0942 1.21058,-0.51348 1.73681,-0.93168 2.47121,-1.96387 5.60179,-2.12294 8.89851,-0.45213 1.07036,0.54246 2.20011,0.98576 2.51056,0.98511 0.65939,-0.001 0.88187,0.61206 0.88714,2.44621 l 0.004,1.25677 h 1.14592 c 0.96917,0 1.20382,0.10826 1.52135,0.70188 0.33069,0.61822 0.39121,-0.698 0.50773,-11.04282 0.12459,-11.06088 0.16015,-11.75005 0.61077,-11.83675 0.26316,-0.0506 0.67988,0.001 0.92604,0.1148 0.75812,0.35042 3.22365,0.27704 3.22473,-0.096 0.001,-0.39509 3.18935,-0.47198 3.58607,-0.0865 0.13824,0.13434 0.90161,0.36079 1.69636,0.50322 1.15184,0.20643 1.50077,0.18455 1.7198,-0.10782 0.31257,-0.41726 1.455,-0.22384 1.4832,0.25111 0.01,0.16493 0.002,3.84198 -0.0166,8.17123 l -0.0344,7.87135 h 1.07495 c 0.59923,0 1.07494,0.12759 1.07494,0.28832 0,0.75714 1.19969,1.28162 2.95159,1.29038 l 1.76096,0.009 -0.14579,2.64583 c -0.12885,2.33846 -0.0952,2.64583 0.28956,2.64583 0.3557,0 0.43535,-0.29042 0.43535,-1.5875 v -1.5875 h 0.92604 0.92604 l 0.0399,-13.69218 c 0.0219,-7.53071 0.015,-14.01428 -0.0154,-14.40794 -0.0504,-0.65277 0.0684,-0.74984 1.34917,-1.10302 0.77242,-0.21299 1.88065,-0.49021 2.46273,-0.61604 0.76617,-0.16562 1.07989,-0.37707 1.13642,-0.76596 0.0514,-0.35362 0.5802,-0.78342 1.54754,-1.25785 1.2974,-0.63631 1.45087,-0.79469 1.31081,-1.35274 -0.15676,-0.62459 -0.13211,-0.63305 2.0911,-0.71763 1.23736,-0.0471 2.24764,-0.0261 2.24507,0.0467 -0.003,0.0728 -0.11847,0.31088 -0.25757,0.52916 -0.2113,0.33159 -0.004,0.41864 1.26082,0.52917 1.43739,0.12562 1.52649,0.17565 1.76688,0.99219 l 0.25315,0.85989 h 1.92966 c 1.83717,0 1.92966,0.0292 1.92966,0.60854 0,0.3347 -0.12119,0.72974 -0.26931,0.87786 -0.17219,0.17219 -0.24375,2.64816 -0.19844,6.86593 l 0.0709,6.59662 1.25677,0.0806 c 1.1924,0.0765 1.25677,0.046 1.25677,-0.59531 v -0.67595 h 2.87845 c 2.5713,0 3.04418,0.0765 4.43177,0.71702 0.89441,0.41286 2.05838,0.72837 2.74395,0.74379 l 1.19062,0.0268 0.0749,2.80898 0.0749,2.80898 0.78499,0.17242 0.785,0.17241 v 6.02715 6.02714 l 1.08179,1.22898 c 0.59499,0.67595 1.19031,1.16194 1.32292,1.07998 0.13262,-0.082 0.24112,-0.86428 0.24112,-1.73848 v -1.58946 l 2.57969,0.1249 c 1.41882,0.0687 3.03161,0.20933 3.58395,0.31252 0.75969,0.14192 1.27519,0.0547 2.11667,-0.35804 0.61182,-0.30011 1.33299,-0.61239 1.60261,-0.69395 0.43331,-0.13108 0.47937,-0.38603 0.39687,-2.19668 l -0.0933,-2.0484 1.91823,-0.0777 1.91823,-0.0777 v -1.04674 -1.04674 h 1.93461 c 1.8369,0 1.96386,-0.0395 2.51354,-0.78304 0.52521,-0.71038 0.57893,-1.1001 0.57893,-4.20026 v -3.41722 l 0.82682,-0.16536 c 0.45475,-0.0909 1.1096,-0.16537 1.45521,-0.16537 0.34561,0 0.62989,-0.14883 0.63174,-0.33073 0.002,-0.1819 0.35903,-1.03211 0.79375,-1.88937 0.74609,-1.47128 0.7904,-1.51067 0.7904,-0.70283 0,0.62659 0.13847,0.89202 0.51701,0.99101 0.41255,0.10788 0.48606,0.28999 0.3638,0.90127 -0.14571,0.72858 -0.10778,0.76607 0.77505,0.76607 0.70574,0 0.96142,-0.12685 1.06663,-0.52917 0.10977,-0.41977 0.3609,-0.52917 1.21469,-0.52917 0.93442,0 1.13184,-0.10739 1.49755,-0.81459 1.06075,-2.05126 5.17533,-2.09927 6.68186,-0.078 l 0.56664,0.76027 0.008,-2.46054 c 0.005,-1.61411 0.14001,-2.71507 0.39102,-3.20047 l 0.38263,-0.73993 6.89417,-0.18811 c 3.79179,-0.10346 7.01289,-0.11474 7.15799,-0.0251 0.14812,0.0915 0.26382,1.37462 0.26382,2.92556 0,2.27917 0.0694,2.76251 0.39688,2.76251 0.3197,0 0.39687,0.41158 0.39687,2.11667 0,1.94027 0.0441,2.11666 0.52917,2.11666 0.4761,0 0.52916,0.17639 0.52916,1.75901 v 1.75901 l 2.05053,-0.16145 c 3.27425,-0.25781 3.72866,-0.40058 3.82179,-1.20076 0.0678,-0.5821 0.25188,-0.72445 1.13914,-0.88066 0.58209,-0.10247 1.68341,-0.19318 2.4474,-0.20157 0.76398,-0.008 1.38906,-0.12871 1.38906,-0.26739 0,-0.42749 1.88366,-0.80316 4.0349,-0.80471 1.64695,-0.001 2.05052,0.0766 2.05052,0.3954 0,0.33388 0.58796,0.39687 3.70417,0.39687 3.1162,0 3.70416,0.063 3.70416,0.39688 0,0.3197 0.41158,0.39687 2.11667,0.39687 h 2.11667 v 1.71979 c 0,1.65806 0.0237,1.7198 0.66145,1.7198 h 0.66146 v -7.11371 -7.11371 l 1.20604,-0.18086 c 0.66332,-0.0995 1.27137,-0.35111 1.35122,-0.55921 0.11301,-0.2945 0.75463,-0.37835 2.895,-0.37835 h 2.74982 v 17.99167 17.99167 h -105.83312 -105.83334 z"
       id="path4600"
       inkscape:connector-curvature="0"
       sodipodi:nodetypes="cccscccscccscscccccccccsscssccsscsccsccccssscsscccccscccccccsccccccscscscsscccscccssscccccccccsscccssccccccccscccccccsssccsscscscccccccccscccccccccccscscssccsccscsccccccscssssscscccscsssscsscccscscccccc" />
    <path
       style="fill:#000000;stroke-width:0.26458332"
       d="m -333.22382,-541.64397 v -4.75292 l 2.57968,-0.0757 c 1.8246,-0.0536 2.58937,-0.17253 2.61276,-0.40645 0.0182,-0.1819 0.048,-1.55112 0.0661,-3.04271 l 0.033,-2.71198 1.85211,0.0559 1.85212,0.0559 v -3.95853 -3.95853 h 2.64583 2.64584 v 2.38125 2.38125 h 1.5875 1.5875 v 2.77813 2.77812 h 1.05833 1.05833 v -2.77812 -2.77813 h 2.65917 2.65916 l -0.0276,-3.24114 c -0.0152,-1.78263 -0.0212,-3.38923 -0.0133,-3.57023 0.0109,-0.25187 1.10048,-0.31394 4.64419,-0.26458 l 4.62997,0.0645 2.4e-4,2.28615 2.5e-4,2.28616 0.9535,0.11132 c 0.6359,0.0742 0.98842,-0.004 1.05833,-0.23564 0.0577,-0.19083 0.16063,-0.52555 0.22882,-0.74383 0.0909,-0.29105 0.52085,-0.39687 1.61227,-0.39687 1.25143,0 1.50969,0.0819 1.62278,0.5143 0.074,0.28286 0.39024,0.55075 0.70283,0.59531 0.54646,0.0779 0.56724,0.20068 0.53964,3.18987 l -0.0287,3.10885 h 0.8886 c 1.04125,0 0.96082,0.49075 0.99693,-6.08238 l 0.024,-4.36258 0.79375,-0.13652 c 0.68378,-0.11761 0.80478,-0.26465 0.87339,-1.06137 l 0.0796,-0.92486 2.63234,-0.0413 2.63234,-0.0414 v 0.90125 c 0,0.78495 0.0854,0.90125 0.66145,0.90125 h 0.66146 v 5.42396 c 0,5.00064 0.0363,5.42396 0.46558,5.42396 0.32906,0 0.46855,-0.21335 0.47572,-0.7276 0.006,-0.40019 0.0342,-2.30519 0.0636,-4.23334 l 0.0534,-3.50573 h 1.45521 c 1.44659,0 1.45521,-0.005 1.45521,-0.80896 0,-0.78809 0.029,-0.80686 1.12448,-0.7276 1.00619,0.0728 1.13329,0.15789 1.2082,0.80896 0.0479,0.41645 0.24592,0.7276 0.46302,0.7276 0.24506,0 0.3793,0.28093 0.3793,0.79375 0,0.61059 0.11906,0.79375 0.51597,0.79375 0.44253,0 0.52725,-0.21649 0.59531,-1.52135 l 0.0794,-1.52135 0.99218,-0.0821 0.99219,-0.0821 v -3.41152 -3.41153 l 1.78594,-0.0782 1.78594,-0.0782 -0.0906,-0.90329 c -0.0816,-0.8132 -0.55124,-1.61026 -0.9488,-1.61026 -0.56092,0 -1.73869,-1.87943 -1.73869,-2.77453 0,-0.61182 0.0953,-0.66505 1.19063,-0.66505 1.15311,0 1.19062,-0.0256 1.19062,-0.814 v -0.814 l 2.18281,0.0864 c 2.16021,0.0855 2.18368,0.0939 2.26654,0.814 0.0773,0.67175 0.17376,0.7276 1.25677,0.7276 1.127,0 1.17305,0.0312 1.17305,0.79375 0,0.43656 -0.11906,0.79375 -0.26459,0.79375 -0.14552,0 -0.26458,0.23813 -0.26458,0.52917 0,0.29398 -0.17639,0.52916 -0.39687,0.52916 -0.21828,0 -0.39688,0.11234 -0.39688,0.24963 0,0.13729 -0.35719,0.46062 -0.79375,0.7185 -0.65484,0.38683 -0.79375,0.64051 -0.79375,1.44954 0,0.94463 0.0316,0.97803 0.8599,0.90927 1.4672,-0.12181 1.52135,-0.032 1.52135,2.5222 v 2.35295 h 1.98438 1.98437 v 1.05833 1.05833 h 2.38125 2.38125 v 1.98438 1.98437 h 2.24896 2.24896 v -0.92604 -0.92604 h 2.38125 2.38125 v -6.87917 -6.87916 h 1.71979 1.71979 v -1.05834 -1.05833 h 1.47515 c 1.4445,0 1.47415,0.0151 1.42717,0.7276 -0.0869,1.31764 -0.032,1.38907 1.06643,1.38907 h 1.05834 v 2.51354 2.51354 h 0.92604 0.92604 v -1.71979 -1.71979 h 1.45521 c 1.44051,0 1.45521,-0.008 1.45521,-0.79375 v -0.79375 h 2.64583 2.64583 v 0.79375 c 0,0.7521 0.0566,0.79375 1.07828,0.79375 1.01154,0 1.0753,0.045 1.03029,0.7276 -0.0264,0.40018 -0.0354,1.70987 -0.0199,2.91042 l 0.0281,2.18281 h 3.04271 3.04271 v 1.98438 c 0,1.80798 0.047,1.98437 0.52916,1.98437 0.50641,0 0.52917,-0.17639 0.52917,-4.10104 v -4.10104 h 0.92604 c 0.74965,0 0.92604,-0.1008 0.92604,-0.52917 0,-0.50094 0.17639,-0.52917 3.30729,-0.52917 3.09484,0 3.3073,0.0329 3.3073,0.51241 0,0.3847 0.2143,0.53306 0.85989,0.59531 l 0.8599,0.0829 0.0709,6.28385 0.0709,6.28386 h 0.92125 0.92125 v -2.11667 -2.11667 h 1.07413 1.07412 l -0.0819,-7.1439 -0.0819,-7.1439 0.99219,1.5e-4 c 0.92889,1.4e-4 0.99218,-0.0511 0.99218,-0.8039 v -0.80405 l 2.31511,0.0764 c 2.30739,0.0762 2.31538,0.0789 2.39882,0.80405 0.0461,0.40018 0.19487,0.7276 0.33073,0.7276 0.13918,0 0.24701,1.38091 0.24701,3.16341 v 3.16341 l 1.89887,0.0777 1.89887,0.0777 0.0194,2.77812 c 0.0186,2.67282 0.0419,2.78133 0.61467,2.86267 0.52197,0.0741 0.59531,-0.0318 0.59531,-0.85989 0,-0.90298 0.0407,-0.94445 0.92604,-0.94445 0.88195,0 0.92604,0.0441 0.92604,0.92605 0,0.85254 0.063,0.92604 0.79375,0.92604 0.73076,0 0.79375,0.0735 0.79375,0.92604 0,0.74965 0.1008,0.92604 0.52917,0.92604 0.54108,0 0.64561,0.57737 0.61072,3.37344 -0.01,0.79974 0.0508,0.85989 0.86831,0.85989 h 0.87904 l 0.0777,1.89382 c 0.0643,1.56636 0.1578,1.90544 0.54075,1.96097 0.33153,0.0481 0.46302,-0.11405 0.46302,-0.57091 0,-0.53255 0.13124,-0.63804 0.79375,-0.63804 h 0.79375 v -3.72894 c 0,-3.50642 0.0316,-3.73719 0.52917,-3.86732 0.50679,-0.13252 0.52917,-0.36089 0.52917,-5.39918 l -1e-5,-5.26081 h 7.67292 7.67291 v 11.1125 11.1125 h 0.66146 c 0.65914,0 0.66146,0.009 0.66146,2.51354 v 2.51354 h 1.85208 1.85209 v -2.24896 c 0,-2.2225 0.008,-2.24896 0.66146,-2.24896 h 0.66145 v -2.64583 c 0,-1.5875 0.10584,-2.64583 0.26459,-2.64583 0.167,0 0.26458,-1.83438 0.26458,-4.97396 v -4.97395 l 0.92604,0.10811 0.92604,0.10811 v -3.46853 -3.46853 h 1.30695 1.30694 l 0.0821,-0.99219 0.0821,-0.99219 4.16719,-0.0729 c 2.7179,-0.0475 4.16718,0.0215 4.16718,0.19844 0,0.17366 1.47393,0.2713 4.09545,0.2713 h 4.09545 l 0.0717,5.22552 0.0717,5.22552 2.24896,0.0675 c 1.23692,0.0371 2.42611,-0.0469 2.64264,-0.18682 0.32582,-0.21048 0.38356,-0.98608 0.33493,-4.49928 l -0.0588,-4.24495 h 0.65727 c 0.63255,0 0.65726,-0.0647 0.65726,-1.71979 v -1.7198 h 3.43958 3.43959 v 1.7198 1.71979 h 2.37628 2.37628 l 0.0711,6.01927 0.0711,6.01927 1.38906,0.08 1.38906,0.08 v 7.12993 7.12992 h 0.65976 0.65975 l 0.0679,-19.51302 0.0679,-19.51302 4.56407,-0.0724 4.56406,-0.0724 v 8.60521 8.6052 h 3.04271 3.042704 v 1.7198 1.71979 h 0.92605 c 0.81139,0 0.92604,0.0819 0.92604,0.66146 0,0.52916 0.13229,0.66145 0.66146,0.66145 0.59531,0 0.66145,0.10584 0.66145,1.05834 0,0.87607 0.0896,1.05833 0.52051,1.05833 0.48233,0 0.52598,0.21826 0.59531,2.97656 l 0.0748,2.97657 h 0.79375 0.79375 l 0.074,-3.37344 0.074,-3.37344 h 1.05043 c 1.0241,0 1.05043,-0.0232 1.05043,-0.92604 v -0.92604 h 2.91041 2.91042 v 4.63021 4.6302 h 0.92604 0.92604 v -1.98437 -1.98438 h 0.79375 0.79375 v -2.13694 -2.13693 l 0.8599,0.0471 c 1.37427,0.0752 1.52135,0.0234 1.52135,-0.53571 0,-0.42837 0.17639,-0.52916 0.92605,-0.52916 h 0.92604 v -2.11667 -2.11667 h 1.19062 1.19063 v -1.5875 -1.5875 h 1.5875 1.5875 v 1.5875 c 0,1.40169 0.0609,1.5875 0.51991,1.5875 0.4781,0 0.52597,0.21807 0.59531,2.71198 0.069,2.48088 0.1205,2.7184 0.60457,2.78725 0.49415,0.0703 0.52353,0.24351 0.44397,2.61805 -0.11142,3.32513 0.0218,3.84704 0.95433,3.73951 l 0.71837,-0.0828 0.0751,-2.84427 c 0.0423,-1.60157 0.18679,-2.84427 0.33072,-2.84427 0.1406,0 0.25565,-0.41672 0.25565,-0.92604 0,-0.85255 0.063,-0.92604 0.79375,-0.92604 0.67526,0 0.79375,-0.10112 0.79375,-0.67743 0,-0.62102 0.0826,-0.6706 0.99218,-0.59532 0.79698,0.066 1.00883,0.19925 1.07675,0.67743 0.0657,0.4627 0.25726,0.59532 0.8599,0.59532 0.72265,0 0.77758,-0.0719 0.8084,-1.05834 0.0183,-0.58208 0.048,-1.20078 0.0661,-1.3749 0.0292,-0.27976 1.12781,-0.34067 4.06797,-0.22554 0.21876,0.009 0.33073,0.46082 0.33073,1.33586 0,0.7276 0.11906,1.32292 0.26458,1.32292 0.14552,0 0.26459,-0.29766 0.26459,-0.66146 0,-0.57957 0.11464,-0.66146 0.92604,-0.66146 0.81139,0 0.92604,0.0819 0.92604,0.66146 0,0.52917 0.13229,0.66146 0.66146,0.66146 0.65656,0 0.66146,0.0176 0.66146,2.38125 v 2.38125 h 1.32291 c 0.72761,0 1.32292,0.11906 1.32292,0.26458 0,0.14552 0.23812,0.26458 0.52917,0.26458 0.48998,0 0.52916,-0.17639 0.52916,-2.38125 0,-2.3471 0.009,-2.38125 0.64469,-2.38125 0.53244,0 0.65913,-0.14822 0.7276,-0.85131 0.0758,-0.7784 0.16203,-0.85203 1.00642,-0.8595 0.82182,-0.007 0.93851,0.0792 1.05961,0.78517 0.10752,0.62686 0.2885,0.81092 0.8624,0.87707 l 0.72637,0.0837 v 3.15743 3.15742 h 0.92604 c 0.8525,0 0.926,-0.063 0.926,-0.79375 v -0.79375 h 1.5875 1.5875 v 0.79375 0.79375 h 1.8521 1.8521 v -2.52144 -2.52145 l 3.3734,0.074 3.3735,0.074 0.023,1.30859 c 0.013,0.73995 0.1568,1.35313 0.3307,1.41111 0.1692,0.0564 0.3076,-0.13606 0.3076,-0.42767 0,-0.37397 0.2339,-0.58156 0.7937,-0.70453 0.4366,-0.0959 0.7938,-0.34347 0.7938,-0.55019 0,-0.2621 0.3203,-0.37585 1.0583,-0.37585 0.7644,0 1.0584,0.11024 1.0584,0.39688 0,0.21828 0.2083,0.4086 0.463,0.42294 1.8485,0.10409 1.7174,-0.0251 1.7186,1.69212 0,1.98969 0.1045,2.25056 0.8894,2.25056 0.5623,0 0.6331,-0.11845 0.6331,-1.05833 v -1.05834 h 2.1167 2.1167 v -0.92604 -0.92604 h 1.852 1.8521 v 2.11667 c 0,1.91939 0.048,2.11666 0.514,2.11666 0.4155,0 0.5295,0.21541 0.5953,1.12448 0.076,1.05495 0.1304,1.12448 0.8751,1.12448 0.7447,0 0.7988,-0.0695 0.8751,-1.12448 l 0.081,-1.12448 h 2.1015002 2.1014 v 2.51355 c 0,2.33715 0.037,2.51354 0.5292,2.51354 0.5153,0 0.5291,-0.17639 0.5291,-6.74688 0,-6.57048 0.014,-6.74687 0.5292,-6.74687 0.4116,0 0.5292,-0.17639 0.5292,-0.79375 0,-0.78574 0.015,-0.79375 1.4552,-0.79375 1.4405,0 1.4552,0.008 1.4552,0.79375 0,0.70555 0.088,0.79375 0.79369997,0.79375 h 0.7938 v 3.43958 3.43958 h 2.24900003 2.2489 v 3.83646 3.83646 h 1.9844 1.9844 v 1.98437 c 0,1.94028 0.015,1.98438 0.6614,1.98438 h 0.6614998 v 4.7625 4.7625 H -161.5091 -333.22369 v -4.75292 z"
       id="path4613"
       inkscape:connector-curvature="0"
       sodipodi:nodetypes="cccccccccccccccccccccccccccccccccsccccscccccccsscsscccssscssscccccccccsssscccsssssscscscccccccccccccccccccccscscccccccsscccsscccccssscssssccccccccccccsscccsscccccsssssscscccsscscccccccsscccsscsssccccccccccsscccccccsscccccccccccccccccccccccccsssssccccccssccccccccccccccsscccccccccssccccccssssccscccssssssscssssscccccccsscccccccccccccscsssccsscccccccsscsccccsssssssscccccccccssccccccc" />
    <path
       style="fill:#000000;stroke-width:0.42351839"
       d="m -324.23274,-140.17427 c -0.005,-0.006 -0.008,0.002 -0.01,0.024 -0.31514,3.37997 -1.3088,14.68302 -1.31359,14.92902 -0.003,0.17468 -1.13769,0.31764 -2.52124,0.31764 h -2.51549 l -0.1315,1.57826 c -0.1304,1.56621 -0.16026,1.58949 -3.71409,2.91252 -1.97042,0.73355 -3.65568,1.55438 -3.74546,1.82394 -0.17,0.50997 0.53875,2.47885 2.05059,5.69516 0.7528,1.60152 1.11715,1.92237 2.44598,2.15647 0.85873,0.15129 2.19895,0.47696 2.97869,0.72379 1.31088,0.41495 1.39605,0.54951 1.13406,1.77928 l -0.77509,6.5546 -8.76483,0.20514 c 0.0458,43.17798 -0.21053,86.35553 -0.37798,129.533058 l -1.5179,2.33846 -1.51704,2.33761 0.0513,7.8748 0.0521,7.87397 H -306.67 l 0.11248,-7.48023 c -0.0712,-4.433654 0.47277,-5.274768 -1.8537,-11.15045 l -1.077,-1.62789 c 0.20648,-43.240755 0.40945,-86.481314 0.47398,-129.722488 l -9.14703,-0.39787 -0.43093,-6.10627 c -0.24585,-1.38562 -0.1631,-1.56283 0.93305,-1.99435 0.66171,-0.26049 1.93926,-0.60182 2.83889,-0.75853 1.53568,-0.26757 1.72529,-0.47424 3.10359,-3.37656 2.08625,-4.39307 1.95097,-4.75126 -2.40381,-6.37346 l -3.59326,-1.33838 0.12985,-1.50961 0.12986,-1.50879 -2.67757,-0.12739 -2.67761,-0.12655 -0.68738,-7.83509 c -0.35431,-4.03996 -0.67114,-7.13996 -0.73619,-7.2238 z"
       id="path4587-4"
       inkscape:connector-curvature="0"
       sodipodi:nodetypes="cccsccsccscccccccccccccccccccccccccccc" />
    <path
       style="fill:#000000;stroke-width:0.4615387"
       d="m -207.94017,-86.764899 c -0.5009,-0.008 -0.996,0.177184 -1.86328,0.508412 -1.09919,0.419807 -2.78024,1.564584 -3.73648,2.543872 -1.37956,1.41279 -1.76994,2.197561 -1.88943,3.799582 l -0.15054,2.019231 -2.56639,0.626502 -2.56552,0.626501 -0.13519,3.237985 -0.13432,3.23888 -2.42308,0.902346 -2.42307,0.902344 v 28.582948 87.917683 h 36 V -39.75196 -68.311465 l -2.80436,-1.04838 -2.8044,-1.048376 0.15054,-3.168574 0.15054,-3.16857 -2.65386,-0.546272 c -2.64683,-0.545543 -2.65384,-0.55201 -2.65384,-2.232874 0,-2.431293 -1.64737,-4.572289 -4.73164,-6.149643 -1.46715,-0.750324 -2.12161,-1.080573 -2.76564,-1.090745 z"
       id="path4587-0"
       inkscape:connector-curvature="0"
       sodipodi:nodetypes="cccccccccccccccccccccsccc" />
    <g
       id="g4907"
       inkscape:label="0"
       transform="matrix(0.26458333,0,0,0.26458333,-337.0384,-298.77511)"
       style="stroke:#ff0000">
      <g
         id="g5866"
         transform="translate(18.897652)">
        <path
           inkscape:connector-curvature="0"
           d="M 18.897638,1122.5197 H 0 v 18.8976 h 18.897638 z"
           style="fill:none;stroke:#ff0000"
           id="path4707" />
        <path
           inkscape:connector-curvature="0"
           d="m 56.692913,1141.4173 v -18.8976 H 37.795276 v 18.8976 z"
           style="fill:none;stroke:#ff0000"
           id="path4709" />
        <path
           inkscape:connector-curvature="0"
           d="m 18.897638,1103.622 v -18.8976 H 0 v 18.8976 z"
           style="fill:none;stroke:#ff0000"
           id="path4727" />
        <path
           inkscape:connector-curvature="0"
           d="m 56.692913,1103.622 v -18.8976 H 37.795276 v 18.8976 z"
           style="fill:none;stroke:#ff0000"
           id="path4729" />
        <path
           inkscape:connector-curvature="0"
           d="m 18.897638,1065.8268 v -18.8977 H 0 v 18.8977 z"
           style="fill:none;stroke:#ff0000"
           id="path4747" />
        <path
           inkscape:connector-curvature="0"
           d="m 56.692913,1065.8268 v -18.8977 H 37.795276 v 18.8977 z"
           style="fill:none;stroke:#ff0000"
           id="path4749" />
        <path
           inkscape:connector-curvature="0"
           d="m 18.897638,1028.0315 v -18.8976 H 0 v 18.8976 z"
           style="fill:none;stroke:#ff0000"
           id="path4767" />
        <path
           inkscape:connector-curvature="0"
           d="m 56.692913,1028.0315 v -18.8976 H 37.795276 v 18.8976 z"
           style="fill:none;stroke:#ff0000"
           id="path4769" />
        <path
           inkscape:connector-curvature="0"
           d="M 18.897638,990.23622 V 971.33858 H 0 v 18.89764 z"
           style="fill:none;stroke:#ff0000"
           id="path4787" />
        <path
           inkscape:connector-curvature="0"
           d="M 56.692913,990.23622 V 971.33858 H 37.795276 v 18.89764 z"
           style="fill:none;stroke:#ff0000"
           id="path4789" />
        <path
           inkscape:connector-curvature="0"
           d="M 18.897638,952.44095 V 933.54331 H 0 v 18.89764 z"
           style="fill:none;stroke:#ff0000"
           id="path4807" />
        <path
           inkscape:connector-curvature="0"
           d="M 56.692913,952.44095 V 933.54331 H 37.795276 v 18.89764 z"
           style="fill:none;stroke:#ff0000"
           id="path4809" />
        <path
           inkscape:connector-curvature="0"
           d="M 18.897638,914.64567 V 895.74803 H 0 v 18.89764 z"
           style="fill:none;stroke:#ff0000"
           id="path4827" />
        <path
           inkscape:connector-curvature="0"
           d="M 56.692913,914.64567 V 895.74803 H 37.795276 v 18.89764 z"
           style="fill:none;stroke:#ff0000"
           id="path4829" />
        <path
           inkscape:connector-curvature="0"
           d="M 18.897638,876.85039 V 857.95276 H 0 v 18.89763 z"
           style="fill:none;stroke:#ff0000"
           id="path4847" />
        <path
           inkscape:connector-curvature="0"
           d="M 56.692913,876.85039 V 857.95276 H 37.795276 v 18.89763 z"
           style="fill:none;stroke:#ff0000"
           id="path4849" />
        <path
           inkscape:connector-curvature="0"
           d="M 18.897638,839.05512 V 820.15748 H 0 v 18.89764 z"
           style="fill:none;stroke:#ff0000"
           id="path4867" />
        <path
           inkscape:connector-curvature="0"
           d="M 56.692913,839.05512 V 820.15748 H 37.795276 v 18.89764 z"
           style="fill:none;stroke:#ff0000"
           id="path4869" />
        <path
           inkscape:connector-curvature="0"
           d="M 18.897638,801.25984 V 782.36221 H 0 v 18.89763 z"
           style="fill:none;stroke:#ff0000"
           id="path4887" />
        <path
           inkscape:connector-curvature="0"
           d="M 56.692913,801.25984 V 782.36221 H 37.795276 v 18.89763 z"
           style="fill:none;stroke:#ff0000"
           id="path4889" />
        <path
           inkscape:connector-curvature="0"
           d="m 18.897638,1254.8031 v -18.8976 H 3.8e-5 v 18.8976 z"
           style="fill:none;stroke:#ff0000"
           id="path4827-0" />
        <path
           inkscape:connector-curvature="0"
           d="m 56.692938,1254.8031 v -18.8976 h -18.8976 v 18.8976 z"
           style="fill:none;stroke:#ff0000"
           id="path4829-9" />
        <path
           inkscape:connector-curvature="0"
           d="m 18.897638,1217.0079 v -18.8977 H 3.8e-5 v 18.8977 z"
           style="fill:none;stroke:#ff0000"
           id="path4847-2" />
        <path
           inkscape:connector-curvature="0"
           d="m 56.692938,1217.0079 v -18.8977 h -18.8976 v 18.8977 z"
           style="fill:none;stroke:#ff0000"
           id="path4849-8" />
        <path
           inkscape:connector-curvature="0"
           d="M 18.897638,1179.2126 V 1160.315 H 3.8e-5 v 18.8976 z"
           style="fill:none;stroke:#ff0000"
           id="path4867-0" />
        <path
           inkscape:connector-curvature="0"
           d="m 56.692938,1179.2126 v -18.8976 h -18.8976 v 18.8976 z"
           style="fill:none;stroke:#ff0000"
           id="path4869-9" />
      </g>
    </g>
    <path
       style="fill:#000000;stroke-width:0.37480977"
       d="m -166.00416,-51.508712 c -0.97018,-0.003 -2.437,0.07988 -4.64562,0.226095 -2.93285,0.194151 -3.24016,0.281652 -3.24016,0.917991 0,0.498812 -0.67676,1.019705 -2.32942,1.793869 l -2.32941,1.091613 V 0.26605037 48.011243 c 36,0 0,0 36,0 V 0.49538337 -47.020474 l -8.57647,-1.409053 c -4.71706,-0.775157 -9.57706,-1.409227 -10.79999,-1.409055 -2.08953,3.01e-4 -2.22354,-0.04997 -2.22354,-0.829236 0,-0.591775 -0.23848,-0.835942 -1.85539,-0.840894 z"
       id="path4587-0-0"
       inkscape:connector-curvature="0"
       sodipodi:nodetypes="scscccccccccss" />
    <path
       style="fill:#000000;stroke-width:0.26458341"
       d="m 424.01824,-296.46931 v -1.85208 l 2.91835,-0.0168 c 2.01677,-0.0116 2.73444,-0.0907 2.32305,-0.25606 -0.47214,-0.18977 -0.59404,-0.44634 -0.58915,-1.24 0.0823,-13.34533 0.57162,-35.67733 0.78329,-35.74789 0.38971,-0.12991 0.33328,-1.63066 -0.0618,-1.64517 -0.54566,-0.02 2.94157,-1.56031 5.45405,-2.40901 2.18599,-0.7384 2.43747,-0.77024 3.70417,-0.46895 1.6599,0.39481 7.20043,2.70684 6.80363,2.8391 -0.34224,0.11408 -0.38742,1.63849 -0.0486,1.63849 0.33725,0 0.52088,5.98355 0.68834,22.42958 l 0.14622,14.35977 -0.60179,0.24169 c -0.43299,0.17389 0.0661,0.24639 1.77946,0.25847 l 2.38125,0.0168 -0.0686,-27.37633 -0.0686,-27.37635 0.79619,-0.41172 c 0.55974,-0.28944 0.79619,-0.60613 0.79619,-1.06638 0,-0.64772 0.0251,-0.65466 2.36742,-0.65466 h 2.36742 l 0.08,-1.38906 0.08,-1.38907 1.78594,-0.0782 c 1.766,-0.0774 1.78593,-0.0866 1.78593,-0.8275 0,-0.4121 -0.17859,-0.89748 -0.39687,-1.07864 -0.21828,-0.18116 -0.39688,-0.49339 -0.39688,-0.69386 0,-0.28258 0.53505,-0.36448 2.38125,-0.36448 2.51511,0 2.75626,0.14341 1.97597,1.17505 -0.21366,0.28248 -0.38847,0.78849 -0.38847,1.12448 0,0.57995 0.0938,0.61089 1.85209,0.61089 h 1.85208 v 1.45521 1.45521 h 2.41211 c 2.31542,0 2.40632,0.0221 2.2677,0.55223 -0.10876,0.4159 0.0487,0.66083 0.63799,0.99218 0.43032,0.24198 0.84183,0.67809 0.91445,0.96913 0.0726,0.29104 0.0991,12.64378 0.0588,27.45054 l -0.0733,26.92137 1.13479,-1e-5 1.1348,-10e-6 -0.0325,-4.91915 -0.0325,-4.91912 0.94818,-1.46087 0.94818,-1.46089 v -20.03595 -20.03596 l 5.4757,-0.12789 0.48426,-4.09503 c 0.16366,-0.76827 0.11027,-0.85199 -0.70867,-1.11122 -0.48711,-0.1542 -1.3246,-0.35769 -1.86107,-0.4522 -0.83016,-0.14625 -1.05771,-0.34691 -1.528,-1.34742 -0.94449,-2.00932 -1.38736,-3.23913 -1.28117,-3.55772 0.0561,-0.1684 1.10923,-0.68115 2.3402,-1.13942 2.22017,-0.82653 2.23878,-0.84113 2.32024,-1.81958 l 0.0821,-0.98635 h 1.57153 c 0.86434,0 1.573,-0.0893 1.5748,-0.19843 0.003,-0.15368 0.62408,-7.21502 0.82094,-9.32658 0.0203,-0.21827 0.23018,1.80579 0.46629,4.49792 l 0.42929,4.89479 1.67279,0.0793 1.67278,0.0793 -0.0812,0.94289 -0.0812,0.9429 2.24491,0.83625 c 2.72054,1.01343 2.80494,1.23722 1.5016,3.98169 -0.86107,1.81316 -0.97963,1.94214 -1.93901,2.1093 -0.56202,0.0979 -1.36009,0.3112 -1.77349,0.47394 -0.6848,0.26958 -0.73665,0.3804 -0.58306,1.24603 l 0.26932,3.81487 5.71437,0.2486 -0.03,20.09506 -0.03,20.09504 0.67316,1.01722 c 1.28018,2.18105 1.20031,4.94117 1.15812,6.96558 l -0.0703,4.67332 0.99219,-9e-5 0.99219,-8e-5 v -38.08517 -38.08518 l 1.4552,-0.8704 c 1.03244,-0.61753 1.45521,-1.03333 1.45521,-1.43122 0,-0.50759 0.19213,-0.57706 2.02431,-0.73193 3.67935,-0.31102 4.06111,-0.26493 4.06111,0.49034 0,0.6216 0.0837,0.66144 1.38906,0.6612 0.76399,-1.4e-4 3.80008,0.50564 6.74688,1.12396 l 5.35781,1.12422 v 37.90208 37.9021 h 2.38125 2.38125 v -11.85435 -11.85436 l 0.92253,-0.89414 0.92253,-0.89416 0.0954,-18.40619 c 0.0847,-16.34342 0.20626,-20.39057 0.61261,-20.39057 0.0626,0 0.58065,0.23813 1.15114,0.52917 1.24578,0.63555 1.85208,0.67375 1.85208,0.11668 0,-0.22687 0.12466,-0.33545 0.27702,-0.24128 0.15236,0.0942 3.42658,0.1561 7.27604,0.13765 l 6.99902,-0.0335 v 1.06858 c 0,0.8922 0.0874,1.06859 0.52917,1.06859 0.52412,0 0.52917,0.17639 0.52917,18.51012 v 18.51014 l 0.63829,0.60602 c 0.63536,0.60323 0.63762,0.62512 0.49144,4.7655 -0.10373,2.93783 -0.23292,4.10797 -0.43986,3.9841 -0.16115,-0.0965 -0.1286,0.0273 0.0723,0.27494 0.29763,0.36689 0.34328,1.798 0.24637,7.72372 l -0.11897,7.2734 h 2.7302 2.73021 v -16.38568 -16.38569 l 1.38906,-0.51725 1.38906,-0.51725 0.0772,-1.85666 0.0772,-1.85669 1.471,-0.35901 1.47101,-0.35903 0.0863,-1.15743 c 0.0685,-0.91838 0.29218,-1.36824 1.08303,-2.17814 0.54818,-0.56139 1.51227,-1.21761 2.1424,-1.45827 1.13643,-0.43401 1.15794,-0.43131 2.65315,0.33337 1.76811,0.90424 2.71261,2.1318 2.71261,3.52557 0,0.96358 0.004,0.96714 1.52135,1.27988 l 1.52136,0.31361 -0.0863,1.81619 -0.0863,1.8162 1.60766,0.60124 1.60765,0.60121 v 16.3719 16.37193 h 1.94249 1.94249 l 0.33968,-1.12449 c 0.18683,-0.61846 0.39894,-1.84831 0.47136,-2.733 l 0.13168,-1.60852 -1.24605,-1.16789 -1.24606,-1.1679 0.84031,-0.3429 c 0.59175,-0.24144 0.76798,-0.4376 0.5958,-0.66316 -0.13448,-0.17616 -0.74802,-1.27278 -1.36342,-2.43695 l -1.1189,-2.11667 1.72614,1.85209 c 0.94938,1.01864 1.73083,1.94139 1.73656,2.05051 0.006,0.10914 0.13651,0.19845 0.29061,0.19845 0.15411,0 0.21478,-0.10586 0.13483,-0.23522 -0.08,-0.12937 -0.56272,-1.2307 -1.0728,-2.44739 l -0.92743,-2.21217 0.8108,0.92603 c 0.44595,0.50932 1.3384,1.62246 1.98323,2.47362 0.64484,0.85115 1.17243,1.43903 1.17243,1.30639 0,-0.13263 -0.35656,-1.29599 -0.79235,-2.58524 -0.4358,-1.28926 -0.75448,-2.38196 -0.70819,-2.42826 0.0463,-0.0463 0.69787,0.77786 1.44796,1.83143 2.61098,3.66738 2.69823,3.68629 1.6058,0.34799 -0.425,-1.29873 -0.73999,-2.45161 -0.69996,-2.56194 0.04,-0.11033 1.12548,0.99098 2.41213,2.44735 1.28664,1.45638 2.37987,2.60743 2.42941,2.55788 0.0495,-0.0495 -0.26009,-1.26787 -0.68807,-2.70741 -0.42798,-1.43954 -0.73248,-2.66301 -0.67667,-2.71881 0.0558,-0.0558 0.74149,0.63966 1.52373,1.5455 2.566,2.97147 3.2152,3.68154 3.29394,3.6028 0.0427,-0.0427 -0.0951,-1.31384 -0.30624,-2.82466 -0.21117,-1.51084 -0.35213,-2.77866 -0.31324,-2.8174 0.0389,-0.0387 1.05826,1.22923 2.26528,2.81768 1.20702,1.58845 2.29594,2.88808 2.41982,2.88808 0.12388,0 0.62096,-0.62507 1.10463,-1.38906 1.94799,-3.077 3.06403,-4.45144 3.33321,-4.10497 0.14301,0.18406 0.93258,1.48826 1.75461,2.89822 0.82203,1.40994 1.60508,2.63182 1.74012,2.71528 0.13503,0.0834 1.22003,-1.10669 2.41111,-2.64478 1.19107,-1.53807 2.21126,-2.75083 2.26708,-2.69502 0.0558,0.0558 -0.0635,1.283 -0.26515,2.72707 -0.3266,2.33877 -0.34637,3.08498 -0.0725,2.73579 0.66597,-0.84907 4.48244,-5.26961 4.54952,-5.26961 0.0829,0 -0.84599,3.53006 -1.30547,4.96094 -0.10515,0.32742 -0.0938,0.58612 0.0251,0.5749 0.11895,-0.0112 1.25807,-1.20509 2.53138,-2.65304 1.2733,-1.44796 2.3151,-2.57128 2.3151,-2.49631 0,0.075 -0.36624,1.27966 -0.81386,2.67704 -0.44762,1.39739 -0.75905,2.5955 -0.69207,2.66248 0.067,0.067 0.96899,-1.0275 2.00448,-2.43219 1.03548,-1.40469 1.8827,-2.50402 1.8827,-2.44297 0,0.061 -0.41195,1.26379 -0.91545,2.67278 -0.5035,1.40899 -0.83092,2.5576 -0.72761,2.5525 0.10332,-0.005 1.00674,-1.07668 2.0076,-2.38125 1.00086,-1.30459 1.85739,-2.37196 1.9034,-2.37196 0.046,0 -0.39622,1.0811 -0.98274,2.40246 -0.58651,1.32136 -1.01118,2.45766 -0.94371,2.52514 0.0675,0.0675 0.92148,-0.83505 1.8978,-2.00559 0.97632,-1.17054 1.8137,-2.12826 1.86085,-2.12826 0.0471,0 -0.49863,1.04179 -1.21285,2.3151 -0.71422,1.2733 -1.29885,2.39052 -1.29919,2.48269 -2.6e-4,0.0922 0.26637,0.23738 0.59266,0.32272 0.55992,0.14642 0.52141,0.22807 -0.68555,1.45346 l -1.2788,1.29832 0.28792,2.34772 c 0.15836,1.29123 0.28826,2.437 0.28867,2.54614 5.3e-4,0.10913 0.77466,0.19844 1.72054,0.19844 h 1.71979 v 1.85207 1.85209 h -99.02824 -99.02825 v -1.85209 z m 106.77525,-10.86089 c -0.91773,-0.62294 -1.44037,-0.80422 -0.79375,-0.27531 0.3638,0.29757 0.78052,0.54186 0.92604,0.54287 0.14552,0.001 0.086,-0.11939 -0.13229,-0.26756 z m 24.67743,0.10394 c -0.17913,-0.0725 -0.53632,-0.0769 -0.79375,-0.01 -0.25743,0.0671 -0.11087,0.12638 0.3257,0.13177 0.43656,0.005 0.64718,-0.0495 0.46805,-0.12197 z m 1.12881,-0.38512 c 0.11862,-0.3737 0.0198,-0.70218 -0.29841,-0.99218 -0.44655,-0.40694 -0.45325,-0.40381 -0.10926,0.051 0.2904,0.38393 0.30066,0.58987 0.0494,0.99218 -0.17438,0.27923 -0.20501,0.50769 -0.0681,0.50769 0.13695,0 0.32879,-0.25141 0.42631,-0.55868 z m -23.55915,0.0325 c 0.0927,-0.14998 -0.0135,-0.19434 -0.24897,-0.10399 -0.45837,0.1759 -0.54224,0.36554 -0.16165,0.36554 0.13693,0 0.32171,-0.1177 0.41062,-0.26155 z m 3.48439,-0.86291 c -0.0734,-0.18191 -0.13345,-0.0331 -0.13345,0.33073 0,0.36379 0.0601,0.51263 0.13345,0.33072 0.0734,-0.18189 0.0734,-0.47956 0,-0.66145 z m 1.32292,0 c -0.0734,-0.18191 -0.13346,-0.0331 -0.13346,0.33073 0,0.36379 0.0601,0.51263 0.13346,0.33072 0.0734,-0.18189 0.0734,-0.47956 0,-0.66145 z m 3.70416,0 c -0.0734,-0.18191 -0.13345,-0.0331 -0.13345,0.33073 0,0.36379 0.0601,0.51263 0.13345,0.33072 0.0734,-0.18189 0.0734,-0.47956 0,-0.66145 z m 2.66468,-2.10968 c -0.0559,-0.62231 -0.10241,-0.17896 -0.10337,0.98519 -10e-4,1.16418 0.0448,1.67333 0.10162,1.13148 0.0569,-0.54185 0.0576,-1.49435 0.002,-2.11667 z m 3.69083,2.3908 c -0.0845,-0.21107 -0.14715,-0.14837 -0.15985,0.15985 -0.0115,0.27891 0.051,0.43519 0.13897,0.34726 0.0879,-0.0879 0.0973,-0.31611 0.0209,-0.50711 z m -7.66225,-2.39779 c -0.0587,-0.47295 -0.10672,-0.086 -0.10672,0.8599 0,0.94589 0.048,1.33284 0.10672,0.8599 0.0587,-0.47295 0.0587,-1.24686 0,-1.7198 z m -7.84333,1.4552 c 0.29807,-0.3939 0.295,-0.41364 -0.0205,-0.13228 -0.94685,0.84433 -2.21422,-0.17602 -1.93747,-1.5598 0.10203,-0.51013 0.0431,-0.75531 -0.18143,-0.75531 -0.23624,0 -0.2906,0.31236 -0.18778,1.07892 0.21514,1.604 1.55348,2.39099 2.3272,1.36847 z m 1.82704,-0.83784 c 0.005,-0.84922 -0.14506,-0.63397 -0.35444,0.50713 -0.11956,0.65151 -0.0928,0.80838 0.0902,0.52916 0.14309,-0.21829 0.26199,-0.68461 0.26421,-1.03629 z m 11.30795,-1.14652 c -0.0587,-0.47294 -0.10671,-0.086 -0.10671,0.8599 0,0.94587 0.048,1.33282 0.10671,0.85988 0.0587,-0.47294 0.0587,-1.24684 0,-1.71978 z m 9.52653,2.28754 c -0.0879,-0.0879 -0.31612,-0.0973 -0.50712,-0.0209 -0.21106,0.0845 -0.14837,0.14715 0.15986,0.15985 0.27891,0.0115 0.43518,-0.0511 0.34726,-0.13898 z m -18.52042,-3.61844 c -0.0555,-0.61408 -0.10023,-0.0449 -0.0994,1.26474 8e-4,1.30969 0.0462,1.81211 0.10089,1.11651 0.0547,-0.69563 0.054,-1.76719 -0.002,-2.38125 z m 1.32292,0 c -0.0555,-0.61408 -0.10023,-0.0449 -0.0994,1.26474 7.9e-4,1.30969 0.0462,1.81211 0.10088,1.11651 0.0547,-0.69563 0.054,-1.76719 -0.002,-2.38125 z m 3.84421,1.58397 c 0.0608,-0.85546 0.013,-1.38162 -0.10817,-1.19062 -0.11941,0.18822 -0.20954,0.99707 -0.20028,1.79745 0.0204,1.75786 0.15992,1.48327 0.30845,-0.60683 z m 6.20648,0.14744 c -0.0608,-0.40218 -0.1122,-0.13593 -0.11419,0.59168 -0.002,0.72759 0.0478,1.05665 0.11057,0.73123 0.0628,-0.32541 0.0644,-0.92073 0.004,-1.32291 z m -19.05274,0.13173 c -0.0633,-0.32911 -0.11747,-0.12215 -0.1204,0.45995 -0.003,0.58208 0.0488,0.85136 0.11507,0.59838 0.0662,-0.25296 0.0686,-0.72921 0.005,-1.05833 z m 3.96236,0.27804 c -0.0845,-0.21106 -0.14715,-0.14837 -0.15985,0.15985 -0.0115,0.27892 0.0511,0.43519 0.13897,0.34727 0.0879,-0.0879 0.0973,-0.31612 0.0209,-0.50712 z m 23.30578,-0.74413 c 0.18176,-0.29106 0.28838,-0.52918 0.23694,-0.52918 -0.0514,0 -0.30902,0.23812 -0.57241,0.52918 -0.26339,0.29104 -0.37002,0.52916 -0.23695,0.52916 0.13307,0 0.39066,-0.23812 0.57242,-0.52916 z m -27.26153,-3.50574 c -0.0557,-0.61846 -0.10129,-0.11245 -0.10129,1.12449 0,1.23692 0.0456,1.74294 0.10129,1.12446 0.0557,-0.61846 0.0557,-1.63048 0,-2.24895 z m 25.86772,2.97656 c 0.0899,-0.14551 0.0374,-0.26457 -0.11667,-0.26457 -0.15411,0 -0.2802,0.11906 -0.2802,0.26457 0,0.14553 0.0525,0.26459 0.11667,0.26459 0.0642,0 0.19027,-0.11906 0.2802,-0.26459 z m -14.17785,-1.19063 c 0.008,-0.14551 -0.10087,-0.086 -0.24194,0.13231 -0.14106,0.21827 -0.24993,0.57545 -0.24193,0.79375 0.0153,0.41905 0.45632,-0.42487 0.48387,-0.92606 z m 7.25926,0.7864 c -0.17009,-0.44323 -1.1193,-1.03877 -1.32609,-0.83198 -0.0713,0.0713 0.11753,0.20799 0.41954,0.30384 0.30201,0.0958 0.5491,0.34485 0.5491,0.55332 0,0.20849 0.11533,0.37905 0.25628,0.37905 0.14095,0 0.18648,-0.18189 0.10117,-0.40423 z m -3.97031,-0.26864 c -0.0862,-0.22456 -0.21342,-0.35153 -0.28278,-0.28218 -0.0694,0.0694 -0.0476,0.25309 0.0483,0.40828 0.2609,0.42213 0.41338,0.34012 0.23448,-0.1261 z m 2.15765,-0.12088 c 0.0899,-0.14551 0.0374,-0.26457 -0.11667,-0.26457 -0.15411,0 -0.2802,0.11906 -0.2802,0.26457 0,0.14553 0.0525,0.26459 0.11667,0.26459 0.0642,0 0.19027,-0.11906 0.2802,-0.26459 z m -15.47812,-0.26457 c 0,-0.14554 -0.0525,-0.26459 -0.11668,-0.26459 -0.0642,0 -0.19026,0.11905 -0.2802,0.26459 -0.0899,0.14551 -0.0374,0.26457 0.11668,0.26457 0.15411,0 0.2802,-0.11906 0.2802,-0.26457 z m 24.60625,0 c -0.21828,-0.14107 -0.51594,-0.25649 -0.66146,-0.25649 -0.14552,0 -0.086,0.11542 0.13229,0.25649 0.21828,0.14106 0.51594,0.25646 0.66146,0.25646 0.14552,0 0.086,-0.1154 -0.13229,-0.25646 z m 1.85083,-0.71764 c -0.28829,-0.4496 -0.29576,-0.44904 -0.15102,0.0117 0.0837,0.26656 0.16167,0.62375 0.17316,0.79375 0.0151,0.22308 0.0571,0.21984 0.15102,-0.0117 0.0716,-0.17643 -0.006,-0.53362 -0.17316,-0.79375 z m -23.74146,0.53139 c -0.32543,-0.0628 -0.92074,-0.0644 -1.32292,-0.004 -0.40218,0.0608 -0.13593,0.11219 0.59167,0.11418 0.72761,0.002 1.05667,-0.0478 0.73125,-0.11058 z m -5.89062,-0.47521 c 0,-0.21829 -0.0468,-0.39688 -0.10399,-0.39688 -0.0572,0 -0.17251,0.17859 -0.25628,0.39688 -0.0838,0.21827 -0.037,0.39687 0.10399,0.39687 0.14095,0 0.25628,-0.1786 0.25628,-0.39687 z m 6.79794,-0.59028 c -0.0671,-0.25743 -0.12639,-0.11088 -0.13178,0.32568 -0.005,0.43657 0.0495,0.6472 0.12197,0.46807 0.0725,-0.17914 0.0769,-0.53633 0.01,-0.79375 z m 8.17755,-0.52971 c -0.1258,-0.12581 -1.74632,0.92196 -1.74632,1.12908 0,0.0579 0.4218,-0.14352 0.93733,-0.44768 0.51554,-0.30418 0.87958,-0.61081 0.80899,-0.6814 z m 1.95784,0.45853 c -0.33557,-0.29103 -0.80028,-0.52853 -1.03267,-0.52778 -0.25929,7.9e-4 -0.11587,0.19784 0.37121,0.50984 1.04934,0.67215 1.42759,0.68241 0.66146,0.0179 z m 3.43192,-0.27492 c -0.21406,-0.13537 -0.5678,-0.2462 -0.78608,-0.24629 -0.21875,-9e-5 -0.1,0.1563 0.26458,0.34843 0.72173,0.38036 1.15137,0.29621 0.5215,-0.10214 z m -20.36525,0.15821 c 0,-0.0642 -0.11906,-0.19025 -0.26458,-0.28019 -0.14553,-0.0899 -0.26459,-0.0374 -0.26459,0.11667 0,0.15412 0.11906,0.28021 0.26459,0.28021 0.14552,0 0.26458,-0.0525 0.26458,-0.11669 z m 18.78542,-0.14791 c 0.21828,-0.14106 0.27781,-0.25646 0.13229,-0.25646 -0.14552,0 -0.44318,0.1154 -0.66146,0.25646 -0.21828,0.14108 -0.27781,0.25649 -0.13229,0.25649 0.14552,0 0.44317,-0.11541 0.66146,-0.25649 z m 9.65729,0 c -0.0899,-0.14551 -0.36486,-0.26276 -0.61093,-0.26053 -0.38557,0.003 -0.39256,0.0395 -0.0505,0.26053 0.51815,0.33486 0.86841,0.33486 0.66146,0 z m -25.35075,-0.52234 c -0.11149,-0.73057 -0.44613,-1.0003 -0.44613,-0.35959 0,0.47376 0.20332,0.88193 0.43931,0.88193 0.0476,0 0.0507,-0.23505 0.007,-0.52234 z m 2.66746,0.33329 c -0.39757,-0.0604 -1.11195,-0.0616 -1.5875,-0.003 -0.47554,0.0589 -0.15025,0.10829 0.72287,0.10978 0.87313,0.002 1.26221,-0.0467 0.86463,-0.10707 z m 5.20486,-1.69777 c 1.03015,-0.81031 1.28294,-1.65151 0.82537,-2.74661 -0.62019,-1.48435 -2.77322,-1.51276 -3.15791,-0.0417 -0.21994,0.84106 -0.003,0.82862 0.50389,-0.0288 0.39467,-0.66813 0.56605,-0.74933 1.27533,-0.60426 1.08661,0.22223 1.52725,1.50893 0.86362,2.52175 -0.24138,0.3684 -0.62174,0.66979 -0.84525,0.66979 -0.22352,0 -0.33281,0.11907 -0.24287,0.26459 0.0899,0.14552 0.0374,0.26458 -0.11668,0.26458 -0.15411,0 -0.2802,-0.11906 -0.2802,-0.26458 0,-0.14552 -0.28901,-0.26459 -0.64225,-0.26459 -0.76286,0 -1.739,-1.12423 -1.739,-2.00282 0,-1.65751 1.22075,-2.88244 2.82723,-2.83691 0.50091,0.0142 1.12088,0.21598 1.3777,0.4484 0.25682,0.23243 0.63617,0.41831 0.84299,0.41307 0.21818,-0.006 0.0428,-0.28331 -0.41771,-0.66175 -0.43656,-0.35873 -0.93489,-0.59926 -1.10738,-0.53451 -0.1725,0.0647 -0.35924,-0.0191 -0.41498,-0.1863 -0.16305,-0.48917 -2.53327,0.54764 -3.04807,1.33332 -0.24608,0.37557 -0.42165,0.98891 -0.39017,1.36299 0.0511,0.60677 0.0312,0.62306 -0.18446,0.15098 l -0.24171,-0.52917 -0.0142,0.52917 c -0.0236,0.87713 1.11956,2.63686 1.77406,2.73089 0.32565,0.0468 0.52376,0.19562 0.44026,0.33073 -0.30276,0.48987 1.41385,0.23126 2.11243,-0.31824 z m -8.51689,0.1241 c -0.1819,-0.0734 -0.47955,-0.0734 -0.66145,0 -0.18191,0.0734 -0.0331,0.13345 0.33073,0.13345 0.3638,0 0.51263,-0.0601 0.33072,-0.13345 z m 10.49454,-1.41228 c -0.01,-0.26168 -0.092,-0.21661 -0.24193,0.1323 -0.31256,0.72737 -0.31256,1.14512 0,0.66145 0.14106,-0.21827 0.24993,-0.57546 0.24193,-0.79375 z m -3.0862,0.0779 c -0.32742,-0.0631 -0.59531,-0.22544 -0.59531,-0.36084 0,-0.13541 -0.18329,-0.24618 -0.40731,-0.24618 -0.33653,0 -0.34802,0.0672 -0.0662,0.38681 0.18764,0.21274 0.63882,0.37512 1.00262,0.36084 0.61771,-0.0243 0.62209,-0.0335 0.0661,-0.14063 z m 0.7276,-0.60702 c 0,-0.14552 -0.12609,-0.26459 -0.2802,-0.26459 -0.15411,0 -0.20661,0.11907 -0.11667,0.26459 0.0899,0.14551 0.21602,0.26459 0.2802,0.26459 0.0642,0 0.11667,-0.11908 0.11667,-0.26459 z m 2.53332,-1.17829 c -0.0968,-0.51611 -0.27317,-0.93837 -0.39188,-0.93837 -0.11871,0 -0.0897,0.47249 0.0644,1.04999 0.3399,1.27343 0.57242,1.19416 0.32746,-0.11162 z"
       id="path4587-0-0-1"
       inkscape:connector-curvature="0"
       sodipodi:nodetypes="ccccccccccsscccccccssccccsssscsscccsccccccccccccccccscccccsccsccccccccsccccccccccccsscssscccccccccsscscccssscccccccccccccccccccccscccccccccccccccccscccscccccscsccccssscsccsscccccsccscccssccsccsscscscccccccsccccccccccccccccccccsccccscsscssscssscscccccccccccscccccsccccccccsscscccccccccccccccccccccccccccccccccccscsccscccsssccccccscssccccccssscsscsscscscccccccccccsscssccccccscccccccccccscssscscscccccccsscccccccccccccscsssscccccccccccccccccsccccccssccccsscsscsccc" />
  </g>
</svg>
