0
SECTION
2
HEADER
9
$INSUNITS
70
4
9
$ACADVER
1
AC1014
9
$HANDSEED
5
FFFF
0
ENDSEC
0
SECTION
2
TABLES
0
TABLE
2
VPORT
5
8
100
AcDbSymbolTable
0
ENDTAB
0
TABLE
2
LTYPE
5
5
100
AcDbSymbolTable
0
LTYPE
5
14
100
AcDbSymbolTableRecord
100
AcDbLinetypeTableRecord
2
BYBLOCK
70
0
0
LTYPE
5
15
100
AcDbSymbolTableRecord
100
AcDbLinetypeTableRecord
2
BYLAYER
70
0
0
ENDTAB
0
TABLE
2
LAYER
5
2
100
AcDbSymbolTable
70
2
0
LAYER
5
50
100
AcDbSymbolTableRecord
100
AcDbLayerTableRecord
2
0
70
0
6
CONTINUOUS
0
ENDTAB
0
TABLE
2
STYLE
5
3
100
AcDbSymbolTable
70
1
0
STYLE
5
11
100
AcDbSymbolTableRecord
100
AcDbTextStyleTableRecord
2
STANDARD
70
0
0
ENDTAB
0
TABLE
2
VIEW
5
6
100
AcDbSymbolTable
70
0
0
ENDTAB
0
TABLE
2
UCS
5
7
100
AcDbSymbolTable
70
0
0
ENDTAB
0
TABLE
2
APPID
5
9
100
AcDbSymbolTable
70
2
0
APPID
5
12
100
AcDbSymbolTableRecord
100
AcDbRegAppTableRecord
2
ACAD
70
0
0
ENDTAB
0
TABLE
2
DIMSTYLE
5
A
100
AcDbSymbolTable
70
1
0
ENDTAB
0
TABLE
2
BLOCK_RECORD
5
1
100
AcDbSymbolTable
70
1
0
BLOCK_RECORD
5
1F
100
AcDbSymbolTableRecord
100
AcDbBlockTableRecord
2
*MODEL_SPACE
0
BLOCK_RECORD
5
1B
100
AcDbSymbolTableRecord
100
AcDbBlockTableRecord
2
*PAPER_SPACE
0
ENDTAB
0
ENDSEC
0
SECTION
2
BLOCKS
0
BLOCK
5
20
100
AcDbEntity
100
AcDbBlockBegin
2
*MODEL_SPACE
0
ENDBLK
5
21
100
AcDbEntity
100
AcDbBlockEnd
0
BLOCK
5
1C
100
AcDbEntity
100
AcDbBlockBegin
2
*PAPER_SPACE
0
ENDBLK
5
1D
100
AcDbEntity
100
AcDbBlockEnd
0
ENDSEC
0
SECTION
2
ENTITIES
0
LINE
5
100
100
AcDbEntity
8
0
100
AcDbLine
10
0
20
0
30
0
11
40
21
0
31
0
0
LINE
5
101
100
AcDbEntity
8
0
100
AcDbLine
10
43.999999999999986
20
-24.000000000000004
30
0
11
44
21
-250
31
0
0
LINE
5
102
100
AcDbEntity
8
0
100
AcDbLine
10
44
20
-250
30
0
11
-1.4791141972893971e-30
21
-250
31
0
0
LINE
5
103
100
AcDbEntity
8
0
100
AcDbLine
10
-1.4791141972893971e-30
20
-250
30
0
11
0
21
0
31
0
0
LWPOLYLINE
5
104
100
AcDbEntity
8
0
100
AcDbPolyline
90
4
70
1
43
0.0
10
6.0000000000000009
20
0
10
0
20
0
10
0
20
-24.000000000000004
10
6.0000000000000009
20
-24.000000000000004
0
LINE
5
105
100
AcDbEntity
8
0
100
AcDbLine
10
43.999999999999986
20
-24.000000000000004
30
0
11
49.999999999999993
21
-24.000000000000004
31
0
0
LINE
5
106
100
AcDbEntity
8
0
100
AcDbLine
10
49.999999999999993
20
-24.000000000000004
30
0
11
49.999999999999993
21
0
31
0
0
LINE
5
107
100
AcDbEntity
8
0
100
AcDbLine
10
49.999999999999993
20
0
30
0
11
33.64319089791838
21
0
31
0
0
LWPOLYLINE
5
108
100
AcDbEntity
8
0
100
AcDbPolyline
90
4
70
1
43
0.0
10
14.000000000000002
20
-241
10
9.0000000000000018
20
-241
10
9.0000000000000018
20
-236
10
14.000000000000002
20
-236
0
LWPOLYLINE
5
109
100
AcDbEntity
8
0
100
AcDbPolyline
90
4
70
1
43
0.0
10
27
20
-236
10
27
20
-241
10
22
20
-241
10
22
20
-236
0
LWPOLYLINE
5
110
100
AcDbEntity
8
0
100
AcDbPolyline
90
4
70
1
43
0.0
10
14.000000000000002
20
-224.78947368421052
10
14.000000000000002
20
-229.78947368421052
10
9.0000000000000018
20
-229.78947368421052
10
9.0000000000000018
20
-224.78947368421052
0
LWPOLYLINE
5
111
100
AcDbEntity
8
0
100
AcDbPolyline
90
4
70
1
43
0.0
10
27
20
-224.78947368421052
10
27
20
-229.78947368421052
10
22
20
-229.78947368421052
10
22
20
-224.78947368421052
0
LWPOLYLINE
5
112
100
AcDbEntity
8
0
100
AcDbPolyline
90
4
70
1
43
0.0
10
14.000000000000002
20
-213.57894736842104
10
14.000000000000002
20
-218.57894736842104
10
9.0000000000000018
20
-218.57894736842104
10
9.0000000000000018
20
-213.57894736842104
0
LWPOLYLINE
5
113
100
AcDbEntity
8
0
100
AcDbPolyline
90
4
70
1
43
0.0
10
27
20
-213.57894736842104
10
27
20
-218.57894736842104
10
22
20
-218.57894736842104
10
22
20
-213.57894736842104
0
LWPOLYLINE
5
114
100
AcDbEntity
8
0
100
AcDbPolyline
90
4
70
1
43
0.0
10
14.000000000000002
20
-202.36842105263156
10
14.000000000000002
20
-207.36842105263156
10
9.0000000000000018
20
-207.36842105263156
10
9.0000000000000018
20
-202.36842105263156
0
LWPOLYLINE
5
115
100
AcDbEntity
8
0
100
AcDbPolyline
90
4
70
1
43
0.0
10
27
20
-202.36842105263156
10
27
20
-207.36842105263156
10
22
20
-207.36842105263156
10
22
20
-202.36842105263156
0
LWPOLYLINE
5
116
100
AcDbEntity
8
0
100
AcDbPolyline
90
4
70
1
43
0.0
10
14.000000000000002
20
-191.15789473684214
10
14.000000000000002
20
-196.15789473684214
10
9.0000000000000018
20
-196.15789473684214
10
9.0000000000000018
20
-191.15789473684214
0
LWPOLYLINE
5
117
100
AcDbEntity
8
0
100
AcDbPolyline
90
4
70
1
43
0.0
10
27
20
-191.15789473684214
10
27
20
-196.15789473684214
10
22
20
-196.15789473684214
10
22
20
-191.15789473684214
0
LWPOLYLINE
5
118
100
AcDbEntity
8
0
100
AcDbPolyline
90
4
70
1
43
0.0
10
14.000000000000002
20
-179.94736842105266
10
14.000000000000002
20
-184.94736842105266
10
9.0000000000000018
20
-184.94736842105266
10
9.0000000000000018
20
-179.94736842105266
0
LWPOLYLINE
5
119
100
AcDbEntity
8
0
100
AcDbPolyline
90
4
70
1
43
0.0
10
27
20
-179.94736842105266
10
27
20
-184.94736842105266
10
22
20
-184.94736842105266
10
22
20
-179.94736842105266
0
LWPOLYLINE
5
120
100
AcDbEntity
8
0
100
AcDbPolyline
90
4
70
1
43
0.0
10
14.000000000000002
20
-168.73684210526318
10
14.000000000000002
20
-173.73684210526318
10
9.0000000000000018
20
-173.73684210526318
10
9.0000000000000018
20
-168.73684210526318
0
LWPOLYLINE
5
121
100
AcDbEntity
8
0
100
AcDbPolyline
90
4
70
1
43
0.0
10
27
20
-168.73684210526318
10
27
20
-173.73684210526318
10
22
20
-173.73684210526318
10
22
20
-168.73684210526318
0
LWPOLYLINE
5
122
100
AcDbEntity
8
0
100
AcDbPolyline
90
4
70
1
43
0.0
10
14.000000000000002
20
-157.5263157894737
10
14.000000000000002
20
-162.5263157894737
10
9.0000000000000018
20
-162.5263157894737
10
9.0000000000000018
20
-157.5263157894737
0
LWPOLYLINE
5
123
100
AcDbEntity
8
0
100
AcDbPolyline
90
4
70
1
43
0.0
10
27
20
-157.5263157894737
10
27
20
-162.5263157894737
10
22
20
-162.5263157894737
10
22
20
-157.5263157894737
0
LWPOLYLINE
5
124
100
AcDbEntity
8
0
100
AcDbPolyline
90
4
70
1
43
0.0
10
14.000000000000002
20
-146.31578947368422
10
14.000000000000002
20
-151.31578947368422
10
9.0000000000000018
20
-151.31578947368422
10
9.0000000000000018
20
-146.31578947368422
0
LWPOLYLINE
5
125
100
AcDbEntity
8
0
100
AcDbPolyline
90
4
70
1
43
0.0
10
27
20
-146.31578947368422
10
27
20
-151.31578947368422
10
22
20
-151.31578947368422
10
22
20
-146.31578947368422
0
LWPOLYLINE
5
126
100
AcDbEntity
8
0
100
AcDbPolyline
90
4
70
1
43
0.0
10
14.000000000000002
20
-135.10526315789474
10
14.000000000000002
20
-140.10526315789474
10
9.0000000000000018
20
-140.10526315789474
10
9.0000000000000018
20
-135.10526315789474
0
LWPOLYLINE
5
127
100
AcDbEntity
8
0
100
AcDbPolyline
90
4
70
1
43
0.0
10
27
20
-135.10526315789474
10
27
20
-140.10526315789474
10
22
20
-140.10526315789474
10
22
20
-135.10526315789474
0
LWPOLYLINE
5
128
100
AcDbEntity
8
0
100
AcDbPolyline
90
4
70
1
43
0.0
10
40.000000000000007
20
-236
10
40.000000000000007
20
-241
10
35.000000000000007
20
-241
10
35.000000000000007
20
-236
0
LWPOLYLINE
5
129
100
AcDbEntity
8
0
100
AcDbPolyline
90
4
70
1
43
0.0
10
40.000000000000007
20
-224.78947368421052
10
40.000000000000007
20
-229.78947368421052
10
35.000000000000007
20
-229.78947368421052
10
35.000000000000007
20
-224.78947368421052
0
LWPOLYLINE
5
130
100
AcDbEntity
8
0
100
AcDbPolyline
90
4
70
1
43
0.0
10
40.000000000000007
20
-213.57894736842104
10
40.000000000000007
20
-218.57894736842104
10
35.000000000000007
20
-218.57894736842104
10
35.000000000000007
20
-213.57894736842104
0
LWPOLYLINE
5
131
100
AcDbEntity
8
0
100
AcDbPolyline
90
4
70
1
43
0.0
10
40.000000000000007
20
-202.36842105263156
10
40.000000000000007
20
-207.36842105263156
10
35.000000000000007
20
-207.36842105263156
10
35.000000000000007
20
-202.36842105263156
0
LWPOLYLINE
5
132
100
AcDbEntity
8
0
100
AcDbPolyline
90
4
70
1
43
0.0
10
40.000000000000007
20
-191.15789473684214
10
40.000000000000007
20
-196.15789473684214
10
35.000000000000007
20
-196.15789473684214
10
35.000000000000007
20
-191.15789473684214
0
LWPOLYLINE
5
133
100
AcDbEntity
8
0
100
AcDbPolyline
90
4
70
1
43
0.0
10
40.000000000000007
20
-179.94736842105266
10
40.000000000000007
20
-184.94736842105266
10
35.000000000000007
20
-184.94736842105266
10
35.000000000000007
20
-179.94736842105266
0
LWPOLYLINE
5
134
100
AcDbEntity
8
0
100
AcDbPolyline
90
4
70
1
43
0.0
10
40.000000000000007
20
-168.73684210526318
10
40.000000000000007
20
-173.73684210526318
10
35.000000000000007
20
-173.73684210526318
10
35.000000000000007
20
-168.73684210526318
0
LWPOLYLINE
5
135
100
AcDbEntity
8
0
100
AcDbPolyline
90
4
70
1
43
0.0
10
40.000000000000007
20
-157.5263157894737
10
40.000000000000007
20
-162.5263157894737
10
35.000000000000007
20
-162.5263157894737
10
35.000000000000007
20
-157.5263157894737
0
LWPOLYLINE
5
136
100
AcDbEntity
8
0
100
AcDbPolyline
90
4
70
1
43
0.0
10
40.000000000000007
20
-146.31578947368422
10
40.000000000000007
20
-151.31578947368422
10
35.000000000000007
20
-151.31578947368422
10
35.000000000000007
20
-146.31578947368422
0
LWPOLYLINE
5
137
100
AcDbEntity
8
0
100
AcDbPolyline
90
4
70
1
43
0.0
10
40.000000000000007
20
-135.10526315789474
10
40.000000000000007
20
-140.10526315789474
10
35.000000000000007
20
-140.10526315789474
10
35.000000000000007
20
-135.10526315789474
0
LWPOLYLINE
5
138
100
AcDbEntity
8
0
100
AcDbPolyline
90
4
70
1
43
0.0
10
14.000000000000002
20
-123.89473684210529
10
14.000000000000002
20
-128.89473684210529
10
9.0000000000000018
20
-128.89473684210529
10
9.0000000000000018
20
-123.89473684210529
0
LWPOLYLINE
5
139
100
AcDbEntity
8
0
100
AcDbPolyline
90
4
70
1
43
0.0
10
27
20
-123.89473684210529
10
27
20
-128.89473684210529
10
22
20
-128.89473684210529
10
22
20
-123.89473684210529
0
LWPOLYLINE
5
140
100
AcDbEntity
8
0
100
AcDbPolyline
90
4
70
1
43
0.0
10
40.000000000000007
20
-123.89473684210529
10
40.000000000000007
20
-128.89473684210529
10
35.000000000000007
20
-128.89473684210529
10
35.000000000000007
20
-123.89473684210529
0
LWPOLYLINE
5
141
100
AcDbEntity
8
0
100
AcDbPolyline
90
4
70
1
43
0.0
10
14.000000000000002
20
-112.68421052631581
10
14.000000000000002
20
-117.68421052631581
10
9.0000000000000018
20
-117.68421052631581
10
9.0000000000000018
20
-112.68421052631581
0
LWPOLYLINE
5
142
100
AcDbEntity
8
0
100
AcDbPolyline
90
4
70
1
43
0.0
10
27
20
-112.68421052631581
10
27
20
-117.68421052631581
10
22
20
-117.68421052631581
10
22
20
-112.68421052631581
0
LWPOLYLINE
5
143
100
AcDbEntity
8
0
100
AcDbPolyline
90
4
70
1
43
0.0
10
40.000000000000007
20
-112.68421052631581
10
40.000000000000007
20
-117.68421052631581
10
35.000000000000007
20
-117.68421052631581
10
35.000000000000007
20
-112.68421052631581
0
LWPOLYLINE
5
144
100
AcDbEntity
8
0
100
AcDbPolyline
90
4
70
1
43
0.0
10
14.000000000000002
20
-101.47368421052633
10
14.000000000000002
20
-106.47368421052633
10
9.0000000000000018
20
-106.47368421052633
10
9.0000000000000018
20
-101.47368421052633
0
LWPOLYLINE
5
145
100
AcDbEntity
8
0
100
AcDbPolyline
90
4
70
1
43
0.0
10
27
20
-101.47368421052633
10
27
20
-106.47368421052633
10
22
20
-106.47368421052633
10
22
20
-101.47368421052633
0
LWPOLYLINE
5
146
100
AcDbEntity
8
0
100
AcDbPolyline
90
4
70
1
43
0.0
10
40.000000000000007
20
-101.47368421052633
10
40.000000000000007
20
-106.47368421052633
10
35.000000000000007
20
-106.47368421052633
10
35.000000000000007
20
-101.47368421052633
0
LWPOLYLINE
5
147
100
AcDbEntity
8
0
100
AcDbPolyline
90
4
70
1
43
0.0
10
14.000000000000002
20
-90.263157894736864
10
14.000000000000002
20
-95.263157894736864
10
9.0000000000000018
20
-95.263157894736864
10
9.0000000000000018
20
-90.263157894736864
0
LWPOLYLINE
5
148
100
AcDbEntity
8
0
100
AcDbPolyline
90
4
70
1
43
0.0
10
27
20
-90.263157894736864
10
27
20
-95.263157894736864
10
22
20
-95.263157894736864
10
22
20
-90.263157894736864
0
LWPOLYLINE
5
149
100
AcDbEntity
8
0
100
AcDbPolyline
90
4
70
1
43
0.0
10
40.000000000000007
20
-90.263157894736864
10
40.000000000000007
20
-95.263157894736864
10
35.000000000000007
20
-95.263157894736864
10
35.000000000000007
20
-90.263157894736864
0
LWPOLYLINE
5
150
100
AcDbEntity
8
0
100
AcDbPolyline
90
4
70
1
43
0.0
10
14.000000000000002
20
-79.052631578947384
10
14.000000000000002
20
-84.052631578947384
10
9.0000000000000018
20
-84.052631578947384
10
9.0000000000000018
20
-79.052631578947384
0
LWPOLYLINE
5
151
100
AcDbEntity
8
0
100
AcDbPolyline
90
4
70
1
43
0.0
10
27
20
-79.052631578947384
10
27
20
-84.052631578947384
10
22
20
-84.052631578947384
10
22
20
-79.052631578947384
0
LWPOLYLINE
5
152
100
AcDbEntity
8
0
100
AcDbPolyline
90
4
70
1
43
0.0
10
40.000000000000007
20
-79.052631578947384
10
40.000000000000007
20
-84.052631578947384
10
35.000000000000007
20
-84.052631578947384
10
35.000000000000007
20
-79.052631578947384
0
LWPOLYLINE
5
153
100
AcDbEntity
8
0
100
AcDbPolyline
90
4
70
1
43
0.0
10
14.000000000000002
20
-67.842105263157919
10
14.000000000000002
20
-72.842105263157919
10
9.0000000000000018
20
-72.842105263157919
10
9.0000000000000018
20
-67.842105263157919
0
LWPOLYLINE
5
154
100
AcDbEntity
8
0
100
AcDbPolyline
90
4
70
1
43
0.0
10
27
20
-67.842105263157919
10
27
20
-72.842105263157919
10
22
20
-72.842105263157919
10
22
20
-67.842105263157919
0
LWPOLYLINE
5
155
100
AcDbEntity
8
0
100
AcDbPolyline
90
4
70
1
43
0.0
10
40.000000000000007
20
-67.842105263157919
10
40.000000000000007
20
-72.842105263157919
10
35.000000000000007
20
-72.842105263157919
10
35.000000000000007
20
-67.842105263157919
0
LWPOLYLINE
5
156
100
AcDbEntity
8
0
100
AcDbPolyline
90
4
70
1
43
0.0
10
14.000000000000002
20
-56.631578947368446
10
14.000000000000002
20
-61.631578947368446
10
9.0000000000000018
20
-61.631578947368446
10
9.0000000000000018
20
-56.631578947368446
0
LWPOLYLINE
5
157
100
AcDbEntity
8
0
100
AcDbPolyline
90
4
70
1
43
0.0
10
27
20
-56.631578947368446
10
27
20
-61.631578947368446
10
22
20
-61.631578947368446
10
22
20
-56.631578947368446
0
LWPOLYLINE
5
158
100
AcDbEntity
8
0
100
AcDbPolyline
90
4
70
1
43
0.0
10
40.000000000000007
20
-56.631578947368446
10
40.000000000000007
20
-61.631578947368446
10
35.000000000000007
20
-61.631578947368446
10
35.000000000000007
20
-56.631578947368446
0
LWPOLYLINE
5
159
100
AcDbEntity
8
0
100
AcDbPolyline
90
4
70
1
43
0.0
10
14.000000000000002
20
-45.421052631578966
10
14.000000000000002
20
-50.421052631578966
10
9.0000000000000018
20
-50.421052631578966
10
9.0000000000000018
20
-45.421052631578966
0
LWPOLYLINE
5
160
100
AcDbEntity
8
0
100
AcDbPolyline
90
4
70
1
43
0.0
10
27
20
-45.421052631578966
10
27
20
-50.421052631578966
10
22
20
-50.421052631578966
10
22
20
-45.421052631578966
0
LWPOLYLINE
5
161
100
AcDbEntity
8
0
100
AcDbPolyline
90
4
70
1
43
0.0
10
40.000000000000007
20
-45.421052631578966
10
40.000000000000007
20
-50.421052631578966
10
35.000000000000007
20
-50.421052631578966
10
35.000000000000007
20
-45.421052631578966
0
LWPOLYLINE
5
162
100
AcDbEntity
8
0
100
AcDbPolyline
90
4
70
1
43
0.0
10
14.000000000000002
20
-34.210526315789487
10
14.000000000000002
20
-39.210526315789487
10
9.0000000000000018
20
-39.210526315789487
10
9.0000000000000018
20
-34.210526315789487
0
LWPOLYLINE
5
163
100
AcDbEntity
8
0
100
AcDbPolyline
90
4
70
1
43
0.0
10
27
20
-34.210526315789487
10
27
20
-39.210526315789487
10
22
20
-39.210526315789487
10
22
20
-34.210526315789487
0
LWPOLYLINE
5
164
100
AcDbEntity
8
0
100
AcDbPolyline
90
4
70
1
43
0.0
10
40.000000000000007
20
-34.210526315789487
10
40.000000000000007
20
-39.210526315789487
10
35.000000000000007
20
-39.210526315789487
10
35.000000000000007
20
-34.210526315789487
0
LWPOLYLINE
5
165
100
AcDbEntity
8
0
100
AcDbPolyline
90
4
70
1
43
0.0
10
14.000000000000002
20
-23.000000000000043
10
14.000000000000002
20
-28.000000000000043
10
9.0000000000000018
20
-28.000000000000043
10
9.0000000000000018
20
-23.000000000000043
0
LWPOLYLINE
5
166
100
AcDbEntity
8
0
100
AcDbPolyline
90
4
70
1
43
0.0
10
27
20
-23.000000000000043
10
27
20
-28.000000000000043
10
22
20
-28.000000000000043
10
22
20
-23.000000000000043
0
LWPOLYLINE
5
167
100
AcDbEntity
8
0
100
AcDbPolyline
90
4
70
1
43
0.0
10
40.000000000000007
20
-23.000000000000043
10
40.000000000000007
20
-28.000000000000043
10
35.000000000000007
20
-28.000000000000043
10
35.000000000000007
20
-23.000000000000043
0
ENDSEC
0
SECTION
2
OBJECTS
0
DICTIONARY
5
C
100
AcDbDictionary
3
ACAD_GROUP
350
D
3
ACAD_MLINESTYLE
350
17
0
DICTIONARY
5
D
100
AcDbDictionary
0
DICTIONARY
5
1A
330
C
100
AcDbDictionary
0
DICTIONARY
5
17
100
AcDbDictionary
0
ENDSEC
0
EOF
