0
SECTION
2
HEADER
9
$INSUNITS
70
4
9
$ACADVER
1
AC1014
9
$HANDSEED
5
FFFF
0
ENDSEC
0
SECTION
2
TABLES
0
TABLE
2
VPORT
5
8
100
AcDbSymbolTable
0
ENDTAB
0
TABLE
2
LTYPE
5
5
100
AcDbSymbolTable
0
LTYPE
5
14
100
AcDbSymbolTableRecord
100
AcDbLinetypeTableRecord
2
BYBLOCK
70
0
0
LTYPE
5
15
100
AcDbSymbolTableRecord
100
AcDbLinetypeTableRecord
2
BYLAYER
70
0
0
ENDTAB
0
TABLE
2
LAYER
5
2
100
AcDbSymbolTable
70
2
0
LAYER
5
50
100
AcDbSymbolTableRecord
100
AcDbLayerTableRecord
2
0
70
0
6
CONTINUOUS
0
ENDTAB
0
TABLE
2
STYLE
5
3
100
AcDbSymbolTable
70
1
0
STYLE
5
11
100
AcDbSymbolTableRecord
100
AcDbTextStyleTableRecord
2
STANDARD
70
0
0
ENDTAB
0
TABLE
2
VIEW
5
6
100
AcDbSymbolTable
70
0
0
ENDTAB
0
TABLE
2
UCS
5
7
100
AcDbSymbolTable
70
0
0
ENDTAB
0
TABLE
2
APPID
5
9
100
AcDbSymbolTable
70
2
0
APPID
5
12
100
AcDbSymbolTableRecord
100
AcDbRegAppTableRecord
2
ACAD
70
0
0
ENDTAB
0
TABLE
2
DIMSTYLE
5
A
100
AcDbSymbolTable
70
1
0
ENDTAB
0
TABLE
2
BLOCK_RECORD
5
1
100
AcDbSymbolTable
70
1
0
BLOCK_RECORD
5
1F
100
AcDbSymbolTableRecord
100
AcDbBlockTableRecord
2
*MODEL_SPACE
0
BLOCK_RECORD
5
1B
100
AcDbSymbolTableRecord
100
AcDbBlockTableRecord
2
*PAPER_SPACE
0
ENDTAB
0
ENDSEC
0
SECTION
2
BLOCKS
0
BLOCK
5
20
100
AcDbEntity
100
AcDbBlockBegin
2
*MODEL_SPACE
0
ENDBLK
5
21
100
AcDbEntity
100
AcDbBlockEnd
0
BLOCK
5
1C
100
AcDbEntity
100
AcDbBlockBegin
2
*PAPER_SPACE
0
ENDBLK
5
1D
100
AcDbEntity
100
AcDbBlockEnd
0
ENDSEC
0
SECTION
2
ENTITIES
0
LINE
5
100
100
AcDbEntity
8
0
100
AcDbLine
10
0
20
0
30
0
11
40
21
0
31
0
0
LINE
5
101
100
AcDbEntity
8
0
100
AcDbLine
10
43.999999999999986
20
-24.000000000000004
30
0
11
44
21
-300
31
0
0
LINE
5
102
100
AcDbEntity
8
0
100
AcDbLine
10
44
20
-300
30
0
11
9.8607613152626476e-31
21
-300
31
0
0
LINE
5
103
100
AcDbEntity
8
0
100
AcDbLine
10
9.8607613152626476e-31
20
-300
30
0
11
0
21
0
31
0
0
LWPOLYLINE
5
104
100
AcDbEntity
8
0
100
AcDbPolyline
90
4
70
1
43
0.0
10
6.0000000000000009
20
0
10
0
20
0
10
0
20
-24.000000000000004
10
6.0000000000000009
20
-24.000000000000004
0
LINE
5
105
100
AcDbEntity
8
0
100
AcDbLine
10
43.999999999999986
20
-24.000000000000004
30
0
11
49.999999999999993
21
-24.000000000000004
31
0
0
LINE
5
106
100
AcDbEntity
8
0
100
AcDbLine
10
49.999999999999993
20
-24.000000000000004
30
0
11
49.999999999999993
21
0
31
0
0
LINE
5
107
100
AcDbEntity
8
0
100
AcDbLine
10
49.999999999999993
20
0
30
0
11
33.64319089791838
21
0
31
0
0
LWPOLYLINE
5
108
100
AcDbEntity
8
0
100
AcDbPolyline
90
4
70
1
43
0.0
10
14.000000000000002
20
-291
10
9.0000000000000018
20
-291
10
9.0000000000000018
20
-286
10
14.000000000000002
20
-286
0
LWPOLYLINE
5
109
100
AcDbEntity
8
0
100
AcDbPolyline
90
4
70
1
43
0.0
10
27.000000000000007
20
-286
10
27.000000000000007
20
-291
10
22
20
-291
10
22
20
-286
0
LWPOLYLINE
5
110
100
AcDbEntity
8
0
100
AcDbPolyline
90
4
70
1
43
0.0
10
14.000000000000002
20
-274.56521739130437
10
14.000000000000002
20
-279.56521739130437
10
9.0000000000000018
20
-279.56521739130437
10
9.0000000000000018
20
-274.56521739130437
0
LWPOLYLINE
5
111
100
AcDbEntity
8
0
100
AcDbPolyline
90
4
70
1
43
0.0
10
27.000000000000007
20
-274.56521739130437
10
27.000000000000007
20
-279.56521739130437
10
22
20
-279.56521739130437
10
22
20
-274.56521739130437
0
LWPOLYLINE
5
112
100
AcDbEntity
8
0
100
AcDbPolyline
90
4
70
1
43
0.0
10
14.000000000000002
20
-263.13043478260869
10
14.000000000000002
20
-268.13043478260869
10
9.0000000000000018
20
-268.13043478260869
10
9.0000000000000018
20
-263.13043478260869
0
LWPOLYLINE
5
113
100
AcDbEntity
8
0
100
AcDbPolyline
90
4
70
1
43
0.0
10
27.000000000000007
20
-263.13043478260869
10
27.000000000000007
20
-268.13043478260869
10
22
20
-268.13043478260869
10
22
20
-263.13043478260869
0
LWPOLYLINE
5
114
100
AcDbEntity
8
0
100
AcDbPolyline
90
4
70
1
43
0.0
10
14.000000000000002
20
-251.69565217391306
10
14.000000000000002
20
-256.69565217391306
10
9.0000000000000018
20
-256.69565217391306
10
9.0000000000000018
20
-251.69565217391306
0
LWPOLYLINE
5
115
100
AcDbEntity
8
0
100
AcDbPolyline
90
4
70
1
43
0.0
10
27.000000000000007
20
-251.69565217391306
10
27.000000000000007
20
-256.69565217391306
10
22
20
-256.69565217391306
10
22
20
-251.69565217391306
0
LWPOLYLINE
5
116
100
AcDbEntity
8
0
100
AcDbPolyline
90
4
70
1
43
0.0
10
14.000000000000002
20
-240.2608695652174
10
14.000000000000002
20
-245.2608695652174
10
9.0000000000000018
20
-245.2608695652174
10
9.0000000000000018
20
-240.2608695652174
0
LWPOLYLINE
5
117
100
AcDbEntity
8
0
100
AcDbPolyline
90
4
70
1
43
0.0
10
27.000000000000007
20
-240.2608695652174
10
27.000000000000007
20
-245.2608695652174
10
22
20
-245.2608695652174
10
22
20
-240.2608695652174
0
LWPOLYLINE
5
118
100
AcDbEntity
8
0
100
AcDbPolyline
90
4
70
1
43
0.0
10
14.000000000000002
20
-228.82608695652175
10
14.000000000000002
20
-233.82608695652175
10
9.0000000000000018
20
-233.82608695652175
10
9.0000000000000018
20
-228.82608695652175
0
LWPOLYLINE
5
119
100
AcDbEntity
8
0
100
AcDbPolyline
90
4
70
1
43
0.0
10
27.000000000000007
20
-228.82608695652175
10
27.000000000000007
20
-233.82608695652175
10
22
20
-233.82608695652175
10
22
20
-228.82608695652175
0
LWPOLYLINE
5
120
100
AcDbEntity
8
0
100
AcDbPolyline
90
4
70
1
43
0.0
10
14.000000000000002
20
-217.39130434782609
10
14.000000000000002
20
-222.39130434782609
10
9.0000000000000018
20
-222.39130434782609
10
9.0000000000000018
20
-217.39130434782609
0
LWPOLYLINE
5
121
100
AcDbEntity
8
0
100
AcDbPolyline
90
4
70
1
43
0.0
10
27.000000000000007
20
-217.39130434782609
10
27.000000000000007
20
-222.39130434782609
10
22
20
-222.39130434782609
10
22
20
-217.39130434782609
0
LWPOLYLINE
5
122
100
AcDbEntity
8
0
100
AcDbPolyline
90
4
70
1
43
0.0
10
14.000000000000002
20
-205.95652173913044
10
14.000000000000002
20
-210.95652173913044
10
9.0000000000000018
20
-210.95652173913044
10
9.0000000000000018
20
-205.95652173913044
0
LWPOLYLINE
5
123
100
AcDbEntity
8
0
100
AcDbPolyline
90
4
70
1
43
0.0
10
27.000000000000007
20
-205.95652173913044
10
27.000000000000007
20
-210.95652173913044
10
22
20
-210.95652173913044
10
22
20
-205.95652173913044
0
LWPOLYLINE
5
124
100
AcDbEntity
8
0
100
AcDbPolyline
90
4
70
1
43
0.0
10
14.000000000000002
20
-194.52173913043481
10
14.000000000000002
20
-199.52173913043481
10
9.0000000000000018
20
-199.52173913043481
10
9.0000000000000018
20
-194.52173913043481
0
LWPOLYLINE
5
125
100
AcDbEntity
8
0
100
AcDbPolyline
90
4
70
1
43
0.0
10
27.000000000000007
20
-194.52173913043481
10
27.000000000000007
20
-199.52173913043481
10
22
20
-199.52173913043481
10
22
20
-194.52173913043481
0
LWPOLYLINE
5
126
100
AcDbEntity
8
0
100
AcDbPolyline
90
4
70
1
43
0.0
10
14.000000000000002
20
-183.08695652173913
10
14.000000000000002
20
-188.08695652173913
10
9.0000000000000018
20
-188.08695652173913
10
9.0000000000000018
20
-183.08695652173913
0
LWPOLYLINE
5
127
100
AcDbEntity
8
0
100
AcDbPolyline
90
4
70
1
43
0.0
10
27.000000000000007
20
-183.08695652173913
10
27.000000000000007
20
-188.08695652173913
10
22
20
-188.08695652173913
10
22
20
-183.08695652173913
0
LWPOLYLINE
5
128
100
AcDbEntity
8
0
100
AcDbPolyline
90
4
70
1
43
0.0
10
14.000000000000002
20
-171.6521739130435
10
14.000000000000002
20
-176.6521739130435
10
9.0000000000000018
20
-176.6521739130435
10
9.0000000000000018
20
-171.6521739130435
0
LWPOLYLINE
5
129
100
AcDbEntity
8
0
100
AcDbPolyline
90
4
70
1
43
0.0
10
27.000000000000007
20
-171.6521739130435
10
27.000000000000007
20
-176.6521739130435
10
22
20
-176.6521739130435
10
22
20
-171.6521739130435
0
LWPOLYLINE
5
130
100
AcDbEntity
8
0
100
AcDbPolyline
90
4
70
1
43
0.0
10
14.000000000000002
20
-160.21739130434781
10
14.000000000000002
20
-165.21739130434781
10
9.0000000000000018
20
-165.21739130434781
10
9.0000000000000018
20
-160.21739130434781
0
LWPOLYLINE
5
131
100
AcDbEntity
8
0
100
AcDbPolyline
90
4
70
1
43
0.0
10
27.000000000000007
20
-160.21739130434781
10
27.000000000000007
20
-165.21739130434781
10
22
20
-165.21739130434781
10
22
20
-160.21739130434781
0
LWPOLYLINE
5
132
100
AcDbEntity
8
0
100
AcDbPolyline
90
4
70
1
43
0.0
10
40
20
-286
10
40
20
-291
10
35.000000000000007
20
-291
10
35.000000000000007
20
-286
0
LWPOLYLINE
5
133
100
AcDbEntity
8
0
100
AcDbPolyline
90
4
70
1
43
0.0
10
40
20
-274.56521739130437
10
40
20
-279.56521739130437
10
35.000000000000007
20
-279.56521739130437
10
35.000000000000007
20
-274.56521739130437
0
LWPOLYLINE
5
134
100
AcDbEntity
8
0
100
AcDbPolyline
90
4
70
1
43
0.0
10
40
20
-263.13043478260869
10
40
20
-268.13043478260869
10
35.000000000000007
20
-268.13043478260869
10
35.000000000000007
20
-263.13043478260869
0
LWPOLYLINE
5
135
100
AcDbEntity
8
0
100
AcDbPolyline
90
4
70
1
43
0.0
10
40
20
-251.69565217391306
10
40
20
-256.69565217391306
10
35.000000000000007
20
-256.69565217391306
10
35.000000000000007
20
-251.69565217391306
0
LWPOLYLINE
5
136
100
AcDbEntity
8
0
100
AcDbPolyline
90
4
70
1
43
0.0
10
40
20
-240.2608695652174
10
40
20
-245.2608695652174
10
35.000000000000007
20
-245.2608695652174
10
35.000000000000007
20
-240.2608695652174
0
LWPOLYLINE
5
137
100
AcDbEntity
8
0
100
AcDbPolyline
90
4
70
1
43
0.0
10
40
20
-228.82608695652175
10
40
20
-233.82608695652175
10
35.000000000000007
20
-233.82608695652175
10
35.000000000000007
20
-228.82608695652175
0
LWPOLYLINE
5
138
100
AcDbEntity
8
0
100
AcDbPolyline
90
4
70
1
43
0.0
10
40
20
-217.39130434782609
10
40
20
-222.39130434782609
10
35.000000000000007
20
-222.39130434782609
10
35.000000000000007
20
-217.39130434782609
0
LWPOLYLINE
5
139
100
AcDbEntity
8
0
100
AcDbPolyline
90
4
70
1
43
0.0
10
40
20
-205.95652173913044
10
40
20
-210.95652173913044
10
35.000000000000007
20
-210.95652173913044
10
35.000000000000007
20
-205.95652173913044
0
LWPOLYLINE
5
140
100
AcDbEntity
8
0
100
AcDbPolyline
90
4
70
1
43
0.0
10
40
20
-194.52173913043481
10
40
20
-199.52173913043481
10
35.000000000000007
20
-199.52173913043481
10
35.000000000000007
20
-194.52173913043481
0
LWPOLYLINE
5
141
100
AcDbEntity
8
0
100
AcDbPolyline
90
4
70
1
43
0.0
10
40
20
-183.08695652173913
10
40
20
-188.08695652173913
10
35.000000000000007
20
-188.08695652173913
10
35.000000000000007
20
-183.08695652173913
0
LWPOLYLINE
5
142
100
AcDbEntity
8
0
100
AcDbPolyline
90
4
70
1
43
0.0
10
40
20
-171.6521739130435
10
40
20
-176.6521739130435
10
35.000000000000007
20
-176.6521739130435
10
35.000000000000007
20
-171.6521739130435
0
LWPOLYLINE
5
143
100
AcDbEntity
8
0
100
AcDbPolyline
90
4
70
1
43
0.0
10
40
20
-160.21739130434781
10
40
20
-165.21739130434781
10
35.000000000000007
20
-165.21739130434781
10
35.000000000000007
20
-160.21739130434781
0
LWPOLYLINE
5
144
100
AcDbEntity
8
0
100
AcDbPolyline
90
4
70
1
43
0.0
10
14.000000000000002
20
-148.78260869565219
10
14.000000000000002
20
-153.78260869565219
10
9.0000000000000018
20
-153.78260869565219
10
9.0000000000000018
20
-148.78260869565219
0
LWPOLYLINE
5
145
100
AcDbEntity
8
0
100
AcDbPolyline
90
4
70
1
43
0.0
10
27.000000000000007
20
-148.78260869565219
10
27.000000000000007
20
-153.78260869565219
10
22
20
-153.78260869565219
10
22
20
-148.78260869565219
0
LWPOLYLINE
5
146
100
AcDbEntity
8
0
100
AcDbPolyline
90
4
70
1
43
0.0
10
40
20
-148.78260869565219
10
40
20
-153.78260869565219
10
35.000000000000007
20
-153.78260869565219
10
35.000000000000007
20
-148.78260869565219
0
LWPOLYLINE
5
147
100
AcDbEntity
8
0
100
AcDbPolyline
90
4
70
1
43
0.0
10
14.000000000000002
20
-137.34782608695653
10
14.000000000000002
20
-142.34782608695653
10
9.0000000000000018
20
-142.34782608695653
10
9.0000000000000018
20
-137.34782608695653
0
LWPOLYLINE
5
148
100
AcDbEntity
8
0
100
AcDbPolyline
90
4
70
1
43
0.0
10
27.000000000000007
20
-137.34782608695653
10
27.000000000000007
20
-142.34782608695653
10
22
20
-142.34782608695653
10
22
20
-137.34782608695653
0
LWPOLYLINE
5
149
100
AcDbEntity
8
0
100
AcDbPolyline
90
4
70
1
43
0.0
10
40
20
-137.34782608695653
10
40
20
-142.34782608695653
10
35.000000000000007
20
-142.34782608695653
10
35.000000000000007
20
-137.34782608695653
0
LWPOLYLINE
5
150
100
AcDbEntity
8
0
100
AcDbPolyline
90
4
70
1
43
0.0
10
14.000000000000002
20
-125.91304347826089
10
14.000000000000002
20
-130.91304347826087
10
9.0000000000000018
20
-130.91304347826087
10
9.0000000000000018
20
-125.91304347826089
0
LWPOLYLINE
5
151
100
AcDbEntity
8
0
100
AcDbPolyline
90
4
70
1
43
0.0
10
27.000000000000007
20
-125.91304347826089
10
27.000000000000007
20
-130.91304347826087
10
22
20
-130.91304347826087
10
22
20
-125.91304347826089
0
LWPOLYLINE
5
152
100
AcDbEntity
8
0
100
AcDbPolyline
90
4
70
1
43
0.0
10
40
20
-125.91304347826089
10
40
20
-130.91304347826087
10
35.000000000000007
20
-130.91304347826087
10
35.000000000000007
20
-125.91304347826089
0
LWPOLYLINE
5
153
100
AcDbEntity
8
0
100
AcDbPolyline
90
4
70
1
43
0.0
10
14.000000000000002
20
-114.47826086956522
10
14.000000000000002
20
-119.47826086956522
10
9.0000000000000018
20
-119.47826086956522
10
9.0000000000000018
20
-114.47826086956522
0
LWPOLYLINE
5
154
100
AcDbEntity
8
0
100
AcDbPolyline
90
4
70
1
43
0.0
10
27.000000000000007
20
-114.47826086956522
10
27.000000000000007
20
-119.47826086956522
10
22
20
-119.47826086956522
10
22
20
-114.47826086956522
0
LWPOLYLINE
5
155
100
AcDbEntity
8
0
100
AcDbPolyline
90
4
70
1
43
0.0
10
40
20
-114.47826086956522
10
40
20
-119.47826086956522
10
35.000000000000007
20
-119.47826086956522
10
35.000000000000007
20
-114.47826086956522
0
LWPOLYLINE
5
156
100
AcDbEntity
8
0
100
AcDbPolyline
90
4
70
1
43
0.0
10
14.000000000000002
20
-103.04347826086956
10
14.000000000000002
20
-108.04347826086956
10
9.0000000000000018
20
-108.04347826086956
10
9.0000000000000018
20
-103.04347826086956
0
LWPOLYLINE
5
157
100
AcDbEntity
8
0
100
AcDbPolyline
90
4
70
1
43
0.0
10
27.000000000000007
20
-103.04347826086956
10
27.000000000000007
20
-108.04347826086956
10
22
20
-108.04347826086956
10
22
20
-103.04347826086956
0
LWPOLYLINE
5
158
100
AcDbEntity
8
0
100
AcDbPolyline
90
4
70
1
43
0.0
10
40
20
-103.04347826086956
10
40
20
-108.04347826086956
10
35.000000000000007
20
-108.04347826086956
10
35.000000000000007
20
-103.04347826086956
0
LWPOLYLINE
5
159
100
AcDbEntity
8
0
100
AcDbPolyline
90
4
70
1
43
0.0
10
14.000000000000002
20
-91.608695652173935
10
14.000000000000002
20
-96.608695652173935
10
9.0000000000000018
20
-96.608695652173935
10
9.0000000000000018
20
-91.608695652173935
0
LWPOLYLINE
5
160
100
AcDbEntity
8
0
100
AcDbPolyline
90
4
70
1
43
0.0
10
27.000000000000007
20
-91.608695652173935
10
27.000000000000007
20
-96.608695652173935
10
22
20
-96.608695652173935
10
22
20
-91.608695652173935
0
LWPOLYLINE
5
161
100
AcDbEntity
8
0
100
AcDbPolyline
90
4
70
1
43
0.0
10
40
20
-91.608695652173935
10
40
20
-96.608695652173935
10
35.000000000000007
20
-96.608695652173935
10
35.000000000000007
20
-91.608695652173935
0
LWPOLYLINE
5
162
100
AcDbEntity
8
0
100
AcDbPolyline
90
4
70
1
43
0.0
10
14.000000000000002
20
-80.173913043478251
10
14.000000000000002
20
-85.173913043478251
10
9.0000000000000018
20
-85.173913043478251
10
9.0000000000000018
20
-80.173913043478251
0
LWPOLYLINE
5
163
100
AcDbEntity
8
0
100
AcDbPolyline
90
4
70
1
43
0.0
10
27.000000000000007
20
-80.173913043478251
10
27.000000000000007
20
-85.173913043478251
10
22
20
-85.173913043478251
10
22
20
-80.173913043478251
0
LWPOLYLINE
5
164
100
AcDbEntity
8
0
100
AcDbPolyline
90
4
70
1
43
0.0
10
40
20
-80.173913043478251
10
40
20
-85.173913043478251
10
35.000000000000007
20
-85.173913043478251
10
35.000000000000007
20
-80.173913043478251
0
LWPOLYLINE
5
165
100
AcDbEntity
8
0
100
AcDbPolyline
90
4
70
1
43
0.0
10
14.000000000000002
20
-68.739130434782609
10
14.000000000000002
20
-73.739130434782609
10
9.0000000000000018
20
-73.739130434782609
10
9.0000000000000018
20
-68.739130434782609
0
LWPOLYLINE
5
166
100
AcDbEntity
8
0
100
AcDbPolyline
90
4
70
1
43
0.0
10
27.000000000000007
20
-68.739130434782609
10
27.000000000000007
20
-73.739130434782609
10
22
20
-73.739130434782609
10
22
20
-68.739130434782609
0
LWPOLYLINE
5
167
100
AcDbEntity
8
0
100
AcDbPolyline
90
4
70
1
43
0.0
10
40
20
-68.739130434782609
10
40
20
-73.739130434782609
10
35.000000000000007
20
-73.739130434782609
10
35.000000000000007
20
-68.739130434782609
0
LWPOLYLINE
5
168
100
AcDbEntity
8
0
100
AcDbPolyline
90
4
70
1
43
0.0
10
14.000000000000002
20
-57.304347826086968
10
14.000000000000002
20
-62.304347826086968
10
9.0000000000000018
20
-62.304347826086968
10
9.0000000000000018
20
-57.304347826086968
0
LWPOLYLINE
5
169
100
AcDbEntity
8
0
100
AcDbPolyline
90
4
70
1
43
0.0
10
27.000000000000007
20
-57.304347826086968
10
27.000000000000007
20
-62.304347826086968
10
22
20
-62.304347826086968
10
22
20
-57.304347826086968
0
LWPOLYLINE
5
170
100
AcDbEntity
8
0
100
AcDbPolyline
90
4
70
1
43
0.0
10
40
20
-57.304347826086968
10
40
20
-62.304347826086968
10
35.000000000000007
20
-62.304347826086968
10
35.000000000000007
20
-57.304347826086968
0
LWPOLYLINE
5
171
100
AcDbEntity
8
0
100
AcDbPolyline
90
4
70
1
43
0.0
10
14.000000000000002
20
-45.86956521739129
10
14.000000000000002
20
-50.86956521739129
10
9.0000000000000018
20
-50.86956521739129
10
9.0000000000000018
20
-45.86956521739129
0
LWPOLYLINE
5
172
100
AcDbEntity
8
0
100
AcDbPolyline
90
4
70
1
43
0.0
10
27.000000000000007
20
-45.86956521739129
10
27.000000000000007
20
-50.86956521739129
10
22
20
-50.86956521739129
10
22
20
-45.86956521739129
0
LWPOLYLINE
5
173
100
AcDbEntity
8
0
100
AcDbPolyline
90
4
70
1
43
0.0
10
40
20
-45.86956521739129
10
40
20
-50.86956521739129
10
35.000000000000007
20
-50.86956521739129
10
35.000000000000007
20
-45.86956521739129
0
LWPOLYLINE
5
174
100
AcDbEntity
8
0
100
AcDbPolyline
90
4
70
1
43
0.0
10
14.000000000000002
20
-34.434782608695649
10
14.000000000000002
20
-39.434782608695649
10
9.0000000000000018
20
-39.434782608695649
10
9.0000000000000018
20
-34.434782608695649
0
LWPOLYLINE
5
175
100
AcDbEntity
8
0
100
AcDbPolyline
90
4
70
1
43
0.0
10
27.000000000000007
20
-34.434782608695649
10
27.000000000000007
20
-39.434782608695649
10
22
20
-39.434782608695649
10
22
20
-34.434782608695649
0
LWPOLYLINE
5
176
100
AcDbEntity
8
0
100
AcDbPolyline
90
4
70
1
43
0.0
10
40
20
-34.434782608695649
10
40
20
-39.434782608695649
10
35.000000000000007
20
-39.434782608695649
10
35.000000000000007
20
-34.434782608695649
0
LWPOLYLINE
5
177
100
AcDbEntity
8
0
100
AcDbPolyline
90
4
70
1
43
0.0
10
14.000000000000002
20
-23.000000000000007
10
14.000000000000002
20
-28.000000000000007
10
9.0000000000000018
20
-28.000000000000007
10
9.0000000000000018
20
-23.000000000000007
0
LWPOLYLINE
5
178
100
AcDbEntity
8
0
100
AcDbPolyline
90
4
70
1
43
0.0
10
27.000000000000007
20
-23.000000000000007
10
27.000000000000007
20
-28.000000000000007
10
22
20
-28.000000000000007
10
22
20
-23.000000000000007
0
LWPOLYLINE
5
179
100
AcDbEntity
8
0
100
AcDbPolyline
90
4
70
1
43
0.0
10
40
20
-23.000000000000007
10
40
20
-28.000000000000007
10
35.000000000000007
20
-28.000000000000007
10
35.000000000000007
20
-23.000000000000007
0
ENDSEC
0
SECTION
2
OBJECTS
0
DICTIONARY
5
C
100
AcDbDictionary
3
ACAD_GROUP
350
D
3
ACAD_MLINESTYLE
350
17
0
DICTIONARY
5
D
100
AcDbDictionary
0
DICTIONARY
5
1A
330
C
100
AcDbDictionary
0
DICTIONARY
5
17
100
AcDbDictionary
0
ENDSEC
0
EOF
