0
SECTION
2
HEADER
9
$INSUNITS
70
4
9
$ACADVER
1
AC1014
9
$HANDSEED
5
FFFF
0
ENDSEC
0
SECTION
2
TABLES
0
TABLE
2
VPORT
5
8
100
AcDbSymbolTable
0
ENDTAB
0
TABLE
2
LTYPE
5
5
100
AcDbSymbolTable
0
LTYPE
5
14
100
AcDbSymbolTableRecord
100
AcDbLinetypeTableRecord
2
BYBLOCK
70
0
0
LTYPE
5
15
100
AcDbSymbolTableRecord
100
AcDbLinetypeTableRecord
2
BYLAYER
70
0
0
ENDTAB
0
TABLE
2
LAYER
5
2
100
AcDbSymbolTable
70
2
0
LAYER
5
50
100
AcDbSymbolTableRecord
100
AcDbLayerTableRecord
2
0
70
0
6
CONTINUOUS
0
ENDTAB
0
TABLE
2
STYLE
5
3
100
AcDbSymbolTable
70
1
0
STYLE
5
11
100
AcDbSymbolTableRecord
100
AcDbTextStyleTableRecord
2
STANDARD
70
0
0
ENDTAB
0
TABLE
2
VIEW
5
6
100
AcDbSymbolTable
70
0
0
ENDTAB
0
TABLE
2
UCS
5
7
100
AcDbSymbolTable
70
0
0
ENDTAB
0
TABLE
2
APPID
5
9
100
AcDbSymbolTable
70
2
0
APPID
5
12
100
AcDbSymbolTableRecord
100
AcDbRegAppTableRecord
2
ACAD
70
0
0
ENDTAB
0
TABLE
2
DIMSTYLE
5
A
100
AcDbSymbolTable
70
1
0
ENDTAB
0
TABLE
2
BLOCK_RECORD
5
1
100
AcDbSymbolTable
70
1
0
BLOCK_RECORD
5
1F
100
AcDbSymbolTableRecord
100
AcDbBlockTableRecord
2
*MODEL_SPACE
0
BLOCK_RECORD
5
1B
100
AcDbSymbolTableRecord
100
AcDbBlockTableRecord
2
*PAPER_SPACE
0
ENDTAB
0
ENDSEC
0
SECTION
2
BLOCKS
0
BLOCK
5
20
100
AcDbEntity
100
AcDbBlockBegin
2
*MODEL_SPACE
0
ENDBLK
5
21
100
AcDbEntity
100
AcDbBlockEnd
0
BLOCK
5
1C
100
AcDbEntity
100
AcDbBlockBegin
2
*PAPER_SPACE
0
ENDBLK
5
1D
100
AcDbEntity
100
AcDbBlockEnd
0
ENDSEC
0
SECTION
2
ENTITIES
0
LINE
5
100
100
AcDbEntity
8
0
100
AcDbLine
10
0
20
0
30
0
11
40
21
0
31
0
0
LINE
5
101
100
AcDbEntity
8
0
100
AcDbLine
10
43.999999999999986
20
-24.000000000000004
30
0
11
44.000000000000014
21
-200
31
0
0
LINE
5
102
100
AcDbEntity
8
0
100
AcDbLine
10
44.000000000000014
20
-200
30
0
11
0
21
-200
31
0
0
LINE
5
103
100
AcDbEntity
8
0
100
AcDbLine
10
0
20
-200
30
0
11
0
21
0
31
0
0
LWPOLYLINE
5
104
100
AcDbEntity
8
0
100
AcDbPolyline
90
4
70
1
43
0.0
10
6.0000000000000009
20
0
10
0
20
0
10
0
20
-24.000000000000004
10
6.0000000000000009
20
-24.000000000000004
0
LINE
5
105
100
AcDbEntity
8
0
100
AcDbLine
10
43.999999999999986
20
-24.000000000000004
30
0
11
49.999999999999993
21
-24.000000000000004
31
0
0
LINE
5
106
100
AcDbEntity
8
0
100
AcDbLine
10
49.999999999999993
20
-24.000000000000004
30
0
11
49.999999999999993
21
0
31
0
0
LINE
5
107
100
AcDbEntity
8
0
100
AcDbLine
10
49.999999999999993
20
0
30
0
11
33.64319089791838
21
0
31
0
0
LWPOLYLINE
5
108
100
AcDbEntity
8
0
100
AcDbPolyline
90
4
70
1
43
0.0
10
14.000000000000002
20
-191
10
9.0000000000000018
20
-191
10
9.0000000000000018
20
-186
10
14.000000000000002
20
-186
0
LWPOLYLINE
5
109
100
AcDbEntity
8
0
100
AcDbPolyline
90
4
70
1
43
0.0
10
27
20
-186
10
27
20
-191
10
22
20
-191
10
22
20
-186
0
LWPOLYLINE
5
110
100
AcDbEntity
8
0
100
AcDbPolyline
90
4
70
1
43
0.0
10
14.000000000000002
20
-173.46153846153845
10
14.000000000000002
20
-178.46153846153845
10
9.0000000000000018
20
-178.46153846153845
10
9.0000000000000018
20
-173.46153846153845
0
LWPOLYLINE
5
111
100
AcDbEntity
8
0
100
AcDbPolyline
90
4
70
1
43
0.0
10
27
20
-173.46153846153845
10
27
20
-178.46153846153845
10
22
20
-178.46153846153845
10
22
20
-173.46153846153845
0
LWPOLYLINE
5
112
100
AcDbEntity
8
0
100
AcDbPolyline
90
4
70
1
43
0.0
10
14.000000000000002
20
-160.92307692307691
10
14.000000000000002
20
-165.92307692307691
10
9.0000000000000018
20
-165.92307692307691
10
9.0000000000000018
20
-160.92307692307691
0
LWPOLYLINE
5
113
100
AcDbEntity
8
0
100
AcDbPolyline
90
4
70
1
43
0.0
10
27
20
-160.92307692307691
10
27
20
-165.92307692307691
10
22
20
-165.92307692307691
10
22
20
-160.92307692307691
0
LWPOLYLINE
5
114
100
AcDbEntity
8
0
100
AcDbPolyline
90
4
70
1
43
0.0
10
14.000000000000002
20
-148.38461538461542
10
14.000000000000002
20
-153.38461538461542
10
9.0000000000000018
20
-153.38461538461542
10
9.0000000000000018
20
-148.38461538461542
0
LWPOLYLINE
5
115
100
AcDbEntity
8
0
100
AcDbPolyline
90
4
70
1
43
0.0
10
27
20
-148.38461538461542
10
27
20
-153.38461538461542
10
22
20
-153.38461538461542
10
22
20
-148.38461538461542
0
LWPOLYLINE
5
116
100
AcDbEntity
8
0
100
AcDbPolyline
90
4
70
1
43
0.0
10
14.000000000000002
20
-135.84615384615387
10
14.000000000000002
20
-140.84615384615387
10
9.0000000000000018
20
-140.84615384615387
10
9.0000000000000018
20
-135.84615384615387
0
LWPOLYLINE
5
117
100
AcDbEntity
8
0
100
AcDbPolyline
90
4
70
1
43
0.0
10
27
20
-135.84615384615387
10
27
20
-140.84615384615387
10
22
20
-140.84615384615387
10
22
20
-135.84615384615387
0
LWPOLYLINE
5
118
100
AcDbEntity
8
0
100
AcDbPolyline
90
4
70
1
43
0.0
10
14.000000000000002
20
-123.30769230769232
10
14.000000000000002
20
-128.30769230769232
10
9.0000000000000018
20
-128.30769230769232
10
9.0000000000000018
20
-123.30769230769232
0
LWPOLYLINE
5
119
100
AcDbEntity
8
0
100
AcDbPolyline
90
4
70
1
43
0.0
10
27
20
-123.30769230769232
10
27
20
-128.30769230769232
10
22
20
-128.30769230769232
10
22
20
-123.30769230769232
0
LWPOLYLINE
5
120
100
AcDbEntity
8
0
100
AcDbPolyline
90
4
70
1
43
0.0
10
14.000000000000002
20
-110.76923076923079
10
14.000000000000002
20
-115.76923076923079
10
9.0000000000000018
20
-115.76923076923079
10
9.0000000000000018
20
-110.76923076923079
0
LWPOLYLINE
5
121
100
AcDbEntity
8
0
100
AcDbPolyline
90
4
70
1
43
0.0
10
27
20
-110.76923076923079
10
27
20
-115.76923076923079
10
22
20
-115.76923076923079
10
22
20
-110.76923076923079
0
LWPOLYLINE
5
122
100
AcDbEntity
8
0
100
AcDbPolyline
90
4
70
1
43
0.0
10
40.000000000000007
20
-186
10
40.000000000000007
20
-191
10
35.000000000000007
20
-191
10
35.000000000000007
20
-186
0
LWPOLYLINE
5
123
100
AcDbEntity
8
0
100
AcDbPolyline
90
4
70
1
43
0.0
10
40.000000000000007
20
-173.46153846153845
10
40.000000000000007
20
-178.46153846153845
10
35.000000000000007
20
-178.46153846153845
10
35.000000000000007
20
-173.46153846153845
0
LWPOLYLINE
5
124
100
AcDbEntity
8
0
100
AcDbPolyline
90
4
70
1
43
0.0
10
40.000000000000007
20
-160.92307692307691
10
40.000000000000007
20
-165.92307692307691
10
35.000000000000007
20
-165.92307692307691
10
35.000000000000007
20
-160.92307692307691
0
LWPOLYLINE
5
125
100
AcDbEntity
8
0
100
AcDbPolyline
90
4
70
1
43
0.0
10
40.000000000000007
20
-148.38461538461542
10
40.000000000000007
20
-153.38461538461542
10
35.000000000000007
20
-153.38461538461542
10
35.000000000000007
20
-148.38461538461542
0
LWPOLYLINE
5
126
100
AcDbEntity
8
0
100
AcDbPolyline
90
4
70
1
43
0.0
10
40.000000000000007
20
-135.84615384615387
10
40.000000000000007
20
-140.84615384615387
10
35.000000000000007
20
-140.84615384615387
10
35.000000000000007
20
-135.84615384615387
0
LWPOLYLINE
5
127
100
AcDbEntity
8
0
100
AcDbPolyline
90
4
70
1
43
0.0
10
40.000000000000007
20
-123.30769230769232
10
40.000000000000007
20
-128.30769230769232
10
35.000000000000007
20
-128.30769230769232
10
35.000000000000007
20
-123.30769230769232
0
LWPOLYLINE
5
128
100
AcDbEntity
8
0
100
AcDbPolyline
90
4
70
1
43
0.0
10
40.000000000000007
20
-110.76923076923079
10
40.000000000000007
20
-115.76923076923079
10
35.000000000000007
20
-115.76923076923079
10
35.000000000000007
20
-110.76923076923079
0
LWPOLYLINE
5
129
100
AcDbEntity
8
0
100
AcDbPolyline
90
4
70
1
43
0.0
10
14.000000000000002
20
-98.230769230769255
10
14.000000000000002
20
-103.23076923076925
10
9.0000000000000018
20
-103.23076923076925
10
9.0000000000000018
20
-98.230769230769255
0
LWPOLYLINE
5
130
100
AcDbEntity
8
0
100
AcDbPolyline
90
4
70
1
43
0.0
10
27
20
-98.230769230769255
10
27
20
-103.23076923076925
10
22
20
-103.23076923076925
10
22
20
-98.230769230769255
0
LWPOLYLINE
5
131
100
AcDbEntity
8
0
100
AcDbPolyline
90
4
70
1
43
0.0
10
40.000000000000007
20
-98.230769230769255
10
40.000000000000007
20
-103.23076923076925
10
35.000000000000007
20
-103.23076923076925
10
35.000000000000007
20
-98.230769230769255
0
LWPOLYLINE
5
132
100
AcDbEntity
8
0
100
AcDbPolyline
90
4
70
1
43
0.0
10
14.000000000000002
20
-85.692307692307708
10
14.000000000000002
20
-90.692307692307708
10
9.0000000000000018
20
-90.692307692307708
10
9.0000000000000018
20
-85.692307692307708
0
LWPOLYLINE
5
133
100
AcDbEntity
8
0
100
AcDbPolyline
90
4
70
1
43
0.0
10
27
20
-85.692307692307708
10
27
20
-90.692307692307708
10
22
20
-90.692307692307708
10
22
20
-85.692307692307708
0
LWPOLYLINE
5
134
100
AcDbEntity
8
0
100
AcDbPolyline
90
4
70
1
43
0.0
10
40.000000000000007
20
-85.692307692307708
10
40.000000000000007
20
-90.692307692307708
10
35.000000000000007
20
-90.692307692307708
10
35.000000000000007
20
-85.692307692307708
0
LWPOLYLINE
5
135
100
AcDbEntity
8
0
100
AcDbPolyline
90
4
70
1
43
0.0
10
14.000000000000002
20
-73.15384615384616
10
14.000000000000002
20
-78.15384615384616
10
9.0000000000000018
20
-78.15384615384616
10
9.0000000000000018
20
-73.15384615384616
0
LWPOLYLINE
5
136
100
AcDbEntity
8
0
100
AcDbPolyline
90
4
70
1
43
0.0
10
27
20
-73.15384615384616
10
27
20
-78.15384615384616
10
22
20
-78.15384615384616
10
22
20
-73.15384615384616
0
LWPOLYLINE
5
137
100
AcDbEntity
8
0
100
AcDbPolyline
90
4
70
1
43
0.0
10
40.000000000000007
20
-73.15384615384616
10
40.000000000000007
20
-78.15384615384616
10
35.000000000000007
20
-78.15384615384616
10
35.000000000000007
20
-73.15384615384616
0
LWPOLYLINE
5
138
100
AcDbEntity
8
0
100
AcDbPolyline
90
4
70
1
43
0.0
10
14.000000000000002
20
-60.615384615384627
10
14.000000000000002
20
-65.615384615384627
10
9.0000000000000018
20
-65.615384615384627
10
9.0000000000000018
20
-60.615384615384627
0
LWPOLYLINE
5
139
100
AcDbEntity
8
0
100
AcDbPolyline
90
4
70
1
43
0.0
10
27
20
-60.615384615384627
10
27
20
-65.615384615384627
10
22
20
-65.615384615384627
10
22
20
-60.615384615384627
0
LWPOLYLINE
5
140
100
AcDbEntity
8
0
100
AcDbPolyline
90
4
70
1
43
0.0
10
40.000000000000007
20
-60.615384615384627
10
40.000000000000007
20
-65.615384615384627
10
35.000000000000007
20
-65.615384615384627
10
35.000000000000007
20
-60.615384615384627
0
LWPOLYLINE
5
141
100
AcDbEntity
8
0
100
AcDbPolyline
90
4
70
1
43
0.0
10
14.000000000000002
20
-48.076923076923102
10
14.000000000000002
20
-53.076923076923102
10
9.0000000000000018
20
-53.076923076923102
10
9.0000000000000018
20
-48.076923076923102
0
LWPOLYLINE
5
142
100
AcDbEntity
8
0
100
AcDbPolyline
90
4
70
1
43
0.0
10
27
20
-48.076923076923102
10
27
20
-53.076923076923102
10
22
20
-53.076923076923102
10
22
20
-48.076923076923102
0
LWPOLYLINE
5
143
100
AcDbEntity
8
0
100
AcDbPolyline
90
4
70
1
43
0.0
10
40.000000000000007
20
-48.076923076923102
10
40.000000000000007
20
-53.076923076923102
10
35.000000000000007
20
-53.076923076923102
10
35.000000000000007
20
-48.076923076923102
0
LWPOLYLINE
5
144
100
AcDbEntity
8
0
100
AcDbPolyline
90
4
70
1
43
0.0
10
14.000000000000002
20
-35.538461538461554
10
14.000000000000002
20
-40.538461538461554
10
9.0000000000000018
20
-40.538461538461554
10
9.0000000000000018
20
-35.538461538461554
0
LWPOLYLINE
5
145
100
AcDbEntity
8
0
100
AcDbPolyline
90
4
70
1
43
0.0
10
27
20
-35.538461538461554
10
27
20
-40.538461538461554
10
22
20
-40.538461538461554
10
22
20
-35.538461538461554
0
LWPOLYLINE
5
146
100
AcDbEntity
8
0
100
AcDbPolyline
90
4
70
1
43
0.0
10
40.000000000000007
20
-35.538461538461554
10
40.000000000000007
20
-40.538461538461554
10
35.000000000000007
20
-40.538461538461554
10
35.000000000000007
20
-35.538461538461554
0
LWPOLYLINE
5
147
100
AcDbEntity
8
0
100
AcDbPolyline
90
4
70
1
43
0.0
10
14.000000000000002
20
-23.000000000000007
10
14.000000000000002
20
-28.000000000000007
10
9.0000000000000018
20
-28.000000000000007
10
9.0000000000000018
20
-23.000000000000007
0
LWPOLYLINE
5
148
100
AcDbEntity
8
0
100
AcDbPolyline
90
4
70
1
43
0.0
10
27
20
-23.000000000000007
10
27
20
-28.000000000000007
10
22
20
-28.000000000000007
10
22
20
-23.000000000000007
0
LWPOLYLINE
5
149
100
AcDbEntity
8
0
100
AcDbPolyline
90
4
70
1
43
0.0
10
40.000000000000007
20
-23.000000000000007
10
40.000000000000007
20
-28.000000000000007
10
35.000000000000007
20
-28.000000000000007
10
35.000000000000007
20
-23.000000000000007
0
ENDSEC
0
SECTION
2
OBJECTS
0
DICTIONARY
5
C
100
AcDbDictionary
3
ACAD_GROUP
350
D
3
ACAD_MLINESTYLE
350
17
0
DICTIONARY
5
D
100
AcDbDictionary
0
DICTIONARY
5
1A
330
C
100
AcDbDictionary
0
DICTIONARY
5
17
100
AcDbDictionary
0
ENDSEC
0
EOF
