0
SECTION
2
HEADER
9
$INSUNITS
70
4
9
$ACADVER
1
AC1014
9
$HANDSEED
5
FFFF
0
ENDSEC
0
SECTION
2
TABLES
0
TABLE
2
VPORT
5
8
100
AcDbSymbolTable
0
ENDTAB
0
TABLE
2
LTYPE
5
5
100
AcDbSymbolTable
0
LTYPE
5
14
100
AcDbSymbolTableRecord
100
AcDbLinetypeTableRecord
2
BYBLOCK
70
0
0
LTYPE
5
15
100
AcDbSymbolTableRecord
100
AcDbLinetypeTableRecord
2
BYLAYER
70
0
0
ENDTAB
0
TABLE
2
LAYER
5
2
100
AcDbSymbolTable
70
2
0
LAYER
5
50
100
AcDbSymbolTableRecord
100
AcDbLayerTableRecord
2
0
70
0
6
CONTINUOUS
0
ENDTAB
0
TABLE
2
STYLE
5
3
100
AcDbSymbolTable
70
1
0
STYLE
5
11
100
AcDbSymbolTableRecord
100
AcDbTextStyleTableRecord
2
STANDARD
70
0
0
ENDTAB
0
TABLE
2
VIEW
5
6
100
AcDbSymbolTable
70
0
0
ENDTAB
0
TABLE
2
UCS
5
7
100
AcDbSymbolTable
70
0
0
ENDTAB
0
TABLE
2
APPID
5
9
100
AcDbSymbolTable
70
2
0
APPID
5
12
100
AcDbSymbolTableRecord
100
AcDbRegAppTableRecord
2
ACAD
70
0
0
ENDTAB
0
TABLE
2
DIMSTYLE
5
A
100
AcDbSymbolTable
70
1
0
ENDTAB
0
TABLE
2
BLOCK_RECORD
5
1
100
AcDbSymbolTable
70
1
0
BLOCK_RECORD
5
1F
100
AcDbSymbolTableRecord
100
AcDbBlockTableRecord
2
*MODEL_SPACE
0
BLOCK_RECORD
5
1B
100
AcDbSymbolTableRecord
100
AcDbBlockTableRecord
2
*PAPER_SPACE
0
ENDTAB
0
ENDSEC
0
SECTION
2
BLOCKS
0
BLOCK
5
20
100
AcDbEntity
100
AcDbBlockBegin
2
*MODEL_SPACE
0
ENDBLK
5
21
100
AcDbEntity
100
AcDbBlockEnd
0
BLOCK
5
1C
100
AcDbEntity
100
AcDbBlockBegin
2
*PAPER_SPACE
0
ENDBLK
5
1D
100
AcDbEntity
100
AcDbBlockEnd
0
ENDSEC
0
SECTION
2
ENTITIES
0
LWPOLYLINE
5
100
100
AcDbEntity
8
0
100
AcDbPolyline
90
4
70
1
43
0.0
10
209
20
-8.6281661508548166e-31
10
0
20
0
10
0
20
215.90000000000001
10
209
20
215.90000000000001
0
LINE
5
101
100
AcDbEntity
8
0
100
AcDbLine
10
50
20
215.90000000000001
30
0
11
50
21
0
31
0
0
LWPOLYLINE
5
102
100
AcDbEntity
8
0
100
AcDbPolyline
90
4
70
1
43
0.0
10
13
20
20
10
10
20
20
10
10
20
26
10
13
20
26
0
LWPOLYLINE
5
103
100
AcDbEntity
8
0
100
AcDbPolyline
90
4
70
1
43
0.0
10
19
20
26
10
22
20
26
10
22
20
20
10
19
20
20
0
LWPOLYLINE
5
104
100
AcDbEntity
8
0
100
AcDbPolyline
90
4
70
1
43
0.0
10
28
20
26
10
30.999999999999996
20
26
10
30.999999999999996
20
20
10
28
20
20
0
LWPOLYLINE
5
105
100
AcDbEntity
8
0
100
AcDbPolyline
90
4
70
1
43
0.0
10
37
20
26
10
40
20
26
10
40
20
20
10
37
20
20
0
LWPOLYLINE
5
106
100
AcDbEntity
8
0
100
AcDbPolyline
90
4
70
1
43
0.0
10
10
20
38
10
13
20
38
10
13
20
32
10
10
20
32
0
LWPOLYLINE
5
107
100
AcDbEntity
8
0
100
AcDbPolyline
90
4
70
1
43
0.0
10
19
20
38
10
22
20
38
10
22
20
32
10
19
20
32
0
LWPOLYLINE
5
108
100
AcDbEntity
8
0
100
AcDbPolyline
90
4
70
1
43
0.0
10
28
20
38
10
30.999999999999996
20
38
10
30.999999999999996
20
32
10
28
20
32
0
LWPOLYLINE
5
109
100
AcDbEntity
8
0
100
AcDbPolyline
90
4
70
1
43
0.0
10
37
20
38
10
40
20
38
10
40
20
32
10
37
20
32
0
LWPOLYLINE
5
110
100
AcDbEntity
8
0
100
AcDbPolyline
90
4
70
1
43
0.0
10
10
20
50
10
13
20
50
10
13
20
44
10
10
20
44
0
LWPOLYLINE
5
111
100
AcDbEntity
8
0
100
AcDbPolyline
90
4
70
1
43
0.0
10
19
20
50
10
22
20
50
10
22
20
44
10
19
20
44
0
LWPOLYLINE
5
112
100
AcDbEntity
8
0
100
AcDbPolyline
90
4
70
1
43
0.0
10
28
20
50
10
30.999999999999996
20
50
10
30.999999999999996
20
44
10
28
20
44
0
LWPOLYLINE
5
113
100
AcDbEntity
8
0
100
AcDbPolyline
90
4
70
1
43
0.0
10
37
20
50
10
40
20
50
10
40
20
44
10
37
20
44
0
LWPOLYLINE
5
114
100
AcDbEntity
8
0
100
AcDbPolyline
90
4
70
1
43
0.0
10
10
20
62.000000000000014
10
13
20
62.000000000000014
10
13
20
56.000000000000007
10
10
20
56.000000000000007
0
LWPOLYLINE
5
115
100
AcDbEntity
8
0
100
AcDbPolyline
90
4
70
1
43
0.0
10
19
20
62.000000000000014
10
22
20
62.000000000000014
10
22
20
56.000000000000007
10
19
20
56.000000000000007
0
LWPOLYLINE
5
116
100
AcDbEntity
8
0
100
AcDbPolyline
90
4
70
1
43
0.0
10
28
20
62.000000000000014
10
30.999999999999996
20
62.000000000000014
10
30.999999999999996
20
56.000000000000007
10
28
20
56.000000000000007
0
LWPOLYLINE
5
117
100
AcDbEntity
8
0
100
AcDbPolyline
90
4
70
1
43
0.0
10
37
20
62.000000000000014
10
40
20
62.000000000000014
10
40
20
56.000000000000007
10
37
20
56.000000000000007
0
LWPOLYLINE
5
118
100
AcDbEntity
8
0
100
AcDbPolyline
90
4
70
1
43
0.0
10
10
20
74
10
13
20
74
10
13
20
68
10
10
20
68
0
LWPOLYLINE
5
119
100
AcDbEntity
8
0
100
AcDbPolyline
90
4
70
1
43
0.0
10
19
20
74
10
22
20
74
10
22
20
68
10
19
20
68
0
LWPOLYLINE
5
120
100
AcDbEntity
8
0
100
AcDbPolyline
90
4
70
1
43
0.0
10
28
20
74
10
30.999999999999996
20
74
10
30.999999999999996
20
68
10
28
20
68
0
LWPOLYLINE
5
121
100
AcDbEntity
8
0
100
AcDbPolyline
90
4
70
1
43
0.0
10
37
20
74
10
40
20
74
10
40
20
68
10
37
20
68
0
LWPOLYLINE
5
122
100
AcDbEntity
8
0
100
AcDbPolyline
90
4
70
1
43
0.0
10
10
20
86
10
13
20
86
10
13
20
80
10
10
20
80
0
LWPOLYLINE
5
123
100
AcDbEntity
8
0
100
AcDbPolyline
90
4
70
1
43
0.0
10
19
20
86
10
22
20
86
10
22
20
80
10
19
20
80
0
LWPOLYLINE
5
124
100
AcDbEntity
8
0
100
AcDbPolyline
90
4
70
1
43
0.0
10
28
20
86
10
30.999999999999996
20
86
10
30.999999999999996
20
80
10
28
20
80
0
LWPOLYLINE
5
125
100
AcDbEntity
8
0
100
AcDbPolyline
90
4
70
1
43
0.0
10
37
20
86
10
40
20
86
10
40
20
80
10
37
20
80
0
LWPOLYLINE
5
126
100
AcDbEntity
8
0
100
AcDbPolyline
90
4
70
1
43
0.0
10
10
20
98
10
13
20
98
10
13
20
92.000000000000014
10
10
20
92.000000000000014
0
LWPOLYLINE
5
127
100
AcDbEntity
8
0
100
AcDbPolyline
90
4
70
1
43
0.0
10
19
20
98
10
22
20
98
10
22
20
92.000000000000014
10
19
20
92.000000000000014
0
LWPOLYLINE
5
128
100
AcDbEntity
8
0
100
AcDbPolyline
90
4
70
1
43
0.0
10
28
20
98
10
30.999999999999996
20
98
10
30.999999999999996
20
92.000000000000014
10
28
20
92.000000000000014
0
LWPOLYLINE
5
129
100
AcDbEntity
8
0
100
AcDbPolyline
90
4
70
1
43
0.0
10
37
20
98
10
40
20
98
10
40
20
92.000000000000014
10
37
20
92.000000000000014
0
LWPOLYLINE
5
130
100
AcDbEntity
8
0
100
AcDbPolyline
90
4
70
1
43
0.0
10
10
20
110.00000000000001
10
13
20
110.00000000000001
10
13
20
104.00000000000003
10
10
20
104.00000000000003
0
LWPOLYLINE
5
131
100
AcDbEntity
8
0
100
AcDbPolyline
90
4
70
1
43
0.0
10
19
20
110.00000000000001
10
22
20
110.00000000000001
10
22
20
104.00000000000003
10
19
20
104.00000000000003
0
LWPOLYLINE
5
132
100
AcDbEntity
8
0
100
AcDbPolyline
90
4
70
1
43
0.0
10
28
20
110.00000000000001
10
30.999999999999996
20
110.00000000000001
10
30.999999999999996
20
104.00000000000003
10
28
20
104.00000000000003
0
LWPOLYLINE
5
133
100
AcDbEntity
8
0
100
AcDbPolyline
90
4
70
1
43
0.0
10
37
20
110.00000000000001
10
40
20
110.00000000000001
10
40
20
104.00000000000003
10
37
20
104.00000000000003
0
LWPOLYLINE
5
134
100
AcDbEntity
8
0
100
AcDbPolyline
90
4
70
1
43
0.0
10
10
20
122.00000000000001
10
13
20
122.00000000000001
10
13
20
116.00000000000001
10
10
20
116.00000000000001
0
LWPOLYLINE
5
135
100
AcDbEntity
8
0
100
AcDbPolyline
90
4
70
1
43
0.0
10
19
20
122.00000000000001
10
22
20
122.00000000000001
10
22
20
116.00000000000001
10
19
20
116.00000000000001
0
LWPOLYLINE
5
136
100
AcDbEntity
8
0
100
AcDbPolyline
90
4
70
1
43
0.0
10
28
20
122.00000000000001
10
30.999999999999996
20
122.00000000000001
10
30.999999999999996
20
116.00000000000001
10
28
20
116.00000000000001
0
LWPOLYLINE
5
137
100
AcDbEntity
8
0
100
AcDbPolyline
90
4
70
1
43
0.0
10
37
20
122.00000000000001
10
40
20
122.00000000000001
10
40
20
116.00000000000001
10
37
20
116.00000000000001
0
LWPOLYLINE
5
138
100
AcDbEntity
8
0
100
AcDbPolyline
90
4
70
1
43
0.0
10
10
20
134
10
13
20
134
10
13
20
128
10
10
20
128
0
LWPOLYLINE
5
139
100
AcDbEntity
8
0
100
AcDbPolyline
90
4
70
1
43
0.0
10
19
20
134
10
22
20
134
10
22
20
128
10
19
20
128
0
LWPOLYLINE
5
140
100
AcDbEntity
8
0
100
AcDbPolyline
90
4
70
1
43
0.0
10
28
20
134
10
30.999999999999996
20
134
10
30.999999999999996
20
128
10
28
20
128
0
LWPOLYLINE
5
141
100
AcDbEntity
8
0
100
AcDbPolyline
90
4
70
1
43
0.0
10
37
20
134
10
40
20
134
10
40
20
128
10
37
20
128
0
LWPOLYLINE
5
142
100
AcDbEntity
8
0
100
AcDbPolyline
90
4
70
1
43
0.0
10
10
20
146
10
13
20
146
10
13
20
140.00000000000003
10
10
20
140.00000000000003
0
LWPOLYLINE
5
143
100
AcDbEntity
8
0
100
AcDbPolyline
90
4
70
1
43
0.0
10
19
20
146
10
22
20
146
10
22
20
140.00000000000003
10
19
20
140.00000000000003
0
LWPOLYLINE
5
144
100
AcDbEntity
8
0
100
AcDbPolyline
90
4
70
1
43
0.0
10
28
20
146
10
30.999999999999996
20
146
10
30.999999999999996
20
140.00000000000003
10
28
20
140.00000000000003
0
LWPOLYLINE
5
145
100
AcDbEntity
8
0
100
AcDbPolyline
90
4
70
1
43
0.0
10
37
20
146
10
40
20
146
10
40
20
140.00000000000003
10
37
20
140.00000000000003
0
LWPOLYLINE
5
146
100
AcDbEntity
8
0
100
AcDbPolyline
90
4
70
1
43
0.0
10
10
20
158.00000000000003
10
13
20
158.00000000000003
10
13
20
152.00000000000003
10
10
20
152.00000000000003
0
LWPOLYLINE
5
147
100
AcDbEntity
8
0
100
AcDbPolyline
90
4
70
1
43
0.0
10
19
20
158.00000000000003
10
22
20
158.00000000000003
10
22
20
152.00000000000003
10
19
20
152.00000000000003
0
LWPOLYLINE
5
148
100
AcDbEntity
8
0
100
AcDbPolyline
90
4
70
1
43
0.0
10
28
20
158.00000000000003
10
30.999999999999996
20
158.00000000000003
10
30.999999999999996
20
152.00000000000003
10
28
20
152.00000000000003
0
LWPOLYLINE
5
149
100
AcDbEntity
8
0
100
AcDbPolyline
90
4
70
1
43
0.0
10
37
20
158.00000000000003
10
40
20
158.00000000000003
10
40
20
152.00000000000003
10
37
20
152.00000000000003
0
LWPOLYLINE
5
150
100
AcDbEntity
8
0
100
AcDbPolyline
90
4
70
1
43
0.0
10
10
20
170.00000000000003
10
13
20
170.00000000000003
10
13
20
164.00000000000003
10
10
20
164.00000000000003
0
LWPOLYLINE
5
151
100
AcDbEntity
8
0
100
AcDbPolyline
90
4
70
1
43
0.0
10
19
20
170.00000000000003
10
22
20
170.00000000000003
10
22
20
164.00000000000003
10
19
20
164.00000000000003
0
LWPOLYLINE
5
152
100
AcDbEntity
8
0
100
AcDbPolyline
90
4
70
1
43
0.0
10
28
20
170.00000000000003
10
30.999999999999996
20
170.00000000000003
10
30.999999999999996
20
164.00000000000003
10
28
20
164.00000000000003
0
LWPOLYLINE
5
153
100
AcDbEntity
8
0
100
AcDbPolyline
90
4
70
1
43
0.0
10
37
20
170.00000000000003
10
40
20
170.00000000000003
10
40
20
164.00000000000003
10
37
20
164.00000000000003
0
LWPOLYLINE
5
154
100
AcDbEntity
8
0
100
AcDbPolyline
90
4
70
1
43
0.0
10
10
20
182.00000000000003
10
13
20
182.00000000000003
10
13
20
176
10
10
20
176
0
LWPOLYLINE
5
155
100
AcDbEntity
8
0
100
AcDbPolyline
90
4
70
1
43
0.0
10
19
20
182.00000000000003
10
22
20
182.00000000000003
10
22
20
176
10
19
20
176
0
LWPOLYLINE
5
156
100
AcDbEntity
8
0
100
AcDbPolyline
90
4
70
1
43
0.0
10
28
20
182.00000000000003
10
30.999999999999996
20
182.00000000000003
10
30.999999999999996
20
176
10
28
20
176
0
LWPOLYLINE
5
157
100
AcDbEntity
8
0
100
AcDbPolyline
90
4
70
1
43
0.0
10
37
20
182.00000000000003
10
40
20
182.00000000000003
10
40
20
176
10
37
20
176
0
LWPOLYLINE
5
158
100
AcDbEntity
8
0
100
AcDbPolyline
90
4
70
1
43
0.0
10
10
20
194.00000000000006
10
13
20
194.00000000000006
10
13
20
188.00000000000006
10
10
20
188.00000000000006
0
LWPOLYLINE
5
159
100
AcDbEntity
8
0
100
AcDbPolyline
90
4
70
1
43
0.0
10
19
20
194.00000000000006
10
22
20
194.00000000000006
10
22
20
188.00000000000006
10
19
20
188.00000000000006
0
LWPOLYLINE
5
160
100
AcDbEntity
8
0
100
AcDbPolyline
90
4
70
1
43
0.0
10
28
20
194.00000000000006
10
30.999999999999996
20
194.00000000000006
10
30.999999999999996
20
188.00000000000006
10
28
20
188.00000000000006
0
LWPOLYLINE
5
161
100
AcDbEntity
8
0
100
AcDbPolyline
90
4
70
1
43
0.0
10
37
20
194.00000000000006
10
40
20
194.00000000000006
10
40
20
188.00000000000006
10
37
20
188.00000000000006
0
LWPOLYLINE
5
162
100
AcDbEntity
8
0
100
AcDbPolyline
90
4
70
1
43
0.0
10
10
20
206.00000000000006
10
13
20
206.00000000000006
10
13
20
200.00000000000003
10
10
20
200.00000000000003
0
LWPOLYLINE
5
163
100
AcDbEntity
8
0
100
AcDbPolyline
90
4
70
1
43
0.0
10
19
20
206.00000000000006
10
22
20
206.00000000000006
10
22
20
200.00000000000003
10
19
20
200.00000000000003
0
LWPOLYLINE
5
164
100
AcDbEntity
8
0
100
AcDbPolyline
90
4
70
1
43
0.0
10
28
20
206.00000000000006
10
30.999999999999996
20
206.00000000000006
10
30.999999999999996
20
200.00000000000003
10
28
20
200.00000000000003
0
LWPOLYLINE
5
165
100
AcDbEntity
8
0
100
AcDbPolyline
90
4
70
1
43
0.0
10
37
20
206.00000000000006
10
40
20
206.00000000000006
10
40
20
200.00000000000003
10
37
20
200.00000000000003
0
LINE
5
166
100
AcDbEntity
8
0
100
AcDbLine
10
100
20
215.90000000000001
30
0
11
100
21
0
31
0
0
LINE
5
167
100
AcDbEntity
8
0
100
AcDbLine
10
150
20
215.90000000000001
30
0
11
150
21
0
31
0
0
LWPOLYLINE
5
168
100
AcDbEntity
8
0
100
AcDbPolyline
90
4
70
1
43
0.0
10
87
20
80
10
87
20
86
10
90
20
86
10
90
20
80
0
LWPOLYLINE
5
169
100
AcDbEntity
8
0
100
AcDbPolyline
90
4
70
1
43
0.0
10
63
20
80
10
60
20
80
10
60
20
86
10
63
20
86
0
LWPOLYLINE
5
170
100
AcDbEntity
8
0
100
AcDbPolyline
90
4
70
1
43
0.0
10
81
20
86
10
81
20
80
10
78
20
80
10
78
20
86
0
LWPOLYLINE
5
171
100
AcDbEntity
8
0
100
AcDbPolyline
90
4
70
1
43
0.0
10
69
20
80
10
69
20
86
10
72
20
86
10
72
20
80
0
LWPOLYLINE
5
172
100
AcDbEntity
8
0
100
AcDbPolyline
90
4
70
1
43
0.0
10
60
20
74
10
63
20
74
10
63
20
68
10
60
20
68
0
LWPOLYLINE
5
173
100
AcDbEntity
8
0
100
AcDbPolyline
90
4
70
1
43
0.0
10
78
20
74
10
81
20
74
10
81
20
68
10
78
20
68
0
LWPOLYLINE
5
174
100
AcDbEntity
8
0
100
AcDbPolyline
90
4
70
1
43
0.0
10
63
20
158.00000000000003
10
63
20
152.00000000000003
10
60
20
152.00000000000003
10
60
20
158.00000000000003
0
LWPOLYLINE
5
175
100
AcDbEntity
8
0
100
AcDbPolyline
90
4
70
1
43
0.0
10
60
20
104.00000000000003
10
60
20
110.00000000000001
10
63
20
110.00000000000001
10
63
20
104.00000000000003
0
LWPOLYLINE
5
176
100
AcDbEntity
8
0
100
AcDbPolyline
90
4
70
1
43
0.0
10
87
20
152.00000000000003
10
87
20
158.00000000000003
10
90
20
158.00000000000003
10
90
20
152.00000000000003
0
LWPOLYLINE
5
177
100
AcDbEntity
8
0
100
AcDbPolyline
90
4
70
1
43
0.0
10
78
20
140.00000000000003
10
78
20
146
10
81
20
146
10
81
20
140.00000000000003
0
LWPOLYLINE
5
178
100
AcDbEntity
8
0
100
AcDbPolyline
90
4
70
1
43
0.0
10
69
20
158.00000000000003
10
72
20
158.00000000000003
10
72
20
152.00000000000003
10
69
20
152.00000000000003
0
LWPOLYLINE
5
179
100
AcDbEntity
8
0
100
AcDbPolyline
90
4
70
1
43
0.0
10
69
20
92.000000000000014
10
69
20
98
10
72
20
98
10
72
20
92.000000000000014
0
LWPOLYLINE
5
180
100
AcDbEntity
8
0
100
AcDbPolyline
90
4
70
1
43
0.0
10
90
20
146
10
90
20
140.00000000000003
10
87
20
140.00000000000003
10
87
20
146
0
LWPOLYLINE
5
181
100
AcDbEntity
8
0
100
AcDbPolyline
90
4
70
1
43
0.0
10
78
20
104.00000000000003
10
78
20
110.00000000000001
10
81
20
110.00000000000001
10
81
20
104.00000000000003
0
LWPOLYLINE
5
182
100
AcDbEntity
8
0
100
AcDbPolyline
90
4
70
1
43
0.0
10
69
20
104.00000000000003
10
69
20
110.00000000000001
10
72
20
110.00000000000001
10
72
20
104.00000000000003
0
LWPOLYLINE
5
183
100
AcDbEntity
8
0
100
AcDbPolyline
90
4
70
1
43
0.0
10
90
20
104.00000000000003
10
87
20
104.00000000000003
10
87
20
110.00000000000001
10
90
20
110.00000000000001
0
LWPOLYLINE
5
184
100
AcDbEntity
8
0
100
AcDbPolyline
90
4
70
1
43
0.0
10
63
20
140.00000000000003
10
60
20
140.00000000000003
10
60
20
146
10
63
20
146
0
LWPOLYLINE
5
185
100
AcDbEntity
8
0
100
AcDbPolyline
90
4
70
1
43
0.0
10
69
20
140.00000000000003
10
69
20
146
10
72
20
146
10
72
20
140.00000000000003
0
LWPOLYLINE
5
186
100
AcDbEntity
8
0
100
AcDbPolyline
90
4
70
1
43
0.0
10
81
20
152.00000000000003
10
78
20
152.00000000000003
10
78
20
158.00000000000003
10
81
20
158.00000000000003
0
LWPOLYLINE
5
187
100
AcDbEntity
8
0
100
AcDbPolyline
90
4
70
1
43
0.0
10
81
20
98
10
81
20
92.000000000000014
10
78
20
92.000000000000014
10
78
20
98
0
LWPOLYLINE
5
188
100
AcDbEntity
8
0
100
AcDbPolyline
90
4
70
1
43
0.0
10
90
20
98
10
90
20
92.000000000000014
10
87
20
92.000000000000014
10
87
20
98
0
LWPOLYLINE
5
189
100
AcDbEntity
8
0
100
AcDbPolyline
90
4
70
1
43
0.0
10
63
20
92.000000000000014
10
60
20
92.000000000000014
10
60
20
98
10
63
20
98
0
LWPOLYLINE
5
190
100
AcDbEntity
8
0
100
AcDbPolyline
90
4
70
1
43
0.0
10
72
20
182.00000000000003
10
72
20
176
10
69
20
176
10
69
20
182.00000000000003
0
LWPOLYLINE
5
191
100
AcDbEntity
8
0
100
AcDbPolyline
90
4
70
1
43
0.0
10
87
20
164.00000000000003
10
87
20
170.00000000000003
10
90
20
170.00000000000003
10
90
20
164.00000000000003
0
LWPOLYLINE
5
192
100
AcDbEntity
8
0
100
AcDbPolyline
90
4
70
1
43
0.0
10
60
20
50
10
63
20
50
10
63
20
44
10
60
20
44
0
LWPOLYLINE
5
193
100
AcDbEntity
8
0
100
AcDbPolyline
90
4
70
1
43
0.0
10
87
20
50
10
90
20
50
10
90
20
44
10
87
20
44
0
LWPOLYLINE
5
194
100
AcDbEntity
8
0
100
AcDbPolyline
90
4
70
1
43
0.0
10
78
20
164.00000000000003
10
78
20
170.00000000000003
10
81
20
170.00000000000003
10
81
20
164.00000000000003
0
LWPOLYLINE
5
195
100
AcDbEntity
8
0
100
AcDbPolyline
90
4
70
1
43
0.0
10
63
20
176
10
60
20
176
10
60
20
182.00000000000003
10
63
20
182.00000000000003
0
LWPOLYLINE
5
196
100
AcDbEntity
8
0
100
AcDbPolyline
90
4
70
1
43
0.0
10
81
20
176
10
78
20
176
10
78
20
182.00000000000003
10
81
20
182.00000000000003
0
LWPOLYLINE
5
197
100
AcDbEntity
8
0
100
AcDbPolyline
90
4
70
1
43
0.0
10
81
20
44
10
78
20
44
10
78
20
50
10
81
20
50
0
LWPOLYLINE
5
198
100
AcDbEntity
8
0
100
AcDbPolyline
90
4
70
1
43
0.0
10
60
20
164.00000000000003
10
60
20
170.00000000000003
10
63
20
170.00000000000003
10
63
20
164.00000000000003
0
LWPOLYLINE
5
199
100
AcDbEntity
8
0
100
AcDbPolyline
90
4
70
1
43
0.0
10
69
20
50
10
72
20
50
10
72
20
44
10
69
20
44
0
LWPOLYLINE
5
200
100
AcDbEntity
8
0
100
AcDbPolyline
90
4
70
1
43
0.0
10
90
20
176
10
87
20
176
10
87
20
182.00000000000003
10
90
20
182.00000000000003
0
LWPOLYLINE
5
201
100
AcDbEntity
8
0
100
AcDbPolyline
90
4
70
1
43
0.0
10
87
20
206.00000000000006
10
90
20
206.00000000000006
10
90
20
200.00000000000003
10
87
20
200.00000000000003
0
LWPOLYLINE
5
202
100
AcDbEntity
8
0
100
AcDbPolyline
90
4
70
1
43
0.0
10
69
20
32
10
69
20
38
10
72
20
38
10
72
20
32
0
LWPOLYLINE
5
203
100
AcDbEntity
8
0
100
AcDbPolyline
90
4
70
1
43
0.0
10
60
20
62.000000000000014
10
63
20
62.000000000000014
10
63
20
56.000000000000007
10
60
20
56.000000000000007
0
LWPOLYLINE
5
204
100
AcDbEntity
8
0
100
AcDbPolyline
90
4
70
1
43
0.0
10
60
20
38
10
63
20
38
10
63
20
32
10
60
20
32
0
LWPOLYLINE
5
205
100
AcDbEntity
8
0
100
AcDbPolyline
90
4
70
1
43
0.0
10
81
20
206.00000000000006
10
81
20
200.00000000000003
10
78
20
200.00000000000003
10
78
20
206.00000000000006
0
LWPOLYLINE
5
206
100
AcDbEntity
8
0
100
AcDbPolyline
90
4
70
1
43
0.0
10
60
20
26
10
63
20
26
10
63
20
20
10
60
20
20
0
LWPOLYLINE
5
207
100
AcDbEntity
8
0
100
AcDbPolyline
90
4
70
1
43
0.0
10
69
20
26
10
72
20
26
10
72
20
20
10
69
20
20
0
LWPOLYLINE
5
208
100
AcDbEntity
8
0
100
AcDbPolyline
90
4
70
1
43
0.0
10
72
20
170.00000000000003
10
72
20
164.00000000000003
10
69
20
164.00000000000003
10
69
20
170.00000000000003
0
LWPOLYLINE
5
209
100
AcDbEntity
8
0
100
AcDbPolyline
90
4
70
1
43
0.0
10
81
20
38
10
81
20
32
10
78
20
32
10
78
20
38
0
LWPOLYLINE
5
210
100
AcDbEntity
8
0
100
AcDbPolyline
90
4
70
1
43
0.0
10
78
20
20
10
78
20
26
10
81
20
26
10
81
20
20
0
LWPOLYLINE
5
211
100
AcDbEntity
8
0
100
AcDbPolyline
90
4
70
1
43
0.0
10
87
20
56.000000000000007
10
87
20
62.000000000000014
10
90
20
62.000000000000014
10
90
20
56.000000000000007
0
LWPOLYLINE
5
212
100
AcDbEntity
8
0
100
AcDbPolyline
90
4
70
1
43
0.0
10
69
20
56.000000000000007
10
69
20
62.000000000000014
10
72
20
62.000000000000014
10
72
20
56.000000000000007
0
LWPOLYLINE
5
213
100
AcDbEntity
8
0
100
AcDbPolyline
90
4
70
1
43
0.0
10
78
20
62.000000000000014
10
81
20
62.000000000000014
10
81
20
56.000000000000007
10
78
20
56.000000000000007
0
LWPOLYLINE
5
214
100
AcDbEntity
8
0
100
AcDbPolyline
90
4
70
1
43
0.0
10
90
20
26
10
90
20
20
10
87
20
20
10
87
20
26
0
LWPOLYLINE
5
215
100
AcDbEntity
8
0
100
AcDbPolyline
90
4
70
1
43
0.0
10
69
20
194.00000000000006
10
72
20
194.00000000000006
10
72
20
188.00000000000006
10
69
20
188.00000000000006
0
LWPOLYLINE
5
216
100
AcDbEntity
8
0
100
AcDbPolyline
90
4
70
1
43
0.0
10
60
20
188.00000000000006
10
60
20
194.00000000000006
10
63
20
194.00000000000006
10
63
20
188.00000000000006
0
LWPOLYLINE
5
217
100
AcDbEntity
8
0
100
AcDbPolyline
90
4
70
1
43
0.0
10
87
20
38
10
90
20
38
10
90
20
32
10
87
20
32
0
LWPOLYLINE
5
218
100
AcDbEntity
8
0
100
AcDbPolyline
90
4
70
1
43
0.0
10
60
20
200.00000000000003
10
60
20
206.00000000000006
10
63
20
206.00000000000006
10
63
20
200.00000000000003
0
LWPOLYLINE
5
219
100
AcDbEntity
8
0
100
AcDbPolyline
90
4
70
1
43
0.0
10
90
20
194.00000000000006
10
90
20
188.00000000000006
10
87
20
188.00000000000006
10
87
20
194.00000000000006
0
LWPOLYLINE
5
220
100
AcDbEntity
8
0
100
AcDbPolyline
90
4
70
1
43
0.0
10
72
20
206.00000000000006
10
72
20
200.00000000000003
10
69
20
200.00000000000003
10
69
20
206.00000000000006
0
LWPOLYLINE
5
221
100
AcDbEntity
8
0
100
AcDbPolyline
90
4
70
1
43
0.0
10
81
20
188.00000000000006
10
78
20
188.00000000000006
10
78
20
194.00000000000006
10
81
20
194.00000000000006
0
LWPOLYLINE
5
222
100
AcDbEntity
8
0
100
AcDbPolyline
90
4
70
1
43
0.0
10
60
20
128
10
60
20
134
10
63
20
134
10
63
20
128
0
LWPOLYLINE
5
223
100
AcDbEntity
8
0
100
AcDbPolyline
90
4
70
1
43
0.0
10
69
20
134
10
72
20
134
10
72
20
128
10
69
20
128
0
LWPOLYLINE
5
224
100
AcDbEntity
8
0
100
AcDbPolyline
90
4
70
1
43
0.0
10
69
20
74
10
72
20
74
10
72
20
68
10
69
20
68
0
LWPOLYLINE
5
225
100
AcDbEntity
8
0
100
AcDbPolyline
90
4
70
1
43
0.0
10
90
20
68
10
87
20
68
10
87
20
74
10
90
20
74
0
LWPOLYLINE
5
226
100
AcDbEntity
8
0
100
AcDbPolyline
90
4
70
1
43
0.0
10
90
20
122.00000000000001
10
90
20
116.00000000000001
10
87
20
116.00000000000001
10
87
20
122.00000000000001
0
LWPOLYLINE
5
227
100
AcDbEntity
8
0
100
AcDbPolyline
90
4
70
1
43
0.0
10
81
20
128
10
78
20
128
10
78
20
134
10
81
20
134
0
LWPOLYLINE
5
228
100
AcDbEntity
8
0
100
AcDbPolyline
90
4
70
1
43
0.0
10
90
20
128
10
87
20
128
10
87
20
134
10
90
20
134
0
LWPOLYLINE
5
229
100
AcDbEntity
8
0
100
AcDbPolyline
90
4
70
1
43
0.0
10
72
20
122.00000000000001
10
72
20
116.00000000000001
10
69
20
116.00000000000001
10
69
20
122.00000000000001
0
LWPOLYLINE
5
230
100
AcDbEntity
8
0
100
AcDbPolyline
90
4
70
1
43
0.0
10
60
20
116.00000000000001
10
60
20
122.00000000000001
10
63
20
122.00000000000001
10
63
20
116.00000000000001
0
LWPOLYLINE
5
231
100
AcDbEntity
8
0
100
AcDbPolyline
90
4
70
1
43
0.0
10
78
20
116.00000000000001
10
78
20
122.00000000000001
10
81
20
122.00000000000001
10
81
20
116.00000000000001
0
LWPOLYLINE
5
232
100
AcDbEntity
8
0
100
AcDbPolyline
90
4
70
1
43
0.0
10
137
20
80
10
137
20
86
10
140
20
86
10
140
20
80
0
LWPOLYLINE
5
233
100
AcDbEntity
8
0
100
AcDbPolyline
90
4
70
1
43
0.0
10
113
20
80
10
110
20
80
10
110
20
86
10
113
20
86
0
LWPOLYLINE
5
234
100
AcDbEntity
8
0
100
AcDbPolyline
90
4
70
1
43
0.0
10
131
20
86
10
131
20
80
10
128
20
80
10
128
20
86
0
LWPOLYLINE
5
235
100
AcDbEntity
8
0
100
AcDbPolyline
90
4
70
1
43
0.0
10
119
20
80
10
119
20
86
10
122
20
86
10
122
20
80
0
LWPOLYLINE
5
236
100
AcDbEntity
8
0
100
AcDbPolyline
90
4
70
1
43
0.0
10
110
20
74
10
113
20
74
10
113
20
68
10
110
20
68
0
LWPOLYLINE
5
237
100
AcDbEntity
8
0
100
AcDbPolyline
90
4
70
1
43
0.0
10
128
20
74
10
131
20
74
10
131
20
68
10
128
20
68
0
LWPOLYLINE
5
238
100
AcDbEntity
8
0
100
AcDbPolyline
90
4
70
1
43
0.0
10
113
20
158.00000000000003
10
113
20
152.00000000000003
10
110
20
152.00000000000003
10
110
20
158.00000000000003
0
LWPOLYLINE
5
239
100
AcDbEntity
8
0
100
AcDbPolyline
90
4
70
1
43
0.0
10
110
20
104.00000000000003
10
110
20
110.00000000000001
10
113
20
110.00000000000001
10
113
20
104.00000000000003
0
LWPOLYLINE
5
240
100
AcDbEntity
8
0
100
AcDbPolyline
90
4
70
1
43
0.0
10
137
20
152.00000000000003
10
137
20
158.00000000000003
10
140
20
158.00000000000003
10
140
20
152.00000000000003
0
LWPOLYLINE
5
241
100
AcDbEntity
8
0
100
AcDbPolyline
90
4
70
1
43
0.0
10
128
20
140.00000000000003
10
128
20
146
10
131
20
146
10
131
20
140.00000000000003
0
LWPOLYLINE
5
242
100
AcDbEntity
8
0
100
AcDbPolyline
90
4
70
1
43
0.0
10
119
20
158.00000000000003
10
122
20
158.00000000000003
10
122
20
152.00000000000003
10
119
20
152.00000000000003
0
LWPOLYLINE
5
243
100
AcDbEntity
8
0
100
AcDbPolyline
90
4
70
1
43
0.0
10
119
20
92.000000000000014
10
119
20
98
10
122
20
98
10
122
20
92.000000000000014
0
LWPOLYLINE
5
244
100
AcDbEntity
8
0
100
AcDbPolyline
90
4
70
1
43
0.0
10
140
20
146
10
140
20
140.00000000000003
10
137
20
140.00000000000003
10
137
20
146
0
LWPOLYLINE
5
245
100
AcDbEntity
8
0
100
AcDbPolyline
90
4
70
1
43
0.0
10
128
20
104.00000000000003
10
128
20
110.00000000000001
10
131
20
110.00000000000001
10
131
20
104.00000000000003
0
LWPOLYLINE
5
246
100
AcDbEntity
8
0
100
AcDbPolyline
90
4
70
1
43
0.0
10
119
20
104.00000000000003
10
119
20
110.00000000000001
10
122
20
110.00000000000001
10
122
20
104.00000000000003
0
LWPOLYLINE
5
247
100
AcDbEntity
8
0
100
AcDbPolyline
90
4
70
1
43
0.0
10
140
20
104.00000000000003
10
137
20
104.00000000000003
10
137
20
110.00000000000001
10
140
20
110.00000000000001
0
LWPOLYLINE
5
248
100
AcDbEntity
8
0
100
AcDbPolyline
90
4
70
1
43
0.0
10
113
20
140.00000000000003
10
110
20
140.00000000000003
10
110
20
146
10
113
20
146
0
LWPOLYLINE
5
249
100
AcDbEntity
8
0
100
AcDbPolyline
90
4
70
1
43
0.0
10
119
20
140.00000000000003
10
119
20
146
10
122
20
146
10
122
20
140.00000000000003
0
LWPOLYLINE
5
250
100
AcDbEntity
8
0
100
AcDbPolyline
90
4
70
1
43
0.0
10
131
20
152.00000000000003
10
128
20
152.00000000000003
10
128
20
158.00000000000003
10
131
20
158.00000000000003
0
LWPOLYLINE
5
251
100
AcDbEntity
8
0
100
AcDbPolyline
90
4
70
1
43
0.0
10
131
20
98
10
131
20
92.000000000000014
10
128
20
92.000000000000014
10
128
20
98
0
LWPOLYLINE
5
252
100
AcDbEntity
8
0
100
AcDbPolyline
90
4
70
1
43
0.0
10
140
20
98
10
140
20
92.000000000000014
10
137
20
92.000000000000014
10
137
20
98
0
LWPOLYLINE
5
253
100
AcDbEntity
8
0
100
AcDbPolyline
90
4
70
1
43
0.0
10
113
20
92.000000000000014
10
110
20
92.000000000000014
10
110
20
98
10
113
20
98
0
LWPOLYLINE
5
254
100
AcDbEntity
8
0
100
AcDbPolyline
90
4
70
1
43
0.0
10
122
20
182.00000000000003
10
122
20
176
10
119
20
176
10
119
20
182.00000000000003
0
LWPOLYLINE
5
255
100
AcDbEntity
8
0
100
AcDbPolyline
90
4
70
1
43
0.0
10
137
20
164.00000000000003
10
137
20
170.00000000000003
10
140
20
170.00000000000003
10
140
20
164.00000000000003
0
LWPOLYLINE
5
256
100
AcDbEntity
8
0
100
AcDbPolyline
90
4
70
1
43
0.0
10
110
20
50
10
113
20
50
10
113
20
44
10
110
20
44
0
LWPOLYLINE
5
257
100
AcDbEntity
8
0
100
AcDbPolyline
90
4
70
1
43
0.0
10
137
20
50
10
140
20
50
10
140
20
44
10
137
20
44
0
LWPOLYLINE
5
258
100
AcDbEntity
8
0
100
AcDbPolyline
90
4
70
1
43
0.0
10
128
20
164.00000000000003
10
128
20
170.00000000000003
10
131
20
170.00000000000003
10
131
20
164.00000000000003
0
LWPOLYLINE
5
259
100
AcDbEntity
8
0
100
AcDbPolyline
90
4
70
1
43
0.0
10
113
20
176
10
110
20
176
10
110
20
182.00000000000003
10
113
20
182.00000000000003
0
LWPOLYLINE
5
260
100
AcDbEntity
8
0
100
AcDbPolyline
90
4
70
1
43
0.0
10
131
20
176
10
128
20
176
10
128
20
182.00000000000003
10
131
20
182.00000000000003
0
LWPOLYLINE
5
261
100
AcDbEntity
8
0
100
AcDbPolyline
90
4
70
1
43
0.0
10
131
20
44
10
128
20
44
10
128
20
50
10
131
20
50
0
LWPOLYLINE
5
262
100
AcDbEntity
8
0
100
AcDbPolyline
90
4
70
1
43
0.0
10
110
20
164.00000000000003
10
110
20
170.00000000000003
10
113
20
170.00000000000003
10
113
20
164.00000000000003
0
LWPOLYLINE
5
263
100
AcDbEntity
8
0
100
AcDbPolyline
90
4
70
1
43
0.0
10
119
20
50
10
122
20
50
10
122
20
44
10
119
20
44
0
LWPOLYLINE
5
264
100
AcDbEntity
8
0
100
AcDbPolyline
90
4
70
1
43
0.0
10
140
20
176
10
137
20
176
10
137
20
182.00000000000003
10
140
20
182.00000000000003
0
LWPOLYLINE
5
265
100
AcDbEntity
8
0
100
AcDbPolyline
90
4
70
1
43
0.0
10
137
20
206.00000000000006
10
140
20
206.00000000000006
10
140
20
200.00000000000003
10
137
20
200.00000000000003
0
LWPOLYLINE
5
266
100
AcDbEntity
8
0
100
AcDbPolyline
90
4
70
1
43
0.0
10
119
20
32
10
119
20
38
10
122
20
38
10
122
20
32
0
LWPOLYLINE
5
267
100
AcDbEntity
8
0
100
AcDbPolyline
90
4
70
1
43
0.0
10
110
20
62.000000000000014
10
113
20
62.000000000000014
10
113
20
56.000000000000007
10
110
20
56.000000000000007
0
LWPOLYLINE
5
268
100
AcDbEntity
8
0
100
AcDbPolyline
90
4
70
1
43
0.0
10
110
20
38
10
113
20
38
10
113
20
32
10
110
20
32
0
LWPOLYLINE
5
269
100
AcDbEntity
8
0
100
AcDbPolyline
90
4
70
1
43
0.0
10
131
20
206.00000000000006
10
131
20
200.00000000000003
10
128
20
200.00000000000003
10
128
20
206.00000000000006
0
LWPOLYLINE
5
270
100
AcDbEntity
8
0
100
AcDbPolyline
90
4
70
1
43
0.0
10
110
20
26
10
113
20
26
10
113
20
20
10
110
20
20
0
LWPOLYLINE
5
271
100
AcDbEntity
8
0
100
AcDbPolyline
90
4
70
1
43
0.0
10
119
20
26
10
122
20
26
10
122
20
20
10
119
20
20
0
LWPOLYLINE
5
272
100
AcDbEntity
8
0
100
AcDbPolyline
90
4
70
1
43
0.0
10
122
20
170.00000000000003
10
122
20
164.00000000000003
10
119
20
164.00000000000003
10
119
20
170.00000000000003
0
LWPOLYLINE
5
273
100
AcDbEntity
8
0
100
AcDbPolyline
90
4
70
1
43
0.0
10
131
20
38
10
131
20
32
10
128
20
32
10
128
20
38
0
LWPOLYLINE
5
274
100
AcDbEntity
8
0
100
AcDbPolyline
90
4
70
1
43
0.0
10
128
20
20
10
128
20
26
10
131
20
26
10
131
20
20
0
LWPOLYLINE
5
275
100
AcDbEntity
8
0
100
AcDbPolyline
90
4
70
1
43
0.0
10
137
20
56.000000000000007
10
137
20
62.000000000000014
10
140
20
62.000000000000014
10
140
20
56.000000000000007
0
LWPOLYLINE
5
276
100
AcDbEntity
8
0
100
AcDbPolyline
90
4
70
1
43
0.0
10
119
20
56.000000000000007
10
119
20
62.000000000000014
10
122
20
62.000000000000014
10
122
20
56.000000000000007
0
LWPOLYLINE
5
277
100
AcDbEntity
8
0
100
AcDbPolyline
90
4
70
1
43
0.0
10
128
20
62.000000000000014
10
131
20
62.000000000000014
10
131
20
56.000000000000007
10
128
20
56.000000000000007
0
LWPOLYLINE
5
278
100
AcDbEntity
8
0
100
AcDbPolyline
90
4
70
1
43
0.0
10
140
20
26
10
140
20
20
10
137
20
20
10
137
20
26
0
LWPOLYLINE
5
279
100
AcDbEntity
8
0
100
AcDbPolyline
90
4
70
1
43
0.0
10
119
20
194.00000000000006
10
122
20
194.00000000000006
10
122
20
188.00000000000006
10
119
20
188.00000000000006
0
LWPOLYLINE
5
280
100
AcDbEntity
8
0
100
AcDbPolyline
90
4
70
1
43
0.0
10
110
20
188.00000000000006
10
110
20
194.00000000000006
10
113
20
194.00000000000006
10
113
20
188.00000000000006
0
LWPOLYLINE
5
281
100
AcDbEntity
8
0
100
AcDbPolyline
90
4
70
1
43
0.0
10
137
20
38
10
140
20
38
10
140
20
32
10
137
20
32
0
LWPOLYLINE
5
282
100
AcDbEntity
8
0
100
AcDbPolyline
90
4
70
1
43
0.0
10
110
20
200.00000000000003
10
110
20
206.00000000000006
10
113
20
206.00000000000006
10
113
20
200.00000000000003
0
LWPOLYLINE
5
283
100
AcDbEntity
8
0
100
AcDbPolyline
90
4
70
1
43
0.0
10
140
20
194.00000000000006
10
140
20
188.00000000000006
10
137
20
188.00000000000006
10
137
20
194.00000000000006
0
LWPOLYLINE
5
284
100
AcDbEntity
8
0
100
AcDbPolyline
90
4
70
1
43
0.0
10
122
20
206.00000000000006
10
122
20
200.00000000000003
10
119
20
200.00000000000003
10
119
20
206.00000000000006
0
LWPOLYLINE
5
285
100
AcDbEntity
8
0
100
AcDbPolyline
90
4
70
1
43
0.0
10
131
20
188.00000000000006
10
128
20
188.00000000000006
10
128
20
194.00000000000006
10
131
20
194.00000000000006
0
LWPOLYLINE
5
286
100
AcDbEntity
8
0
100
AcDbPolyline
90
4
70
1
43
0.0
10
110
20
128
10
110
20
134
10
113
20
134
10
113
20
128
0
LWPOLYLINE
5
287
100
AcDbEntity
8
0
100
AcDbPolyline
90
4
70
1
43
0.0
10
119
20
134
10
122
20
134
10
122
20
128
10
119
20
128
0
LWPOLYLINE
5
288
100
AcDbEntity
8
0
100
AcDbPolyline
90
4
70
1
43
0.0
10
119
20
74
10
122
20
74
10
122
20
68
10
119
20
68
0
LWPOLYLINE
5
289
100
AcDbEntity
8
0
100
AcDbPolyline
90
4
70
1
43
0.0
10
140
20
68
10
137
20
68
10
137
20
74
10
140
20
74
0
LWPOLYLINE
5
290
100
AcDbEntity
8
0
100
AcDbPolyline
90
4
70
1
43
0.0
10
140
20
122.00000000000001
10
140
20
116.00000000000001
10
137
20
116.00000000000001
10
137
20
122.00000000000001
0
LWPOLYLINE
5
291
100
AcDbEntity
8
0
100
AcDbPolyline
90
4
70
1
43
0.0
10
131
20
128
10
128
20
128
10
128
20
134
10
131
20
134
0
LWPOLYLINE
5
292
100
AcDbEntity
8
0
100
AcDbPolyline
90
4
70
1
43
0.0
10
140
20
128
10
137
20
128
10
137
20
134
10
140
20
134
0
LWPOLYLINE
5
293
100
AcDbEntity
8
0
100
AcDbPolyline
90
4
70
1
43
0.0
10
122
20
122.00000000000001
10
122
20
116.00000000000001
10
119
20
116.00000000000001
10
119
20
122.00000000000001
0
LWPOLYLINE
5
294
100
AcDbEntity
8
0
100
AcDbPolyline
90
4
70
1
43
0.0
10
110
20
116.00000000000001
10
110
20
122.00000000000001
10
113
20
122.00000000000001
10
113
20
116.00000000000001
0
LWPOLYLINE
5
295
100
AcDbEntity
8
0
100
AcDbPolyline
90
4
70
1
43
0.0
10
128
20
116.00000000000001
10
128
20
122.00000000000001
10
131
20
122.00000000000001
10
131
20
116.00000000000001
0
LWPOLYLINE
5
296
100
AcDbEntity
8
0
100
AcDbPolyline
90
4
70
1
43
0.0
10
187
20
80
10
187
20
86
10
190
20
86
10
190
20
80
0
LWPOLYLINE
5
297
100
AcDbEntity
8
0
100
AcDbPolyline
90
4
70
1
43
0.0
10
163
20
80
10
160
20
80
10
160
20
86
10
163
20
86
0
LWPOLYLINE
5
298
100
AcDbEntity
8
0
100
AcDbPolyline
90
4
70
1
43
0.0
10
181
20
86
10
181
20
80
10
178
20
80
10
178
20
86
0
LWPOLYLINE
5
299
100
AcDbEntity
8
0
100
AcDbPolyline
90
4
70
1
43
0.0
10
169
20
80
10
169
20
86
10
172
20
86
10
172
20
80
0
LWPOLYLINE
5
300
100
AcDbEntity
8
0
100
AcDbPolyline
90
4
70
1
43
0.0
10
160
20
74
10
163
20
74
10
163
20
68
10
160
20
68
0
LWPOLYLINE
5
301
100
AcDbEntity
8
0
100
AcDbPolyline
90
4
70
1
43
0.0
10
178
20
74
10
181
20
74
10
181
20
68
10
178
20
68
0
LWPOLYLINE
5
302
100
AcDbEntity
8
0
100
AcDbPolyline
90
4
70
1
43
0.0
10
163
20
158.00000000000003
10
163
20
152.00000000000003
10
160
20
152.00000000000003
10
160
20
158.00000000000003
0
LWPOLYLINE
5
303
100
AcDbEntity
8
0
100
AcDbPolyline
90
4
70
1
43
0.0
10
160
20
104.00000000000003
10
160
20
110.00000000000001
10
163
20
110.00000000000001
10
163
20
104.00000000000003
0
LWPOLYLINE
5
304
100
AcDbEntity
8
0
100
AcDbPolyline
90
4
70
1
43
0.0
10
187
20
152.00000000000003
10
187
20
158.00000000000003
10
190
20
158.00000000000003
10
190
20
152.00000000000003
0
LWPOLYLINE
5
305
100
AcDbEntity
8
0
100
AcDbPolyline
90
4
70
1
43
0.0
10
178
20
140.00000000000003
10
178
20
146
10
181
20
146
10
181
20
140.00000000000003
0
LWPOLYLINE
5
306
100
AcDbEntity
8
0
100
AcDbPolyline
90
4
70
1
43
0.0
10
169
20
158.00000000000003
10
172
20
158.00000000000003
10
172
20
152.00000000000003
10
169
20
152.00000000000003
0
LWPOLYLINE
5
307
100
AcDbEntity
8
0
100
AcDbPolyline
90
4
70
1
43
0.0
10
169
20
92.000000000000014
10
169
20
98
10
172
20
98
10
172
20
92.000000000000014
0
LWPOLYLINE
5
308
100
AcDbEntity
8
0
100
AcDbPolyline
90
4
70
1
43
0.0
10
190
20
146
10
190
20
140.00000000000003
10
187
20
140.00000000000003
10
187
20
146
0
LWPOLYLINE
5
309
100
AcDbEntity
8
0
100
AcDbPolyline
90
4
70
1
43
0.0
10
178
20
104.00000000000003
10
178
20
110.00000000000001
10
181
20
110.00000000000001
10
181
20
104.00000000000003
0
LWPOLYLINE
5
310
100
AcDbEntity
8
0
100
AcDbPolyline
90
4
70
1
43
0.0
10
169
20
104.00000000000003
10
169
20
110.00000000000001
10
172
20
110.00000000000001
10
172
20
104.00000000000003
0
LWPOLYLINE
5
311
100
AcDbEntity
8
0
100
AcDbPolyline
90
4
70
1
43
0.0
10
190
20
104.00000000000003
10
187
20
104.00000000000003
10
187
20
110.00000000000001
10
190
20
110.00000000000001
0
LWPOLYLINE
5
312
100
AcDbEntity
8
0
100
AcDbPolyline
90
4
70
1
43
0.0
10
163
20
140.00000000000003
10
160
20
140.00000000000003
10
160
20
146
10
163
20
146
0
LWPOLYLINE
5
313
100
AcDbEntity
8
0
100
AcDbPolyline
90
4
70
1
43
0.0
10
169
20
140.00000000000003
10
169
20
146
10
172
20
146
10
172
20
140.00000000000003
0
LWPOLYLINE
5
314
100
AcDbEntity
8
0
100
AcDbPolyline
90
4
70
1
43
0.0
10
181
20
152.00000000000003
10
178
20
152.00000000000003
10
178
20
158.00000000000003
10
181
20
158.00000000000003
0
LWPOLYLINE
5
315
100
AcDbEntity
8
0
100
AcDbPolyline
90
4
70
1
43
0.0
10
181
20
98
10
181
20
92.000000000000014
10
178
20
92.000000000000014
10
178
20
98
0
LWPOLYLINE
5
316
100
AcDbEntity
8
0
100
AcDbPolyline
90
4
70
1
43
0.0
10
190
20
98
10
190
20
92.000000000000014
10
187
20
92.000000000000014
10
187
20
98
0
LWPOLYLINE
5
317
100
AcDbEntity
8
0
100
AcDbPolyline
90
4
70
1
43
0.0
10
163
20
92.000000000000014
10
160
20
92.000000000000014
10
160
20
98
10
163
20
98
0
LWPOLYLINE
5
318
100
AcDbEntity
8
0
100
AcDbPolyline
90
4
70
1
43
0.0
10
172
20
182.00000000000003
10
172
20
176
10
169
20
176
10
169
20
182.00000000000003
0
LWPOLYLINE
5
319
100
AcDbEntity
8
0
100
AcDbPolyline
90
4
70
1
43
0.0
10
187
20
164.00000000000003
10
187
20
170.00000000000003
10
190
20
170.00000000000003
10
190
20
164.00000000000003
0
LWPOLYLINE
5
320
100
AcDbEntity
8
0
100
AcDbPolyline
90
4
70
1
43
0.0
10
160
20
50
10
163
20
50
10
163
20
44
10
160
20
44
0
LWPOLYLINE
5
321
100
AcDbEntity
8
0
100
AcDbPolyline
90
4
70
1
43
0.0
10
187
20
50
10
190
20
50
10
190
20
44
10
187
20
44
0
LWPOLYLINE
5
322
100
AcDbEntity
8
0
100
AcDbPolyline
90
4
70
1
43
0.0
10
178
20
164.00000000000003
10
178
20
170.00000000000003
10
181
20
170.00000000000003
10
181
20
164.00000000000003
0
LWPOLYLINE
5
323
100
AcDbEntity
8
0
100
AcDbPolyline
90
4
70
1
43
0.0
10
163
20
176
10
160
20
176
10
160
20
182.00000000000003
10
163
20
182.00000000000003
0
LWPOLYLINE
5
324
100
AcDbEntity
8
0
100
AcDbPolyline
90
4
70
1
43
0.0
10
181
20
176
10
178
20
176
10
178
20
182.00000000000003
10
181
20
182.00000000000003
0
LWPOLYLINE
5
325
100
AcDbEntity
8
0
100
AcDbPolyline
90
4
70
1
43
0.0
10
181
20
44
10
178
20
44
10
178
20
50
10
181
20
50
0
LWPOLYLINE
5
326
100
AcDbEntity
8
0
100
AcDbPolyline
90
4
70
1
43
0.0
10
160
20
164.00000000000003
10
160
20
170.00000000000003
10
163
20
170.00000000000003
10
163
20
164.00000000000003
0
LWPOLYLINE
5
327
100
AcDbEntity
8
0
100
AcDbPolyline
90
4
70
1
43
0.0
10
169
20
50
10
172
20
50
10
172
20
44
10
169
20
44
0
LWPOLYLINE
5
328
100
AcDbEntity
8
0
100
AcDbPolyline
90
4
70
1
43
0.0
10
190
20
176
10
187
20
176
10
187
20
182.00000000000003
10
190
20
182.00000000000003
0
LWPOLYLINE
5
329
100
AcDbEntity
8
0
100
AcDbPolyline
90
4
70
1
43
0.0
10
187
20
206.00000000000006
10
190
20
206.00000000000006
10
190
20
200.00000000000003
10
187
20
200.00000000000003
0
LWPOLYLINE
5
330
100
AcDbEntity
8
0
100
AcDbPolyline
90
4
70
1
43
0.0
10
169
20
32
10
169
20
38
10
172
20
38
10
172
20
32
0
LWPOLYLINE
5
331
100
AcDbEntity
8
0
100
AcDbPolyline
90
4
70
1
43
0.0
10
160
20
62.000000000000014
10
163
20
62.000000000000014
10
163
20
56.000000000000007
10
160
20
56.000000000000007
0
LWPOLYLINE
5
332
100
AcDbEntity
8
0
100
AcDbPolyline
90
4
70
1
43
0.0
10
160
20
38
10
163
20
38
10
163
20
32
10
160
20
32
0
LWPOLYLINE
5
333
100
AcDbEntity
8
0
100
AcDbPolyline
90
4
70
1
43
0.0
10
181
20
206.00000000000006
10
181
20
200.00000000000003
10
178
20
200.00000000000003
10
178
20
206.00000000000006
0
LWPOLYLINE
5
334
100
AcDbEntity
8
0
100
AcDbPolyline
90
4
70
1
43
0.0
10
160
20
26
10
163
20
26
10
163
20
20
10
160
20
20
0
LWPOLYLINE
5
335
100
AcDbEntity
8
0
100
AcDbPolyline
90
4
70
1
43
0.0
10
169
20
26
10
172
20
26
10
172
20
20
10
169
20
20
0
LWPOLYLINE
5
336
100
AcDbEntity
8
0
100
AcDbPolyline
90
4
70
1
43
0.0
10
172
20
170.00000000000003
10
172
20
164.00000000000003
10
169
20
164.00000000000003
10
169
20
170.00000000000003
0
LWPOLYLINE
5
337
100
AcDbEntity
8
0
100
AcDbPolyline
90
4
70
1
43
0.0
10
181
20
38
10
181
20
32
10
178
20
32
10
178
20
38
0
LWPOLYLINE
5
338
100
AcDbEntity
8
0
100
AcDbPolyline
90
4
70
1
43
0.0
10
178
20
20
10
178
20
26
10
181
20
26
10
181
20
20
0
LWPOLYLINE
5
339
100
AcDbEntity
8
0
100
AcDbPolyline
90
4
70
1
43
0.0
10
187
20
56.000000000000007
10
187
20
62.000000000000014
10
190
20
62.000000000000014
10
190
20
56.000000000000007
0
LWPOLYLINE
5
340
100
AcDbEntity
8
0
100
AcDbPolyline
90
4
70
1
43
0.0
10
169
20
56.000000000000007
10
169
20
62.000000000000014
10
172
20
62.000000000000014
10
172
20
56.000000000000007
0
LWPOLYLINE
5
341
100
AcDbEntity
8
0
100
AcDbPolyline
90
4
70
1
43
0.0
10
178
20
62.000000000000014
10
181
20
62.000000000000014
10
181
20
56.000000000000007
10
178
20
56.000000000000007
0
LWPOLYLINE
5
342
100
AcDbEntity
8
0
100
AcDbPolyline
90
4
70
1
43
0.0
10
190
20
26
10
190
20
20
10
187
20
20
10
187
20
26
0
LWPOLYLINE
5
343
100
AcDbEntity
8
0
100
AcDbPolyline
90
4
70
1
43
0.0
10
169
20
194.00000000000006
10
172
20
194.00000000000006
10
172
20
188.00000000000006
10
169
20
188.00000000000006
0
LWPOLYLINE
5
344
100
AcDbEntity
8
0
100
AcDbPolyline
90
4
70
1
43
0.0
10
160
20
188.00000000000006
10
160
20
194.00000000000006
10
163
20
194.00000000000006
10
163
20
188.00000000000006
0
LWPOLYLINE
5
345
100
AcDbEntity
8
0
100
AcDbPolyline
90
4
70
1
43
0.0
10
187
20
38
10
190
20
38
10
190
20
32
10
187
20
32
0
LWPOLYLINE
5
346
100
AcDbEntity
8
0
100
AcDbPolyline
90
4
70
1
43
0.0
10
160
20
200.00000000000003
10
160
20
206.00000000000006
10
163
20
206.00000000000006
10
163
20
200.00000000000003
0
LWPOLYLINE
5
347
100
AcDbEntity
8
0
100
AcDbPolyline
90
4
70
1
43
0.0
10
190
20
194.00000000000006
10
190
20
188.00000000000006
10
187
20
188.00000000000006
10
187
20
194.00000000000006
0
LWPOLYLINE
5
348
100
AcDbEntity
8
0
100
AcDbPolyline
90
4
70
1
43
0.0
10
172
20
206.00000000000006
10
172
20
200.00000000000003
10
169
20
200.00000000000003
10
169
20
206.00000000000006
0
LWPOLYLINE
5
349
100
AcDbEntity
8
0
100
AcDbPolyline
90
4
70
1
43
0.0
10
181
20
188.00000000000006
10
178
20
188.00000000000006
10
178
20
194.00000000000006
10
181
20
194.00000000000006
0
LWPOLYLINE
5
350
100
AcDbEntity
8
0
100
AcDbPolyline
90
4
70
1
43
0.0
10
160
20
128
10
160
20
134
10
163
20
134
10
163
20
128
0
LWPOLYLINE
5
351
100
AcDbEntity
8
0
100
AcDbPolyline
90
4
70
1
43
0.0
10
169
20
134
10
172
20
134
10
172
20
128
10
169
20
128
0
LWPOLYLINE
5
352
100
AcDbEntity
8
0
100
AcDbPolyline
90
4
70
1
43
0.0
10
169
20
74
10
172
20
74
10
172
20
68
10
169
20
68
0
LWPOLYLINE
5
353
100
AcDbEntity
8
0
100
AcDbPolyline
90
4
70
1
43
0.0
10
190
20
68
10
187
20
68
10
187
20
74
10
190
20
74
0
LWPOLYLINE
5
354
100
AcDbEntity
8
0
100
AcDbPolyline
90
4
70
1
43
0.0
10
190
20
122.00000000000001
10
190
20
116.00000000000001
10
187
20
116.00000000000001
10
187
20
122.00000000000001
0
LWPOLYLINE
5
355
100
AcDbEntity
8
0
100
AcDbPolyline
90
4
70
1
43
0.0
10
181
20
128
10
178
20
128
10
178
20
134
10
181
20
134
0
LWPOLYLINE
5
356
100
AcDbEntity
8
0
100
AcDbPolyline
90
4
70
1
43
0.0
10
190
20
128
10
187
20
128
10
187
20
134
10
190
20
134
0
LWPOLYLINE
5
357
100
AcDbEntity
8
0
100
AcDbPolyline
90
4
70
1
43
0.0
10
172
20
122.00000000000001
10
172
20
116.00000000000001
10
169
20
116.00000000000001
10
169
20
122.00000000000001
0
LWPOLYLINE
5
358
100
AcDbEntity
8
0
100
AcDbPolyline
90
4
70
1
43
0.0
10
160
20
116.00000000000001
10
160
20
122.00000000000001
10
163
20
122.00000000000001
10
163
20
116.00000000000001
0
LWPOLYLINE
5
359
100
AcDbEntity
8
0
100
AcDbPolyline
90
4
70
1
43
0.0
10
178
20
116.00000000000001
10
178
20
122.00000000000001
10
181
20
122.00000000000001
10
181
20
116.00000000000001
0
LINE
5
360
100
AcDbEntity
8
0
100
AcDbLine
10
200
20
215.90000000000001
30
0
11
200
21
0
31
0
0
ENDSEC
0
SECTION
2
OBJECTS
0
DICTIONARY
5
C
100
AcDbDictionary
3
ACAD_GROUP
350
D
3
ACAD_MLINESTYLE
350
17
0
DICTIONARY
5
D
100
AcDbDictionary
0
DICTIONARY
5
1A
330
C
100
AcDbDictionary
0
DICTIONARY
5
17
100
AcDbDictionary
0
ENDSEC
0
EOF
